STARTFONT 2.1
FONT -HP-Mincho-Bold-R-Normal--12-87-100-100-C-120-JISX0208.1990-0
SIZE 8 100 100
FONTBOUNDINGBOX 12 12 0 -2

STARTPROPERTIES 23
FONTNAME_REGISTRY ""
FOUNDRY "HP"
FAMILY_NAME "Mincho"
WEIGHT_NAME "Bold"
SLANT "R"
SETWIDTH_NAME "Normal"
ADD_STYLE_NAME ""
PIXEL_SIZE 12
POINT_SIZE 87
RESOLUTION_X 100
RESOLUTION_Y 100
SPACING "C"
AVERAGE_WIDTH 120
CHARSET_REGISTRY "JISX0208.1990"
CHARSET_ENCODING "0"
COPYRIGHT "Copyright (c) 1994 Hewlett-Packard Company. Copyright 1994 by Bridge Inc."
_HP_ASXVERSION "@(#) ASX 3.00 $Revision: 13.9 $ minB12k"
WEIGHT 10
X_HEIGHT 10
QUAD_WIDTH 12
DEFAULT_CHAR 8751
FONT_DESCENT 2
FONT_ASCENT 10
ENDPROPERTIES

CHARS 6963

STARTCHAR jisx0208_2121
ENCODING 8481
SWIDTH 960 0
DWIDTH 12 0
BBX 12 12 0 -2
BITMAP
0000
0000
0000
0000
0000
0000
0000
0000
0000
0000
0000
0000
ENDCHAR

STARTCHAR jisx0208_2122
ENCODING 8482
SWIDTH 960 0
DWIDTH 12 0
BBX 12 12 0 -2
BITMAP
0000
0000
0000
0000
0000
0000
0000
0000
0000
3000
1800
0000
ENDCHAR

STARTCHAR jisx0208_2123
ENCODING 8483
SWIDTH 960 0
DWIDTH 12 0
BBX 12 12 0 -2
BITMAP
0000
0000
0000
0000
0000
0000
0000
0000
1800
2C00
1800
0000
ENDCHAR

STARTCHAR jisx0208_2124
ENCODING 8484
SWIDTH 960 0
DWIDTH 12 0
BBX 12 12 0 -2
BITMAP
0000
0000
0000
0000
0000
0000
0000
0000
3800
1800
3000
0000
ENDCHAR

STARTCHAR jisx0208_2125
ENCODING 8485
SWIDTH 960 0
DWIDTH 12 0
BBX 12 12 0 -2
BITMAP
0000
0000
0000
0000
0000
0000
0000
0000
3000
3000
0000
0000
ENDCHAR

STARTCHAR jisx0208_2126
ENCODING 8486
SWIDTH 960 0
DWIDTH 12 0
BBX 12 12 0 -2
BITMAP
0000
0000
0000
0000
0000
0700
0700
0000
0000
0000
0000
0000
ENDCHAR

STARTCHAR jisx0208_2127
ENCODING 8487
SWIDTH 960 0
DWIDTH 12 0
BBX 12 12 0 -2
BITMAP
0000
0000
0000
0700
0000
0000
0000
0700
0000
0000
0000
0000
ENDCHAR

STARTCHAR jisx0208_2128
ENCODING 8488
SWIDTH 960 0
DWIDTH 12 0
BBX 12 12 0 -2
BITMAP
0000
0000
0000
0700
0000
0000
0000
0700
0300
0600
0000
0000
ENDCHAR

STARTCHAR jisx0208_2129
ENCODING 8489
SWIDTH 960 0
DWIDTH 12 0
BBX 12 12 0 -2
BITMAP
0000
0000
0F00
1980
1980
0300
0600
0600
0000
0700
0000
0000
ENDCHAR

STARTCHAR jisx0208_212A
ENCODING 8490
SWIDTH 960 0
DWIDTH 12 0
BBX 12 12 0 -2
BITMAP
0000
0000
0600
0600
0600
0600
0600
0000
0000
0700
0000
0000
ENDCHAR

STARTCHAR jisx0208_212B
ENCODING 8491
SWIDTH 960 0
DWIDTH 12 0
BBX 12 12 0 -2
BITMAP
0000
5800
5800
0000
0000
0000
0000
0000
0000
0000
0000
0000
ENDCHAR

STARTCHAR jisx0208_212C
ENCODING 8492
SWIDTH 960 0
DWIDTH 12 0
BBX 12 12 0 -2
BITMAP
0000
0000
3000
5800
3000
0000
0000
0000
0000
0000
0000
0000
ENDCHAR

STARTCHAR jisx0208_212D
ENCODING 8493
SWIDTH 960 0
DWIDTH 12 0
BBX 12 12 0 -2
BITMAP
0000
0700
0C00
0000
0000
0000
0000
0000
0000
0000
0000
0000
ENDCHAR

STARTCHAR jisx0208_212E
ENCODING 8494
SWIDTH 960 0
DWIDTH 12 0
BBX 12 12 0 -2
BITMAP
0000
0E00
0300
0000
0000
0000
0000
0000
0000
0000
0000
0000
ENDCHAR

STARTCHAR jisx0208_212F
ENCODING 8495
SWIDTH 960 0
DWIDTH 12 0
BBX 12 12 0 -2
BITMAP
0000
0D80
0D80
0000
0000
0000
0000
0000
0000
0000
0000
0000
ENDCHAR

STARTCHAR jisx0208_2130
ENCODING 8496
SWIDTH 960 0
DWIDTH 12 0
BBX 12 12 0 -2
BITMAP
0000
0600
0B00
0000
0000
0000
0000
0000
0000
0000
0000
0000
ENDCHAR

STARTCHAR jisx0208_2131
ENCODING 8497
SWIDTH 960 0
DWIDTH 12 0
BBX 12 12 0 -2
BITMAP
0000
7FF0
0000
0000
0000
0000
0000
0000
0000
0000
0000
0000
ENDCHAR

STARTCHAR jisx0208_2132
ENCODING 8498
SWIDTH 960 0
DWIDTH 12 0
BBX 12 12 0 -2
BITMAP
0000
0000
0000
0000
0000
0000
0000
0000
0000
0000
7FF0
0000
ENDCHAR

STARTCHAR jisx0208_2133
ENCODING 8499
SWIDTH 960 0
DWIDTH 12 0
BBX 12 12 0 -2
BITMAP
0000
0000
0000
1800
0C00
0600
0300
0180
0180
0000
0000
0000
ENDCHAR

STARTCHAR jisx0208_2134
ENCODING 8500
SWIDTH 960 0
DWIDTH 12 0
BBX 12 12 0 -2
BITMAP
0000
0000
0000
19C0
0C00
0600
0300
0180
0180
0000
0000
0000
ENDCHAR

STARTCHAR jisx0208_2135
ENCODING 8501
SWIDTH 960 0
DWIDTH 12 0
BBX 12 12 0 -2
BITMAP
0000
0000
0000
0C00
0600
0300
0180
0780
0180
0000
0000
0000
ENDCHAR

STARTCHAR jisx0208_2136
ENCODING 8502
SWIDTH 960 0
DWIDTH 12 0
BBX 12 12 0 -2
BITMAP
0000
0000
0000
0DC0
0600
0300
0180
0780
0180
0000
0000
0000
ENDCHAR

STARTCHAR jisx0208_2137
ENCODING 8503
SWIDTH 960 0
DWIDTH 12 0
BBX 12 12 0 -2
BITMAP
0000
0000
0000
0DC0
0D80
0D80
1B00
1B00
0000
0000
0000
0000
ENDCHAR

STARTCHAR jisx0208_2138
ENCODING 8504
SWIDTH 960 0
DWIDTH 12 0
BBX 12 12 0 -2
BITMAP
0000
0700
0700
0D80
18C0
7070
1FC0
0600
0600
0660
7FF0
0000
ENDCHAR

STARTCHAR jisx0208_2139
ENCODING 8505
SWIDTH 960 0
DWIDTH 12 0
BBX 12 12 0 -2
BITMAP
0000
0E00
0C00
0CC0
1FE0
30C0
6180
0B00
0600
0300
0180
0000
ENDCHAR

STARTCHAR jisx0208_213A
ENCODING 8506
SWIDTH 960 0
DWIDTH 12 0
BBX 12 12 0 -2
BITMAP
0000
0060
0030
0060
0EC0
1B80
1AC0
3660
2C00
3800
3000
0000
ENDCHAR

STARTCHAR jisx0208_213B
ENCODING 8507
SWIDTH 960 0
DWIDTH 12 0
BBX 12 12 0 -2
BITMAP
0000
0000
1F80
30C0
6060
6060
6060
6060
6060
30C0
1F80
0000
ENDCHAR

STARTCHAR jisx0208_213C
ENCODING 8508
SWIDTH 960 0
DWIDTH 12 0
BBX 12 12 0 -2
BITMAP
0000
0000
0000
0000
0000
30C0
1FE0
0000
0000
0000
0000
0000
ENDCHAR

STARTCHAR jisx0208_213D
ENCODING 8509
SWIDTH 960 0
DWIDTH 12 0
BBX 12 12 0 -2
BITMAP
0000
0000
0000
0000
0000
7FF0
0000
0000
0000
0000
0000
0000
ENDCHAR

STARTCHAR jisx0208_213E
ENCODING 8510
SWIDTH 960 0
DWIDTH 12 0
BBX 12 12 0 -2
BITMAP
0000
0000
0000
0000
0000
0F00
0000
0000
0000
0000
0000
0000
ENDCHAR

STARTCHAR jisx0208_213F
ENCODING 8511
SWIDTH 960 0
DWIDTH 12 0
BBX 12 12 0 -2
BITMAP
0000
0030
0060
00C0
0180
0300
0600
0C00
1800
3000
6000
0000
ENDCHAR

STARTCHAR jisx0208_2140
ENCODING 8512
SWIDTH 960 0
DWIDTH 12 0
BBX 12 12 0 -2
BITMAP
0000
6000
3000
1800
0C00
0600
0300
0180
00C0
0060
0030
0000
ENDCHAR

STARTCHAR jisx0208_2141
ENCODING 8513
SWIDTH 960 0
DWIDTH 12 0
BBX 12 12 0 -2
BITMAP
0000
0000
0000
0000
0000
3E30
63E0
0000
0000
0000
0000
0000
ENDCHAR

STARTCHAR jisx0208_2142
ENCODING 8514
SWIDTH 960 0
DWIDTH 12 0
BBX 12 12 0 -2
BITMAP
0000
0D80
0D80
0D80
0D80
0D80
0D80
0D80
0D80
0D80
0D80
0000
ENDCHAR

STARTCHAR jisx0208_2143
ENCODING 8515
SWIDTH 960 0
DWIDTH 12 0
BBX 12 12 0 -2
BITMAP
0000
0600
0600
0600
0600
0600
0600
0600
0600
0600
0600
0000
ENDCHAR

STARTCHAR jisx0208_2144
ENCODING 8516
SWIDTH 960 0
DWIDTH 12 0
BBX 12 12 0 -2
BITMAP
0000
0000
0000
0000
0000
36C0
36C0
0000
0000
0000
0000
0000
ENDCHAR

STARTCHAR jisx0208_2145
ENCODING 8517
SWIDTH 960 0
DWIDTH 12 0
BBX 12 12 0 -2
BITMAP
0000
0000
0000
0000
0000
18C0
18C0
0000
0000
0000
0000
0000
ENDCHAR

STARTCHAR jisx0208_2146
ENCODING 8518
SWIDTH 960 0
DWIDTH 12 0
BBX 12 12 0 -2
BITMAP
0000
0060
00C0
00E0
0000
0000
0000
0000
0000
0000
0000
0000
ENDCHAR

STARTCHAR jisx0208_2147
ENCODING 8519
SWIDTH 960 0
DWIDTH 12 0
BBX 12 12 0 -2
BITMAP
0000
3800
1800
3000
0000
0000
0000
0000
0000
0000
0000
0000
ENDCHAR

STARTCHAR jisx0208_2148
ENCODING 8520
SWIDTH 960 0
DWIDTH 12 0
BBX 12 12 0 -2
BITMAP
0000
01B0
0360
0370
0000
0000
0000
0000
0000
0000
0000
0000
ENDCHAR

STARTCHAR jisx0208_2149
ENCODING 8521
SWIDTH 960 0
DWIDTH 12 0
BBX 12 12 0 -2
BITMAP
0000
6E00
3600
6C00
0000
0000
0000
0000
0000
0000
0000
0000
ENDCHAR

STARTCHAR jisx0208_214A
ENCODING 8522
SWIDTH 960 0
DWIDTH 12 0
BBX 12 12 0 -2
BITMAP
0000
0060
00C0
00C0
0180
0180
0180
0180
00C0
00C0
0060
0000
ENDCHAR

STARTCHAR jisx0208_214B
ENCODING 8523
SWIDTH 960 0
DWIDTH 12 0
BBX 12 12 0 -2
BITMAP
0000
3000
1800
1800
0C00
0C00
0C00
0C00
1800
1800
3000
0000
ENDCHAR

STARTCHAR jisx0208_214C
ENCODING 8524
SWIDTH 960 0
DWIDTH 12 0
BBX 12 12 0 -2
BITMAP
0000
0060
01C0
0180
0180
0180
0180
0180
0180
01C0
0060
0000
ENDCHAR

STARTCHAR jisx0208_214D
ENCODING 8525
SWIDTH 960 0
DWIDTH 12 0
BBX 12 12 0 -2
BITMAP
0000
3000
1C00
0C00
0C00
0C00
0C00
0C00
0C00
1C00
3000
0000
ENDCHAR

STARTCHAR jisx0208_214E
ENCODING 8526
SWIDTH 960 0
DWIDTH 12 0
BBX 12 12 0 -2
BITMAP
0000
01E0
0180
0180
0180
0180
0180
0180
0180
0180
01E0
0000
ENDCHAR

STARTCHAR jisx0208_214F
ENCODING 8527
SWIDTH 960 0
DWIDTH 12 0
BBX 12 12 0 -2
BITMAP
0000
3C00
0C00
0C00
0C00
0C00
0C00
0C00
0C00
0C00
3C00
0000
ENDCHAR

STARTCHAR jisx0208_2150
ENCODING 8528
SWIDTH 960 0
DWIDTH 12 0
BBX 12 12 0 -2
BITMAP
0000
0070
00C0
00C0
00C0
0180
00C0
00C0
00C0
00C0
0070
0000
ENDCHAR

STARTCHAR jisx0208_2151
ENCODING 8529
SWIDTH 960 0
DWIDTH 12 0
BBX 12 12 0 -2
BITMAP
0000
7000
1800
1800
1800
0C00
1800
1800
1800
1800
7000
0000
ENDCHAR

STARTCHAR jisx0208_2152
ENCODING 8530
SWIDTH 960 0
DWIDTH 12 0
BBX 12 12 0 -2
BITMAP
0000
0060
0060
00C0
00C0
0180
0180
00C0
00C0
0060
0060
0000
ENDCHAR

STARTCHAR jisx0208_2153
ENCODING 8531
SWIDTH 960 0
DWIDTH 12 0
BBX 12 12 0 -2
BITMAP
0000
3000
3000
1800
1800
0C00
0C00
1800
1800
3000
3000
0000
ENDCHAR

STARTCHAR jisx0208_2154
ENCODING 8532
SWIDTH 960 0
DWIDTH 12 0
BBX 12 12 0 -2
BITMAP
0000
00B0
00B0
0160
0160
02C0
02C0
0160
0160
00B0
00B0
0000
ENDCHAR

STARTCHAR jisx0208_2155
ENCODING 8533
SWIDTH 960 0
DWIDTH 12 0
BBX 12 12 0 -2
BITMAP
0000
5800
5800
2C00
2C00
1600
1600
2C00
2C00
5800
5800
0000
ENDCHAR

STARTCHAR jisx0208_2156
ENCODING 8534
SWIDTH 960 0
DWIDTH 12 0
BBX 12 12 0 -2
BITMAP
0000
01E0
0180
0180
0180
0180
0180
0180
0180
0180
0180
0000
ENDCHAR

STARTCHAR jisx0208_2157
ENCODING 8535
SWIDTH 960 0
DWIDTH 12 0
BBX 12 12 0 -2
BITMAP
0000
0C00
0C00
0C00
0C00
0C00
0C00
0C00
0C00
0C00
3C00
0000
ENDCHAR

STARTCHAR jisx0208_2158
ENCODING 8536
SWIDTH 960 0
DWIDTH 12 0
BBX 12 12 0 -2
BITMAP
0000
03E0
0360
02E0
02C0
02C0
02C0
02C0
02C0
02C0
03C0
0000
ENDCHAR

STARTCHAR jisx0208_2159
ENCODING 8537
SWIDTH 960 0
DWIDTH 12 0
BBX 12 12 0 -2
BITMAP
0000
1E00
1600
1600
1600
1600
1600
1600
3600
3600
3E00
0000
ENDCHAR

STARTCHAR jisx0208_215A
ENCODING 8538
SWIDTH 960 0
DWIDTH 12 0
BBX 12 12 0 -2
BITMAP
0000
01E0
01C0
01C0
0180
0180
0180
0180
01C0
01C0
01E0
0000
ENDCHAR

STARTCHAR jisx0208_215B
ENCODING 8539
SWIDTH 960 0
DWIDTH 12 0
BBX 12 12 0 -2
BITMAP
0000
3C00
1C00
1C00
0C00
0C00
0C00
0C00
1C00
1C00
3C00
0000
ENDCHAR

STARTCHAR jisx0208_215C
ENCODING 8540
SWIDTH 960 0
DWIDTH 12 0
BBX 12 12 0 -2
BITMAP
0000
0000
0600
0600
0600
3FC0
0600
0600
0600
0000
0000
0000
ENDCHAR

STARTCHAR jisx0208_215D
ENCODING 8541
SWIDTH 960 0
DWIDTH 12 0
BBX 12 12 0 -2
BITMAP
0000
0000
0000
0000
0000
3FC0
0000
0000
0000
0000
0000
0000
ENDCHAR

STARTCHAR jisx0208_215E
ENCODING 8542
SWIDTH 960 0
DWIDTH 12 0
BBX 12 12 0 -2
BITMAP
0000
0000
0600
0600
3FC0
0600
0600
0000
3FC0
0000
0000
0000
ENDCHAR

STARTCHAR jisx0208_215F
ENCODING 8543
SWIDTH 960 0
DWIDTH 12 0
BBX 12 12 0 -2
BITMAP
0000
0000
0000
18C0
0D80
0700
0700
0D80
18C0
0000
0000
0000
ENDCHAR

STARTCHAR jisx0208_2160
ENCODING 8544
SWIDTH 960 0
DWIDTH 12 0
BBX 12 12 0 -2
BITMAP
0000
0000
0700
0000
0000
3FE0
0000
0000
0700
0000
0000
0000
ENDCHAR

STARTCHAR jisx0208_2161
ENCODING 8545
SWIDTH 960 0
DWIDTH 12 0
BBX 12 12 0 -2
BITMAP
0000
0000
0000
0000
3FC0
0000
0000
3FC0
0000
0000
0000
0000
ENDCHAR

STARTCHAR jisx0208_2162
ENCODING 8546
SWIDTH 960 0
DWIDTH 12 0
BBX 12 12 0 -2
BITMAP
0000
0000
0180
0180
3FC0
0600
0600
3FC0
1800
1800
0000
0000
ENDCHAR

STARTCHAR jisx0208_2163
ENCODING 8547
SWIDTH 960 0
DWIDTH 12 0
BBX 12 12 0 -2
BITMAP
0000
0000
01C0
0700
1C00
3000
1C00
0700
01C0
0000
0000
0000
ENDCHAR

STARTCHAR jisx0208_2164
ENCODING 8548
SWIDTH 960 0
DWIDTH 12 0
BBX 12 12 0 -2
BITMAP
0000
0000
1C00
0700
01C0
0060
01C0
0700
1C00
0000
0000
0000
ENDCHAR

STARTCHAR jisx0208_2165
ENCODING 8549
SWIDTH 960 0
DWIDTH 12 0
BBX 12 12 0 -2
BITMAP
0000
0000
01C0
0F00
3800
0F00
01C0
3FC0
0000
3FC0
0000
0000
ENDCHAR

STARTCHAR jisx0208_2166
ENCODING 8550
SWIDTH 960 0
DWIDTH 12 0
BBX 12 12 0 -2
BITMAP
0000
0000
3800
0F00
01C0
0F00
3800
3FC0
0000
3FC0
0000
0000
ENDCHAR

STARTCHAR jisx0208_2167
ENCODING 8551
SWIDTH 960 0
DWIDTH 12 0
BBX 12 12 0 -2
BITMAP
0000
0000
0000
39C0
6B60
6660
6B60
39C0
0000
0000
0000
0000
ENDCHAR

STARTCHAR jisx0208_2168
ENCODING 8552
SWIDTH 960 0
DWIDTH 12 0
BBX 12 12 0 -2
BITMAP
0000
0000
0600
0600
0000
0000
0000
30C0
30C0
0000
0000
0000
ENDCHAR

STARTCHAR jisx0208_2169
ENCODING 8553
SWIDTH 960 0
DWIDTH 12 0
BBX 12 12 0 -2
BITMAP
0000
0000
03E0
00E0
0160
1F60
3300
3300
3300
1E00
0000
0000
ENDCHAR

STARTCHAR jisx0208_216A
ENCODING 8554
SWIDTH 960 0
DWIDTH 12 0
BBX 12 12 0 -2
BITMAP
0000
0F00
1980
1980
1980
0F00
0600
3FC0
0600
0600
0000
0000
ENDCHAR

STARTCHAR jisx0208_216B
ENCODING 8555
SWIDTH 960 0
DWIDTH 12 0
BBX 12 12 0 -2
BITMAP
0000
3000
5800
3000
0000
0000
0000
0000
0000
0000
0000
0000
ENDCHAR

STARTCHAR jisx0208_216C
ENCODING 8556
SWIDTH 960 0
DWIDTH 12 0
BBX 12 12 0 -2
BITMAP
0000
3000
6000
0000
0000
0000
0000
0000
0000
0000
0000
0000
ENDCHAR

STARTCHAR jisx0208_216D
ENCODING 8557
SWIDTH 960 0
DWIDTH 12 0
BBX 12 12 0 -2
BITMAP
0000
2C00
5800
0000
0000
0000
0000
0000
0000
0000
0000
0000
ENDCHAR

STARTCHAR jisx0208_216E
ENCODING 8558
SWIDTH 960 0
DWIDTH 12 0
BBX 12 12 0 -2
BITMAP
0000
3000
5760
2CE0
1860
1800
1800
1860
0CC0
0780
0000
0000
ENDCHAR

STARTCHAR jisx0208_216F
ENCODING 8559
SWIDTH 960 0
DWIDTH 12 0
BBX 12 12 0 -2
BITMAP
0000
0000
3BC0
1980
0B00
3BC0
0600
3FC0
0600
0F00
0000
0000
ENDCHAR

STARTCHAR jisx0208_2170
ENCODING 8560
SWIDTH 960 0
DWIDTH 12 0
BBX 12 12 0 -2
BITMAP
0000
0600
1F80
3580
3580
1E00
0700
3580
3580
3F00
0600
0000
ENDCHAR

STARTCHAR jisx0208_2171
ENCODING 8561
SWIDTH 960 0
DWIDTH 12 0
BBX 12 12 0 -2
BITMAP
0000
0000
0000
0300
0F00
1B80
1580
1600
1D80
0F00
0C00
0000
ENDCHAR

STARTCHAR jisx0208_2172
ENCODING 8562
SWIDTH 960 0
DWIDTH 12 0
BBX 12 12 0 -2
BITMAP
0000
0000
03C0
06C0
0600
1FC0
0600
1E00
3660
1BC0
0000
0000
ENDCHAR

STARTCHAR jisx0208_2173
ENCODING 8563
SWIDTH 960 0
DWIDTH 12 0
BBX 12 12 0 -2
BITMAP
0000
0000
38C0
6D80
6B00
3600
05C0
0B60
1B60
31C0
0000
0000
ENDCHAR

STARTCHAR jisx0208_2174
ENCODING 8564
SWIDTH 960 0
DWIDTH 12 0
BBX 12 12 0 -2
BITMAP
0000
0000
0D80
0D80
3FC0
1B00
1B00
3FC0
1B00
1B00
0000
0000
ENDCHAR

STARTCHAR jisx0208_2175
ENCODING 8565
SWIDTH 960 0
DWIDTH 12 0
BBX 12 12 0 -2
BITMAP
0000
0000
0E00
1B00
1600
0C00
15E0
32C0
3180
1EE0
0000
0000
ENDCHAR

STARTCHAR jisx0208_2176
ENCODING 8566
SWIDTH 960 0
DWIDTH 12 0
BBX 12 12 0 -2
BITMAP
0000
0000
0000
0600
1580
0F00
0F00
1580
0600
0000
0000
0000
ENDCHAR

STARTCHAR jisx0208_2177
ENCODING 8567
SWIDTH 960 0
DWIDTH 12 0
BBX 12 12 0 -2
BITMAP
0000
0000
0F80
18C0
3760
2D60
2D60
36C0
1800
0FC0
0000
0000
ENDCHAR

STARTCHAR jisx0208_2178
ENCODING 8568
SWIDTH 960 0
DWIDTH 12 0
BBX 12 12 0 -2
BITMAP
0000
0700
0D80
0C00
0700
0D80
0D80
0700
0180
0D80
0700
0000
ENDCHAR

STARTCHAR jisx0208_2179
ENCODING 8569
SWIDTH 960 0
DWIDTH 12 0
BBX 12 12 0 -2
BITMAP
0000
0700
0700
0700
0D80
7DF0
3060
18C0
16C0
3DE0
3060
0000
ENDCHAR

STARTCHAR jisx0208_217A
ENCODING 8570
SWIDTH 960 0
DWIDTH 12 0
BBX 12 12 0 -2
BITMAP
0000
0700
0700
0700
0F80
7FF0
3FE0
1FC0
1FC0
3DE0
3060
0000
ENDCHAR

STARTCHAR jisx0208_217B
ENCODING 8571
SWIDTH 960 0
DWIDTH 12 0
BBX 12 12 0 -2
BITMAP
0000
1F80
30C0
6060
6060
6060
6060
6060
30C0
1F80
0000
0000
ENDCHAR

STARTCHAR jisx0208_217C
ENCODING 8572
SWIDTH 960 0
DWIDTH 12 0
BBX 12 12 0 -2
BITMAP
0000
1F80
3FC0
7FE0
7FE0
7FE0
7FE0
7FE0
3FC0
1F80
0000
0000
ENDCHAR

STARTCHAR jisx0208_217D
ENCODING 8573
SWIDTH 960 0
DWIDTH 12 0
BBX 12 12 0 -2
BITMAP
0000
1F80
30C0
6F60
5960
5960
5960
6F60
30C0
1F80
0000
0000
ENDCHAR

STARTCHAR jisx0208_217E
ENCODING 8574
SWIDTH 960 0
DWIDTH 12 0
BBX 12 12 0 -2
BITMAP
0000
0700
0D80
18C0
3060
6030
6030
3060
18C0
0D80
0700
0000
ENDCHAR

STARTCHAR jisx0208_2221
ENCODING 8737
SWIDTH 960 0
DWIDTH 12 0
BBX 12 12 0 -2
BITMAP
0000
0700
0F80
1FC0
3FE0
7FF0
7FF0
3FE0
1FC0
0F80
0700
0000
ENDCHAR

STARTCHAR jisx0208_2222
ENCODING 8738
SWIDTH 960 0
DWIDTH 12 0
BBX 12 12 0 -2
BITMAP
0000
0000
3FE0
3060
3060
3060
3060
3060
3060
3FE0
0000
0000
ENDCHAR

STARTCHAR jisx0208_2223
ENCODING 8739
SWIDTH 960 0
DWIDTH 12 0
BBX 12 12 0 -2
BITMAP
0000
0000
3FE0
3FE0
3FE0
3FE0
3FE0
3FE0
3FE0
3FE0
0000
0000
ENDCHAR

STARTCHAR jisx0208_2224
ENCODING 8740
SWIDTH 960 0
DWIDTH 12 0
BBX 12 12 0 -2
BITMAP
0000
0000
0700
0700
0D80
0D80
18C0
3060
3060
7FF0
0000
0000
ENDCHAR

STARTCHAR jisx0208_2225
ENCODING 8741
SWIDTH 960 0
DWIDTH 12 0
BBX 12 12 0 -2
BITMAP
0000
0000
0700
0700
0F80
0F80
1FC0
3FE0
3FE0
7FF0
0000
0000
ENDCHAR

STARTCHAR jisx0208_2226
ENCODING 8742
SWIDTH 960 0
DWIDTH 12 0
BBX 12 12 0 -2
BITMAP
0000
0000
7FF0
3060
3060
18C0
0D80
0D80
0700
0700
0000
0000
ENDCHAR

STARTCHAR jisx0208_2227
ENCODING 8743
SWIDTH 960 0
DWIDTH 12 0
BBX 12 12 0 -2
BITMAP
0000
0000
7FF0
3FE0
3FE0
1FC0
0F80
0F80
0700
0700
0000
0000
ENDCHAR

STARTCHAR jisx0208_2228
ENCODING 8744
SWIDTH 960 0
DWIDTH 12 0
BBX 12 12 0 -2
BITMAP
0000
0000
3760
16C0
0D80
36E0
36E0
0D80
16C0
3760
0000
0000
ENDCHAR

STARTCHAR jisx0208_2229
ENCODING 8745
SWIDTH 960 0
DWIDTH 12 0
BBX 12 12 0 -2
BITMAP
0000
0000
3FC0
0000
0000
3FC0
0600
0600
0600
0600
0000
0000
ENDCHAR

STARTCHAR jisx0208_222A
ENCODING 8746
SWIDTH 960 0
DWIDTH 12 0
BBX 12 12 0 -2
BITMAP
0000
0000
0000
00C0
0060
7FF0
0060
00C0
0000
0000
0000
0000
ENDCHAR

STARTCHAR jisx0208_222B
ENCODING 8747
SWIDTH 960 0
DWIDTH 12 0
BBX 12 12 0 -2
BITMAP
0000
0000
0000
1800
3000
7FF0
3000
1800
0000
0000
0000
0000
ENDCHAR

STARTCHAR jisx0208_222C
ENCODING 8748
SWIDTH 960 0
DWIDTH 12 0
BBX 12 12 0 -2
BITMAP
0000
0600
0F00
1580
0600
0600
0600
0600
0600
0600
0600
0000
ENDCHAR

STARTCHAR jisx0208_222D
ENCODING 8749
SWIDTH 960 0
DWIDTH 12 0
BBX 12 12 0 -2
BITMAP
0000
0600
0600
0600
0600
0600
0600
0600
1580
0F00
0600
0000
ENDCHAR

STARTCHAR jisx0208_222E
ENCODING 8750
SWIDTH 960 0
DWIDTH 12 0
BBX 12 12 0 -2
BITMAP
0000
0000
0000
1FC0
1FC0
0000
1FC0
1FC0
0000
0000
0000
0000
ENDCHAR

STARTCHAR jisx0208_222F
ENCODING 8751
SWIDTH 960 0
DWIDTH 12 0
BBX 12 12 0 -2
BITMAP
0000
6030
0000
0000
0000
0000
0000
0000
0000
0000
6030
0000
ENDCHAR

STARTCHAR jisx0208_223A
ENCODING 8762
SWIDTH 960 0
DWIDTH 12 0
BBX 12 12 0 -2
BITMAP
0000
0000
0000
1FC0
3000
3FC0
3000
1FC0
0000
0000
0000
0000
ENDCHAR

STARTCHAR jisx0208_223B
ENCODING 8763
SWIDTH 960 0
DWIDTH 12 0
BBX 12 12 0 -2
BITMAP
0000
0000
0000
3F80
00C0
3FC0
00C0
3F80
0000
0000
0000
0000
ENDCHAR

STARTCHAR jisx0208_223C
ENCODING 8764
SWIDTH 960 0
DWIDTH 12 0
BBX 12 12 0 -2
BITMAP
0000
0000
1FC0
3000
3000
3000
1FC0
0000
3FC0
0000
0000
0000
ENDCHAR

STARTCHAR jisx0208_223D
ENCODING 8765
SWIDTH 960 0
DWIDTH 12 0
BBX 12 12 0 -2
BITMAP
0000
0000
3F80
00C0
00C0
00C0
3F80
0000
3FC0
0000
0000
0000
ENDCHAR

STARTCHAR jisx0208_223E
ENCODING 8766
SWIDTH 960 0
DWIDTH 12 0
BBX 12 12 0 -2
BITMAP
0000
0000
0000
1FC0
3000
3000
3000
3000
1FC0
0000
0000
0000
ENDCHAR

STARTCHAR jisx0208_223F
ENCODING 8767
SWIDTH 960 0
DWIDTH 12 0
BBX 12 12 0 -2
BITMAP
0000
0000
0000
3F80
00C0
00C0
00C0
00C0
3F80
0000
0000
0000
ENDCHAR

STARTCHAR jisx0208_2240
ENCODING 8768
SWIDTH 960 0
DWIDTH 12 0
BBX 12 12 0 -2
BITMAP
0000
0000
18C0
18C0
18C0
18C0
18C0
18C0
0F80
0000
0000
0000
ENDCHAR

STARTCHAR jisx0208_2241
ENCODING 8769
SWIDTH 960 0
DWIDTH 12 0
BBX 12 12 0 -2
BITMAP
0000
0000
0F80
18C0
18C0
18C0
18C0
18C0
18C0
0000
0000
0000
ENDCHAR

STARTCHAR jisx0208_224A
ENCODING 8778
SWIDTH 960 0
DWIDTH 12 0
BBX 12 12 0 -2
BITMAP
0000
0000
0600
0B00
0B00
1980
1980
30C0
30C0
0000
0000
0000
ENDCHAR

STARTCHAR jisx0208_224B
ENCODING 8779
SWIDTH 960 0
DWIDTH 12 0
BBX 12 12 0 -2
BITMAP
0000
0000
30C0
30C0
1980
1980
0B00
0B00
0600
0000
0000
0000
ENDCHAR

STARTCHAR jisx0208_224C
ENCODING 8780
SWIDTH 960 0
DWIDTH 12 0
BBX 12 12 0 -2
BITMAP
0000
0000
0000
0000
3FE0
0060
0060
0000
0000
0000
0000
0000
ENDCHAR

STARTCHAR jisx0208_224D
ENCODING 8781
SWIDTH 960 0
DWIDTH 12 0
BBX 12 12 0 -2
BITMAP
0000
0000
0180
00C0
7FE0
0030
7FE0
00C0
0180
0000
0000
0000
ENDCHAR

STARTCHAR jisx0208_224E
ENCODING 8782
SWIDTH 960 0
DWIDTH 12 0
BBX 12 12 0 -2
BITMAP
0000
0000
0D80
18C0
3FE0
6030
3FE0
18C0
0D80
0000
0000
0000
ENDCHAR

STARTCHAR jisx0208_224F
ENCODING 8783
SWIDTH 960 0
DWIDTH 12 0
BBX 12 12 0 -2
BITMAP
0000
0000
30C0
30C0
1F80
1980
0B00
0B00
0600
0000
0000
0000
ENDCHAR

STARTCHAR jisx0208_2250
ENCODING 8784
SWIDTH 960 0
DWIDTH 12 0
BBX 12 12 0 -2
BITMAP
0000
0000
1FC0
00C0
00C0
1FC0
00C0
00C0
1FC0
0000
0000
0000
ENDCHAR

STARTCHAR jisx0208_225C
ENCODING 8796
SWIDTH 960 0
DWIDTH 12 0
BBX 12 12 0 -2
BITMAP
0000
0000
00C0
0180
0300
0600
0C00
1800
3FC0
0000
0000
0000
ENDCHAR

STARTCHAR jisx0208_225D
ENCODING 8797
SWIDTH 960 0
DWIDTH 12 0
BBX 12 12 0 -2
BITMAP
0000
0000
0600
0600
0600
0600
0600
0600
3FC0
0000
0000
0000
ENDCHAR

STARTCHAR jisx0208_225E
ENCODING 8798
SWIDTH 960 0
DWIDTH 12 0
BBX 12 12 0 -2
BITMAP
0000
0F80
38E0
6030
0000
0000
0000
0000
0000
0000
0000
0000
ENDCHAR

STARTCHAR jisx0208_225F
ENCODING 8799
SWIDTH 960 0
DWIDTH 12 0
BBX 12 12 0 -2
BITMAP
0000
0000
0F00
1980
0180
0F80
1980
1980
1980
0F00
0000
0000
ENDCHAR

STARTCHAR jisx0208_2260
ENCODING 8800
SWIDTH 960 0
DWIDTH 12 0
BBX 12 12 0 -2
BITMAP
0000
0000
3FE0
3FE0
18C0
1CC0
0D80
0700
0700
0000
0000
0000
ENDCHAR

STARTCHAR jisx0208_2261
ENCODING 8801
SWIDTH 960 0
DWIDTH 12 0
BBX 12 12 0 -2
BITMAP
0000
0000
0000
3FC0
0000
3FC0
0000
3FC0
0000
0000
0000
0000
ENDCHAR

STARTCHAR jisx0208_2262
ENCODING 8802
SWIDTH 960 0
DWIDTH 12 0
BBX 12 12 0 -2
BITMAP
0000
0000
1C00
0000
3FC0
0000
3FC0
0000
0380
0000
0000
0000
ENDCHAR

STARTCHAR jisx0208_2263
ENCODING 8803
SWIDTH 960 0
DWIDTH 12 0
BBX 12 12 0 -2
BITMAP
0000
0000
06C0
0D80
1B00
3600
3600
1B00
0D80
06C0
0000
0000
ENDCHAR

STARTCHAR jisx0208_2264
ENCODING 8804
SWIDTH 960 0
DWIDTH 12 0
BBX 12 12 0 -2
BITMAP
0000
0000
1B00
0D80
06C0
0360
0360
06C0
0D80
1B00
0000
0000
ENDCHAR

STARTCHAR jisx0208_2265
ENCODING 8805
SWIDTH 960 0
DWIDTH 12 0
BBX 12 12 0 -2
BITMAP
0000
03F0
0300
0300
0600
0600
3600
2C00
5C00
0C00
0000
0000
ENDCHAR

STARTCHAR jisx0208_2266
ENCODING 8806
SWIDTH 960 0
DWIDTH 12 0
BBX 12 12 0 -2
BITMAP
0000
0000
0000
39C0
6360
6660
6C60
39C0
0000
0000
0000
0000
ENDCHAR

STARTCHAR jisx0208_2267
ENCODING 8807
SWIDTH 960 0
DWIDTH 12 0
BBX 12 12 0 -2
BITMAP
0000
0000
0000
39C0
6B60
6600
6B60
39C0
0000
0000
0000
0000
ENDCHAR

STARTCHAR jisx0208_2268
ENCODING 8808
SWIDTH 960 0
DWIDTH 12 0
BBX 12 12 0 -2
BITMAP
0000
0000
30C0
30C0
0000
0000
0000
0600
0600
0000
0000
0000
ENDCHAR

STARTCHAR jisx0208_2269
ENCODING 8809
SWIDTH 960 0
DWIDTH 12 0
BBX 12 12 0 -2
BITMAP
0000
0300
0580
0600
0600
0600
0300
0300
0300
0B00
0600
0000
ENDCHAR

STARTCHAR jisx0208_226A
ENCODING 8810
SWIDTH 960 0
DWIDTH 12 0
BBX 12 12 0 -2
BITMAP
0000
0CC0
1560
1980
1980
1980
0CC0
0CC0
0CC0
2AC0
1980
0000
ENDCHAR

STARTCHAR jisx0208_2272
ENCODING 8818
SWIDTH 960 0
DWIDTH 12 0
BBX 12 12 0 -2
BITMAP
0000
0600
0B00
0600
0B00
0B00
1980
1F80
30C0
79E0
0000
0000
ENDCHAR

STARTCHAR jisx0208_2273
ENCODING 8819
SWIDTH 960 0
DWIDTH 12 0
BBX 12 12 0 -2
BITMAP
0000
0000
3300
5B00
5600
2C00
0B60
15B0
35B0
3360
0000
0000
ENDCHAR

STARTCHAR jisx0208_2274
ENCODING 8820
SWIDTH 960 0
DWIDTH 12 0
BBX 12 12 0 -2
BITMAP
0000
0000
0180
0D80
0FC0
1D80
0D80
0FC0
1D80
0D80
0C00
0000
ENDCHAR

STARTCHAR jisx0208_2275
ENCODING 8821
SWIDTH 960 0
DWIDTH 12 0
BBX 12 12 0 -2
BITMAP
0000
0C00
0C00
0C00
0C00
0F00
0D80
0D80
0B00
0E00
0C00
0000
ENDCHAR

STARTCHAR jisx0208_2276
ENCODING 8822
SWIDTH 960 0
DWIDTH 12 0
BBX 12 12 0 -2
BITMAP
0000
0600
0700
0580
06C0
06C0
06C0
0580
0600
1E00
1C00
0000
ENDCHAR

STARTCHAR jisx0208_2277
ENCODING 8823
SWIDTH 960 0
DWIDTH 12 0
BBX 12 12 0 -2
BITMAP
0000
0600
0600
1F80
0600
0F00
0600
0600
0600
0600
0F00
0000
ENDCHAR

STARTCHAR jisx0208_2278
ENCODING 8824
SWIDTH 960 0
DWIDTH 12 0
BBX 12 12 0 -2
BITMAP
0000
0600
1F80
0600
0F00
0600
0600
0F00
0600
1F80
0600
0000
ENDCHAR

STARTCHAR jisx0208_2279
ENCODING 8825
SWIDTH 960 0
DWIDTH 12 0
BBX 12 12 0 -2
BITMAP
0000
0FC0
1D80
1D80
1D80
0D80
0580
0580
0580
0580
0580
0000
ENDCHAR

STARTCHAR jisx0208_227E
ENCODING 8830
SWIDTH 960 0
DWIDTH 12 0
BBX 12 12 0 -2
BITMAP
0000
1FC0
3060
6030
6030
6030
6030
6030
6030
3060
1FC0
0000
ENDCHAR

STARTCHAR jisx0208_2330
ENCODING 9008
SWIDTH 960 0
DWIDTH 12 0
BBX 12 12 0 -2
BITMAP
0000
0000
0F80
18C0
18C0
18C0
18C0
18C0
18C0
0F80
0000
0000
ENDCHAR

STARTCHAR jisx0208_2331
ENCODING 9009
SWIDTH 960 0
DWIDTH 12 0
BBX 12 12 0 -2
BITMAP
0000
0000
0600
0E00
1600
0600
0600
0600
0600
1F80
0000
0000
ENDCHAR

STARTCHAR jisx0208_2332
ENCODING 9010
SWIDTH 960 0
DWIDTH 12 0
BBX 12 12 0 -2
BITMAP
0000
0000
0F80
18C0
1CC0
0180
0700
0C00
18C0
1FC0
0000
0000
ENDCHAR

STARTCHAR jisx0208_2333
ENCODING 9011
SWIDTH 960 0
DWIDTH 12 0
BBX 12 12 0 -2
BITMAP
0000
0000
0F80
18C0
1CC0
0780
00C0
1CC0
18C0
0F80
0000
0000
ENDCHAR

STARTCHAR jisx0208_2334
ENCODING 9012
SWIDTH 960 0
DWIDTH 12 0
BBX 12 12 0 -2
BITMAP
0000
0000
0180
0380
0580
0D80
1960
3FE0
0180
03C0
0000
0000
ENDCHAR

STARTCHAR jisx0208_2335
ENCODING 9013
SWIDTH 960 0
DWIDTH 12 0
BBX 12 12 0 -2
BITMAP
0000
0000
1FC0
1800
1800
1F80
00C0
1CC0
18C0
0F80
0000
0000
ENDCHAR

STARTCHAR jisx0208_2336
ENCODING 9014
SWIDTH 960 0
DWIDTH 12 0
BBX 12 12 0 -2
BITMAP
0000
0000
0F80
18C0
1800
1F80
18C0
18C0
18C0
0F80
0000
0000
ENDCHAR

STARTCHAR jisx0208_2337
ENCODING 9015
SWIDTH 960 0
DWIDTH 12 0
BBX 12 12 0 -2
BITMAP
0000
0000
1FC0
18C0
0180
0300
0300
0600
0600
0600
0000
0000
ENDCHAR

STARTCHAR jisx0208_2338
ENCODING 9016
SWIDTH 960 0
DWIDTH 12 0
BBX 12 12 0 -2
BITMAP
0000
0000
0F80
18C0
18C0
0F80
18C0
18C0
18C0
0F80
0000
0000
ENDCHAR

STARTCHAR jisx0208_2339
ENCODING 9017
SWIDTH 960 0
DWIDTH 12 0
BBX 12 12 0 -2
BITMAP
0000
0000
0F80
18C0
18C0
18C0
0FC0
00C0
18C0
0F80
0000
0000
ENDCHAR

STARTCHAR jisx0208_2341
ENCODING 9025
SWIDTH 960 0
DWIDTH 12 0
BBX 12 12 0 -2
BITMAP
0000
0000
0600
0600
0B00
0B00
1980
1F80
30C0
79E0
0000
0000
ENDCHAR

STARTCHAR jisx0208_2342
ENCODING 9026
SWIDTH 960 0
DWIDTH 12 0
BBX 12 12 0 -2
BITMAP
0000
0000
3F00
1980
1980
1F80
18C0
18C0
18C0
3F80
0000
0000
ENDCHAR

STARTCHAR jisx0208_2343
ENCODING 9027
SWIDTH 960 0
DWIDTH 12 0
BBX 12 12 0 -2
BITMAP
0000
0000
0EC0
19C0
30C0
3000
3000
30C0
1980
0F00
0000
0000
ENDCHAR

STARTCHAR jisx0208_2344
ENCODING 9028
SWIDTH 960 0
DWIDTH 12 0
BBX 12 12 0 -2
BITMAP
0000
0000
3F00
1980
18C0
18C0
18C0
18C0
1980
3F00
0000
0000
ENDCHAR

STARTCHAR jisx0208_2345
ENCODING 9029
SWIDTH 960 0
DWIDTH 12 0
BBX 12 12 0 -2
BITMAP
0000
0000
3FC0
18C0
1B00
1F00
1B00
1800
18C0
3FC0
0000
0000
ENDCHAR

STARTCHAR jisx0208_2346
ENCODING 9030
SWIDTH 960 0
DWIDTH 12 0
BBX 12 12 0 -2
BITMAP
0000
0000
3FC0
18C0
1B00
1F00
1B00
1800
1800
3C00
0000
0000
ENDCHAR

STARTCHAR jisx0208_2347
ENCODING 9031
SWIDTH 960 0
DWIDTH 12 0
BBX 12 12 0 -2
BITMAP
0000
0000
0EC0
19C0
30C0
3000
33E0
30C0
19C0
0EC0
0000
0000
ENDCHAR

STARTCHAR jisx0208_2348
ENCODING 9032
SWIDTH 960 0
DWIDTH 12 0
BBX 12 12 0 -2
BITMAP
0000
0000
3DE0
18C0
18C0
1FC0
18C0
18C0
18C0
3DE0
0000
0000
ENDCHAR

STARTCHAR jisx0208_2349
ENCODING 9033
SWIDTH 960 0
DWIDTH 12 0
BBX 12 12 0 -2
BITMAP
0000
0000
0F00
0600
0600
0600
0600
0600
0600
0F00
0000
0000
ENDCHAR

STARTCHAR jisx0208_234A
ENCODING 9034
SWIDTH 960 0
DWIDTH 12 0
BBX 12 12 0 -2
BITMAP
0000
0000
03C0
0180
0180
0180
0180
1D80
1980
0F00
0000
0000
ENDCHAR

STARTCHAR jisx0208_234B
ENCODING 9035
SWIDTH 960 0
DWIDTH 12 0
BBX 12 12 0 -2
BITMAP
0000
0000
3BC0
1980
1B00
1600
1B00
1980
18C0
3DE0
0000
0000
ENDCHAR

STARTCHAR jisx0208_234C
ENCODING 9036
SWIDTH 960 0
DWIDTH 12 0
BBX 12 12 0 -2
BITMAP
0000
0000
3C00
1800
1800
1800
1800
18C0
18C0
3FC0
0000
0000
ENDCHAR

STARTCHAR jisx0208_234D
ENCODING 9037
SWIDTH 960 0
DWIDTH 12 0
BBX 12 12 0 -2
BITMAP
0000
0000
70E0
30C0
39C0
39C0
2AC0
2AC0
36C0
75E0
0000
0000
ENDCHAR

STARTCHAR jisx0208_234E
ENCODING 9038
SWIDTH 960 0
DWIDTH 12 0
BBX 12 12 0 -2
BITMAP
0000
0000
39E0
1CC0
1CC0
16C0
1AC0
1AC0
19C0
3CC0
0000
0000
ENDCHAR

STARTCHAR jisx0208_234F
ENCODING 9039
SWIDTH 960 0
DWIDTH 12 0
BBX 12 12 0 -2
BITMAP
0000
0000
0F00
1980
30C0
30C0
30C0
30C0
1980
0F00
0000
0000
ENDCHAR

STARTCHAR jisx0208_2350
ENCODING 9040
SWIDTH 960 0
DWIDTH 12 0
BBX 12 12 0 -2
BITMAP
0000
0000
3F80
18C0
18C0
18C0
1F80
1800
1800
3C00
0000
0000
ENDCHAR

STARTCHAR jisx0208_2351
ENCODING 9041
SWIDTH 960 0
DWIDTH 12 0
BBX 12 12 0 -2
BITMAP
0000
0000
0F00
1980
30C0
30C0
30C0
2EC0
1980
0EE0
0000
0000
ENDCHAR

STARTCHAR jisx0208_2352
ENCODING 9042
SWIDTH 960 0
DWIDTH 12 0
BBX 12 12 0 -2
BITMAP
0000
0000
3F80
18C0
18C0
18C0
1F80
1980
1960
3CC0
0000
0000
ENDCHAR

STARTCHAR jisx0208_2353
ENCODING 9043
SWIDTH 960 0
DWIDTH 12 0
BBX 12 12 0 -2
BITMAP
0000
0000
0EC0
19C0
18C0
0E00
0380
18C0
1CC0
1780
0000
0000
ENDCHAR

STARTCHAR jisx0208_2354
ENCODING 9044
SWIDTH 960 0
DWIDTH 12 0
BBX 12 12 0 -2
BITMAP
0000
0000
3FC0
36C0
0600
0600
0600
0600
0600
0F00
0000
0000
ENDCHAR

STARTCHAR jisx0208_2355
ENCODING 9045
SWIDTH 960 0
DWIDTH 12 0
BBX 12 12 0 -2
BITMAP
0000
0000
3DE0
18C0
18C0
18C0
18C0
18C0
18C0
0F80
0000
0000
ENDCHAR

STARTCHAR jisx0208_2356
ENCODING 9046
SWIDTH 960 0
DWIDTH 12 0
BBX 12 12 0 -2
BITMAP
0000
0000
79E0
30C0
1980
1980
0B00
0B00
0600
0600
0000
0000
ENDCHAR

STARTCHAR jisx0208_2357
ENCODING 9047
SWIDTH 960 0
DWIDTH 12 0
BBX 12 12 0 -2
BITMAP
0000
0000
76F0
6660
6660
2AC0
2AC0
2AC0
1980
1980
0000
0000
ENDCHAR

STARTCHAR jisx0208_2358
ENCODING 9048
SWIDTH 960 0
DWIDTH 12 0
BBX 12 12 0 -2
BITMAP
0000
0000
3BC0
1980
0B00
0600
0600
0B00
1980
3BC0
0000
0000
ENDCHAR

STARTCHAR jisx0208_2359
ENCODING 9049
SWIDTH 960 0
DWIDTH 12 0
BBX 12 12 0 -2
BITMAP
0000
0000
3BC0
1980
0B00
0B00
0600
0600
0600
0F00
0000
0000
ENDCHAR

STARTCHAR jisx0208_235A
ENCODING 9050
SWIDTH 960 0
DWIDTH 12 0
BBX 12 12 0 -2
BITMAP
0000
0000
1FC0
18C0
0180
0300
0600
0C00
18C0
1FC0
0000
0000
ENDCHAR

STARTCHAR jisx0208_2361
ENCODING 9057
SWIDTH 960 0
DWIDTH 12 0
BBX 12 12 0 -2
BITMAP
0000
0000
0000
0000
0F00
0180
0F80
1980
1980
0FC0
0000
0000
ENDCHAR

STARTCHAR jisx0208_2362
ENCODING 9058
SWIDTH 960 0
DWIDTH 12 0
BBX 12 12 0 -2
BITMAP
0000
0000
1C00
0C00
0F80
0CC0
0CC0
0CC0
0CC0
1F80
0000
0000
ENDCHAR

STARTCHAR jisx0208_2363
ENCODING 9059
SWIDTH 960 0
DWIDTH 12 0
BBX 12 12 0 -2
BITMAP
0000
0000
0000
0000
0F00
1980
1B80
1800
1980
0F00
0000
0000
ENDCHAR

STARTCHAR jisx0208_2364
ENCODING 9060
SWIDTH 960 0
DWIDTH 12 0
BBX 12 12 0 -2
BITMAP
0000
0000
0380
0180
0F80
1980
1980
1980
1980
0FC0
0000
0000
ENDCHAR

STARTCHAR jisx0208_2365
ENCODING 9061
SWIDTH 960 0
DWIDTH 12 0
BBX 12 12 0 -2
BITMAP
0000
0000
0000
0000
0F00
1980
1F80
1800
1980
0F00
0000
0000
ENDCHAR

STARTCHAR jisx0208_2366
ENCODING 9062
SWIDTH 960 0
DWIDTH 12 0
BBX 12 12 0 -2
BITMAP
0000
0000
0780
0600
1F80
0600
0600
0600
0600
0F00
0000
0000
ENDCHAR

STARTCHAR jisx0208_2367
ENCODING 9063
SWIDTH 960 0
DWIDTH 12 0
BBX 12 12 0 -2
BITMAP
0000
0000
0000
0000
07C0
0D80
0700
0C00
0F80
18C0
0F80
0000
ENDCHAR

STARTCHAR jisx0208_2368
ENCODING 9064
SWIDTH 960 0
DWIDTH 12 0
BBX 12 12 0 -2
BITMAP
0000
0000
3800
1800
1F00
1980
1980
1980
1980
3BC0
0000
0000
ENDCHAR

STARTCHAR jisx0208_2369
ENCODING 9065
SWIDTH 960 0
DWIDTH 12 0
BBX 12 12 0 -2
BITMAP
0000
0000
0600
0000
0E00
0600
0600
0600
0600
0F00
0000
0000
ENDCHAR

STARTCHAR jisx0208_236A
ENCODING 9066
SWIDTH 960 0
DWIDTH 12 0
BBX 12 12 0 -2
BITMAP
0000
0000
0300
0000
0700
0300
0300
0300
0300
1B00
0E00
0000
ENDCHAR

STARTCHAR jisx0208_236B
ENCODING 9067
SWIDTH 960 0
DWIDTH 12 0
BBX 12 12 0 -2
BITMAP
0000
0000
3800
1800
1780
1B00
1600
1B00
1980
3BC0
0000
0000
ENDCHAR

STARTCHAR jisx0208_236C
ENCODING 9068
SWIDTH 960 0
DWIDTH 12 0
BBX 12 12 0 -2
BITMAP
0000
0000
0E00
0600
0600
0600
0600
0600
0600
0F00
0000
0000
ENDCHAR

STARTCHAR jisx0208_236D
ENCODING 9069
SWIDTH 960 0
DWIDTH 12 0
BBX 12 12 0 -2
BITMAP
0000
0000
0000
0000
7B80
36C0
36C0
36C0
36C0
75E0
0000
0000
ENDCHAR

STARTCHAR jisx0208_236E
ENCODING 9070
SWIDTH 960 0
DWIDTH 12 0
BBX 12 12 0 -2
BITMAP
0000
0000
0000
0000
3F00
1980
1980
1980
1980
3BC0
0000
0000
ENDCHAR

STARTCHAR jisx0208_236F
ENCODING 9071
SWIDTH 960 0
DWIDTH 12 0
BBX 12 12 0 -2
BITMAP
0000
0000
0000
0000
0F00
1980
1980
1980
1980
0F00
0000
0000
ENDCHAR

STARTCHAR jisx0208_2370
ENCODING 9072
SWIDTH 960 0
DWIDTH 12 0
BBX 12 12 0 -2
BITMAP
0000
0000
0000
0000
1F80
0CC0
0CC0
0CC0
0F80
0C00
1E00
0000
ENDCHAR

STARTCHAR jisx0208_2371
ENCODING 9073
SWIDTH 960 0
DWIDTH 12 0
BBX 12 12 0 -2
BITMAP
0000
0000
0000
0000
0F80
1980
1980
1980
0F80
0180
03C0
0000
ENDCHAR

STARTCHAR jisx0208_2372
ENCODING 9074
SWIDTH 960 0
DWIDTH 12 0
BBX 12 12 0 -2
BITMAP
0000
0000
0000
0000
0DC0
06C0
0600
0600
0600
0F00
0000
0000
ENDCHAR

STARTCHAR jisx0208_2373
ENCODING 9075
SWIDTH 960 0
DWIDTH 12 0
BBX 12 12 0 -2
BITMAP
0000
0000
0000
0000
0F80
1980
0E00
0300
1980
1F00
0000
0000
ENDCHAR

STARTCHAR jisx0208_2374
ENCODING 9076
SWIDTH 960 0
DWIDTH 12 0
BBX 12 12 0 -2
BITMAP
0000
0000
0600
0600
1F80
0600
0600
0600
0580
0700
0000
0000
ENDCHAR

STARTCHAR jisx0208_2375
ENCODING 9077
SWIDTH 960 0
DWIDTH 12 0
BBX 12 12 0 -2
BITMAP
0000
0000
0000
0000
3B80
1980
1980
1980
1980
0FC0
0000
0000
ENDCHAR

STARTCHAR jisx0208_2376
ENCODING 9078
SWIDTH 960 0
DWIDTH 12 0
BBX 12 12 0 -2
BITMAP
0000
0000
0000
0000
3BC0
1980
0B00
0B00
0600
0600
0000
0000
ENDCHAR

STARTCHAR jisx0208_2377
ENCODING 9079
SWIDTH 960 0
DWIDTH 12 0
BBX 12 12 0 -2
BITMAP
0000
0000
0000
0000
75E0
36C0
2AC0
1B80
1980
1980
0000
0000
ENDCHAR

STARTCHAR jisx0208_2378
ENCODING 9080
SWIDTH 960 0
DWIDTH 12 0
BBX 12 12 0 -2
BITMAP
0000
0000
0000
0000
1DC0
0D80
0700
0700
0D80
1DC0
0000
0000
ENDCHAR

STARTCHAR jisx0208_2379
ENCODING 9081
SWIDTH 960 0
DWIDTH 12 0
BBX 12 12 0 -2
BITMAP
0000
0000
0000
0000
1DE0
0CC0
0580
0580
0300
1B00
0E00
0000
ENDCHAR

STARTCHAR jisx0208_237A
ENCODING 9082
SWIDTH 960 0
DWIDTH 12 0
BBX 12 12 0 -2
BITMAP
0000
0000
0000
0000
1F80
1B00
0600
0C00
1980
1F80
0000
0000
ENDCHAR

STARTCHAR jisx0208_2421
ENCODING 9249
SWIDTH 960 0
DWIDTH 12 0
BBX 12 12 0 -2
BITMAP
0000
0000
0000
0C00
3F80
0C00
1F80
2AC0
2EC0
3D80
0300
0000
ENDCHAR

STARTCHAR jisx0208_2422
ENCODING 9250
SWIDTH 960 0
DWIDTH 12 0
BBX 12 12 0 -2
BITMAP
0000
0600
3FC0
0C00
0FC0
1D60
2B30
6B30
6E30
7C60
03C0
0000
ENDCHAR

STARTCHAR jisx0208_2423
ENCODING 9251
SWIDTH 960 0
DWIDTH 12 0
BBX 12 12 0 -2
BITMAP
0000
0000
0000
0000
3980
18C0
1860
1860
16E0
1C00
0C00
0000
ENDCHAR

STARTCHAR jisx0208_2424
ENCODING 9252
SWIDTH 960 0
DWIDTH 12 0
BBX 12 12 0 -2
BITMAP
0000
0000
6000
3180
60C0
6060
6060
6CE0
5860
3800
1800
0000
ENDCHAR

STARTCHAR jisx0208_2425
ENCODING 9253
SWIDTH 960 0
DWIDTH 12 0
BBX 12 12 0 -2
BITMAP
0000
0000
0C00
0780
0000
1780
0CC0
00C0
00C0
0180
0700
0000
ENDCHAR

STARTCHAR jisx0208_2426
ENCODING 9254
SWIDTH 960 0
DWIDTH 12 0
BBX 12 12 0 -2
BITMAP
0000
0C00
07C0
0000
2FC0
1860
0060
0060
00C0
0180
0F00
0000
ENDCHAR

STARTCHAR jisx0208_2427
ENCODING 9255
SWIDTH 960 0
DWIDTH 12 0
BBX 12 12 0 -2
BITMAP
0000
0000
0C00
0700
0000
1F80
0300
0600
0B00
1B00
33C0
0000
ENDCHAR

STARTCHAR jisx0208_2428
ENCODING 9256
SWIDTH 960 0
DWIDTH 12 0
BBX 12 12 0 -2
BITMAP
0000
0C00
0780
0000
2F80
1B00
0600
0B00
1B00
3300
61E0
0000
ENDCHAR

STARTCHAR jisx0208_2429
ENCODING 9257
SWIDTH 960 0
DWIDTH 12 0
BBX 12 12 0 -2
BITMAP
0000
0000
0000
0C00
0D80
3EC0
0C00
0F80
1CC0
2CC0
1B80
0000
ENDCHAR

STARTCHAR jisx0208_242A
ENCODING 9258
SWIDTH 960 0
DWIDTH 12 0
BBX 12 12 0 -2
BITMAP
0000
3800
19C0
7EE0
1800
17C0
1C60
7860
5860
3660
1BC0
0000
ENDCHAR

STARTCHAR jisx0208_242B
ENCODING 9259
SWIDTH 960 0
DWIDTH 12 0
BBX 12 12 0 -2
BITMAP
0000
1C00
0C00
5EC0
7B60
1B30
1AF0
3330
3300
5600
6E00
0000
ENDCHAR

STARTCHAR jisx0208_242C
ENCODING 9260
SWIDTH 960 0
DWIDTH 12 0
BBX 12 12 0 -2
BITMAP
0000
1C70
0C00
5EC0
7B60
1B30
1AF0
3330
3300
5600
6E00
0000
ENDCHAR

STARTCHAR jisx0208_242D
ENCODING 9261
SWIDTH 960 0
DWIDTH 12 0
BBX 12 12 0 -2
BITMAP
0000
0700
33C0
1F00
33E0
1F80
0180
1FC0
30C0
3000
1F80
0000
ENDCHAR

STARTCHAR jisx0208_242E
ENCODING 9262
SWIDTH 960 0
DWIDTH 12 0
BBX 12 12 0 -2
BITMAP
0000
0770
33C0
1F00
33E0
1F80
0180
1FC0
30C0
3000
1F80
0000
ENDCHAR

STARTCHAR jisx0208_242F
ENCODING 9263
SWIDTH 960 0
DWIDTH 12 0
BBX 12 12 0 -2
BITMAP
0000
0600
0300
0600
0C00
1800
1800
0C00
0600
0300
0180
0000
ENDCHAR

STARTCHAR jisx0208_2430
ENCODING 9264
SWIDTH 960 0
DWIDTH 12 0
BBX 12 12 0 -2
BITMAP
0000
0600
0300
0600
0CE0
1800
1800
0C00
0600
0300
0180
0000
ENDCHAR

STARTCHAR jisx0208_2431
ENCODING 9265
SWIDTH 960 0
DWIDTH 12 0
BBX 12 12 0 -2
BITMAP
0000
61C0
30C0
30C0
67F0
60C0
60C0
58C0
70C0
3180
0700
0000
ENDCHAR

STARTCHAR jisx0208_2432
ENCODING 9266
SWIDTH 960 0
DWIDTH 12 0
BBX 12 12 0 -2
BITMAP
0000
61F0
30C0
30C0
67F0
60C0
60C0
58C0
70C0
3180
0700
0000
ENDCHAR

STARTCHAR jisx0208_2433
ENCODING 9267
SWIDTH 960 0
DWIDTH 12 0
BBX 12 12 0 -2
BITMAP
0000
0000
1FC0
0600
0C00
0000
0000
3000
3000
1FE0
0000
0000
ENDCHAR

STARTCHAR jisx0208_2434
ENCODING 9268
SWIDTH 960 0
DWIDTH 12 0
BBX 12 12 0 -2
BITMAP
0000
0070
1FC0
0600
0C00
0000
0000
3000
3000
1FE0
0000
0000
ENDCHAR

STARTCHAR jisx0208_2435
ENCODING 9269
SWIDTH 960 0
DWIDTH 12 0
BBX 12 12 0 -2
BITMAP
0000
0700
0300
62E0
3F80
0180
0180
1FC0
30C0
3000
1F80
0000
ENDCHAR

STARTCHAR jisx0208_2436
ENCODING 9270
SWIDTH 960 0
DWIDTH 12 0
BBX 12 12 0 -2
BITMAP
0000
0770
0300
62E0
3F80
0180
0180
1FC0
30C0
3000
1F80
0000
ENDCHAR

STARTCHAR jisx0208_2437
ENCODING 9271
SWIDTH 960 0
DWIDTH 12 0
BBX 12 12 0 -2
BITMAP
0000
3000
1800
1800
1800
1800
1800
1860
1860
18C0
0F80
0000
ENDCHAR

STARTCHAR jisx0208_2438
ENCODING 9272
SWIDTH 960 0
DWIDTH 12 0
BBX 12 12 0 -2
BITMAP
0000
3000
19C0
1800
1800
1800
1800
1860
1860
18C0
0F80
0000
ENDCHAR

STARTCHAR jisx0208_2439
ENCODING 9273
SWIDTH 960 0
DWIDTH 12 0
BBX 12 12 0 -2
BITMAP
0000
0380
0180
5FF0
3180
0780
0D80
0780
0180
0300
0E00
0000
ENDCHAR

STARTCHAR jisx0208_243A
ENCODING 9274
SWIDTH 960 0
DWIDTH 12 0
BBX 12 12 0 -2
BITMAP
0000
0370
0180
5FF0
3180
0780
0D80
0780
0180
0300
0E00
0000
ENDCHAR

STARTCHAR jisx0208_243B
ENCODING 9275
SWIDTH 960 0
DWIDTH 12 0
BBX 12 12 0 -2
BITMAP
0000
01C0
38C0
18C0
1FF0
78C0
18C0
1BC0
1980
1800
0FE0
0000
ENDCHAR

STARTCHAR jisx0208_243C
ENCODING 9276
SWIDTH 960 0
DWIDTH 12 0
BBX 12 12 0 -2
BITMAP
0000
01F0
38C0
18C0
1FF0
78C0
18C0
1BC0
1980
1800
0FE0
0000
ENDCHAR

STARTCHAR jisx0208_243D
ENCODING 9277
SWIDTH 960 0
DWIDTH 12 0
BBX 12 12 0 -2
BITMAP
0000
1780
0B80
0600
1C00
7FF0
0600
0C00
0C00
0C00
0780
0000
ENDCHAR

STARTCHAR jisx0208_243E
ENCODING 9278
SWIDTH 960 0
DWIDTH 12 0
BBX 12 12 0 -2
BITMAP
0000
1780
0B80
0670
1C00
7FF0
0600
0C00
0C00
0C00
0780
0000
ENDCHAR

STARTCHAR jisx0208_243F
ENCODING 9279
SWIDTH 960 0
DWIDTH 12 0
BBX 12 12 0 -2
BITMAP
0000
3800
1800
1E00
7800
1BE0
3180
3000
3600
6600
63F0
0000
ENDCHAR

STARTCHAR jisx0208_2440
ENCODING 9280
SWIDTH 960 0
DWIDTH 12 0
BBX 12 12 0 -2
BITMAP
0000
3800
1870
1E00
7800
1BE0
3180
3000
3600
6600
63F0
0000
ENDCHAR

STARTCHAR jisx0208_2441
ENCODING 9281
SWIDTH 960 0
DWIDTH 12 0
BBX 12 12 0 -2
BITMAP
0000
1C00
0DC0
7F00
1800
17C0
3C60
3060
0060
00C0
0F80
0000
ENDCHAR

STARTCHAR jisx0208_2442
ENCODING 9282
SWIDTH 960 0
DWIDTH 12 0
BBX 12 12 0 -2
BITMAP
0000
1C70
0DC0
7F00
1800
17C0
3C60
3060
0060
00C0
0F80
0000
ENDCHAR

STARTCHAR jisx0208_2443
ENCODING 9283
SWIDTH 960 0
DWIDTH 12 0
BBX 12 12 0 -2
BITMAP
0000
0000
0000
0000
37C0
1C60
0060
0060
00C0
0780
0000
0000
ENDCHAR

STARTCHAR jisx0208_2444
ENCODING 9284
SWIDTH 960 0
DWIDTH 12 0
BBX 12 12 0 -2
BITMAP
0000
0000
0000
67E0
3C30
0030
0030
0030
0060
07C0
0000
0000
ENDCHAR

STARTCHAR jisx0208_2445
ENCODING 9285
SWIDTH 960 0
DWIDTH 12 0
BBX 12 12 0 -2
BITMAP
0000
0070
0000
67E0
3C30
0030
0030
0030
0060
07C0
0000
0000
ENDCHAR

STARTCHAR jisx0208_2446
ENCODING 9286
SWIDTH 960 0
DWIDTH 12 0
BBX 12 12 0 -2
BITMAP
0000
0000
67F0
3B00
0600
0C00
0C00
0C00
0C00
0600
03C0
0000
ENDCHAR

STARTCHAR jisx0208_2447
ENCODING 9287
SWIDTH 960 0
DWIDTH 12 0
BBX 12 12 0 -2
BITMAP
0000
0000
67F0
3B00
0600
0CE0
0C00
0C00
0C00
0600
03C0
0000
ENDCHAR

STARTCHAR jisx0208_2448
ENCODING 9288
SWIDTH 960 0
DWIDTH 12 0
BBX 12 12 0 -2
BITMAP
0000
1C00
0C00
0C00
0DC0
0700
1C00
3000
3000
3000
1FC0
0000
ENDCHAR

STARTCHAR jisx0208_2449
ENCODING 9289
SWIDTH 960 0
DWIDTH 12 0
BBX 12 12 0 -2
BITMAP
0000
1C00
0CE0
0C00
0DC0
0700
1C00
3000
3000
3000
1FC0
0000
ENDCHAR

STARTCHAR jisx0208_244A
ENCODING 9290
SWIDTH 960 0
DWIDTH 12 0
BBX 12 12 0 -2
BITMAP
0000
3800
1800
1EE0
7830
30F0
30C0
60C0
67C0
0CE0
07B0
0000
ENDCHAR

STARTCHAR jisx0208_244B
ENCODING 9291
SWIDTH 960 0
DWIDTH 12 0
BBX 12 12 0 -2
BITMAP
0000
6000
37E0
3300
6600
6000
6000
5600
7600
73E0
3000
0000
ENDCHAR

STARTCHAR jisx0208_244C
ENCODING 9292
SWIDTH 960 0
DWIDTH 12 0
BBX 12 12 0 -2
BITMAP
0000
0700
7300
2FC0
3B60
3330
5630
5630
6DB0
6B60
39B0
0000
ENDCHAR

STARTCHAR jisx0208_244D
ENCODING 9293
SWIDTH 960 0
DWIDTH 12 0
BBX 12 12 0 -2
BITMAP
0000
3800
1800
7BC0
1660
1C60
3860
5860
79E0
1B70
19C0
0000
ENDCHAR

STARTCHAR jisx0208_244E
ENCODING 9294
SWIDTH 960 0
DWIDTH 12 0
BBX 12 12 0 -2
BITMAP
0000
0000
0F80
16C0
3660
6630
6630
6C30
6C60
38C0
0380
0000
ENDCHAR

STARTCHAR jisx0208_244F
ENCODING 9295
SWIDTH 960 0
DWIDTH 12 0
BBX 12 12 0 -2
BITMAP
0000
61C0
30C0
2FF0
60C0
60C0
60C0
58C0
77C0
6CE0
37B0
0000
ENDCHAR

STARTCHAR jisx0208_2450
ENCODING 9296
SWIDTH 960 0
DWIDTH 12 0
BBX 12 12 0 -2
BITMAP
0000
61F0
30C0
2FF0
60C0
60C0
60C0
58C0
77C0
6CE0
37B0
0000
ENDCHAR

STARTCHAR jisx0208_2451
ENCODING 9297
SWIDTH 960 0
DWIDTH 12 0
BBX 12 12 0 -2
BITMAP
0000
61F0
30F0
2FF0
60C0
60C0
60C0
58C0
77C0
6CE0
37B0
0000
ENDCHAR

STARTCHAR jisx0208_2452
ENCODING 9298
SWIDTH 960 0
DWIDTH 12 0
BBX 12 12 0 -2
BITMAP
0000
0000
6D80
3980
31C0
6160
61B0
6180
6180
6300
3E00
0000
ENDCHAR

STARTCHAR jisx0208_2453
ENCODING 9299
SWIDTH 960 0
DWIDTH 12 0
BBX 12 12 0 -2
BITMAP
0000
0000
6D70
3980
31C0
6160
61B0
6180
6180
6300
3E00
0000
ENDCHAR

STARTCHAR jisx0208_2454
ENCODING 9300
SWIDTH 960 0
DWIDTH 12 0
BBX 12 12 0 -2
BITMAP
0000
0070
6D70
3980
31C0
6160
61B0
6180
6180
6300
3E00
0000
ENDCHAR

STARTCHAR jisx0208_2455
ENCODING 9301
SWIDTH 960 0
DWIDTH 12 0
BBX 12 12 0 -2
BITMAP
0000
0C00
0700
0600
0C00
0C00
06E0
5B30
7370
5B30
0E00
0000
ENDCHAR

STARTCHAR jisx0208_2456
ENCODING 9302
SWIDTH 960 0
DWIDTH 12 0
BBX 12 12 0 -2
BITMAP
0000
0C00
0770
0600
0C00
0C00
06E0
5B30
7370
5B30
0E00
0000
ENDCHAR

STARTCHAR jisx0208_2457
ENCODING 9303
SWIDTH 960 0
DWIDTH 12 0
BBX 12 12 0 -2
BITMAP
0000
0C00
0770
0670
0C00
0C00
06E0
5B30
7370
5B30
0E00
0000
ENDCHAR

STARTCHAR jisx0208_2458
ENCODING 9304
SWIDTH 960 0
DWIDTH 12 0
BBX 12 12 0 -2
BITMAP
0000
0000
0000
0E00
1B00
7180
60C0
0060
0030
0000
0000
0000
ENDCHAR

STARTCHAR jisx0208_2459
ENCODING 9305
SWIDTH 960 0
DWIDTH 12 0
BBX 12 12 0 -2
BITMAP
0000
0000
00E0
0E00
1B00
7180
60C0
0060
0030
0000
0000
0000
ENDCHAR

STARTCHAR jisx0208_245A
ENCODING 9306
SWIDTH 960 0
DWIDTH 12 0
BBX 12 12 0 -2
BITMAP
0000
0000
00E0
0EE0
1B00
7180
60C0
0060
0030
0000
0000
0000
ENDCHAR

STARTCHAR jisx0208_245B
ENCODING 9307
SWIDTH 960 0
DWIDTH 12 0
BBX 12 12 0 -2
BITMAP
0000
6000
2FF0
30C0
60C0
6FF0
60C0
58C0
77C0
6CE0
37B0
0000
ENDCHAR

STARTCHAR jisx0208_245C
ENCODING 9308
SWIDTH 960 0
DWIDTH 12 0
BBX 12 12 0 -2
BITMAP
0000
6070
2FE0
30C0
60C0
6FF0
60C0
58C0
77C0
6CE0
37B0
0000
ENDCHAR

STARTCHAR jisx0208_245D
ENCODING 9309
SWIDTH 960 0
DWIDTH 12 0
BBX 12 12 0 -2
BITMAP
0000
6070
2FF0
30C0
60C0
6FF0
60C0
58C0
77C0
6CE0
37B0
0000
ENDCHAR

STARTCHAR jisx0208_245E
ENCODING 9310
SWIDTH 960 0
DWIDTH 12 0
BBX 12 12 0 -2
BITMAP
0000
0300
3FE0
0300
0300
3FE0
0300
0300
1F80
32C0
1E60
0000
ENDCHAR

STARTCHAR jisx0208_245F
ENCODING 9311
SWIDTH 960 0
DWIDTH 12 0
BBX 12 12 0 -2
BITMAP
0000
1700
0B00
0300
0660
1F60
36E0
6C60
6CB0
3980
0300
0000
ENDCHAR

STARTCHAR jisx0208_2460
ENCODING 9312
SWIDTH 960 0
DWIDTH 12 0
BBX 12 12 0 -2
BITMAP
0000
1C00
0C00
7EC0
1860
38F0
5800
58C0
30C0
30E0
1FC0
0000
ENDCHAR

STARTCHAR jisx0208_2461
ENCODING 9313
SWIDTH 960 0
DWIDTH 12 0
BBX 12 12 0 -2
BITMAP
0000
0700
0300
6FC0
3B60
3330
5630
5630
6C30
6E60
39C0
0000
ENDCHAR

STARTCHAR jisx0208_2462
ENCODING 9314
SWIDTH 960 0
DWIDTH 12 0
BBX 12 12 0 -2
BITMAP
0000
1C00
6C00
3F00
1800
58C0
3F60
1860
1860
1860
0FC0
0000
ENDCHAR

STARTCHAR jisx0208_2463
ENCODING 9315
SWIDTH 960 0
DWIDTH 12 0
BBX 12 12 0 -2
BITMAP
0000
0000
0000
0B80
0BC0
2E60
3C60
0DC0
0600
0600
0600
0000
ENDCHAR

STARTCHAR jisx0208_2464
ENCODING 9316
SWIDTH 960 0
DWIDTH 12 0
BBX 12 12 0 -2
BITMAP
0000
0700
1980
17E0
5C30
6C30
0B30
0DE0
0600
0600
0600
0000
ENDCHAR

STARTCHAR jisx0208_2465
ENCODING 9317
SWIDTH 960 0
DWIDTH 12 0
BBX 12 12 0 -2
BITMAP
0000
0000
0000
0600
3780
1AC0
3AC0
32C0
2AC0
3780
0E00
0000
ENDCHAR

STARTCHAR jisx0208_2466
ENCODING 9318
SWIDTH 960 0
DWIDTH 12 0
BBX 12 12 0 -2
BITMAP
0000
0E00
6780
2AC0
5B60
7360
6360
5B60
6AC0
6780
0E00
0000
ENDCHAR

STARTCHAR jisx0208_2467
ENCODING 9319
SWIDTH 960 0
DWIDTH 12 0
BBX 12 12 0 -2
BITMAP
0000
0000
0000
0E00
0600
07C0
0600
0600
1E00
3780
1EC0
0000
ENDCHAR

STARTCHAR jisx0208_2468
ENCODING 9320
SWIDTH 960 0
DWIDTH 12 0
BBX 12 12 0 -2
BITMAP
0000
0700
0300
0300
03E0
0300
0300
0300
1F00
33C0
1E60
0000
ENDCHAR

STARTCHAR jisx0208_2469
ENCODING 9321
SWIDTH 960 0
DWIDTH 12 0
BBX 12 12 0 -2
BITMAP
0000
0C00
0780
1C00
1800
2FC0
3860
3060
0060
00C0
0F80
0000
ENDCHAR

STARTCHAR jisx0208_246A
ENCODING 9322
SWIDTH 960 0
DWIDTH 12 0
BBX 12 12 0 -2
BITMAP
0000
3800
1780
2CC0
2CC0
38C0
38C0
18C0
00C0
0180
0F00
0000
ENDCHAR

STARTCHAR jisx0208_246B
ENCODING 9323
SWIDTH 960 0
DWIDTH 12 0
BBX 12 12 0 -2
BITMAP
0000
17C0
0D80
0300
0600
0FC0
1860
3060
0760
0DC0
0780
0000
ENDCHAR

STARTCHAR jisx0208_246C
ENCODING 9324
SWIDTH 960 0
DWIDTH 12 0
BBX 12 12 0 -2
BITMAP
0000
3800
1800
7BC0
1660
1C60
3860
5860
7870
1870
1800
0000
ENDCHAR

STARTCHAR jisx0208_246D
ENCODING 9325
SWIDTH 960 0
DWIDTH 12 0
BBX 12 12 0 -2
BITMAP
0000
17C0
0D80
0300
0600
0FC0
1860
3060
0060
00C0
0780
0000
ENDCHAR

STARTCHAR jisx0208_246E
ENCODING 9326
SWIDTH 960 0
DWIDTH 12 0
BBX 12 12 0 -2
BITMAP
0000
0000
0000
0C00
0C00
3BC0
0E60
1C60
2C60
3CC0
0D80
0000
ENDCHAR

STARTCHAR jisx0208_246F
ENCODING 9327
SWIDTH 960 0
DWIDTH 12 0
BBX 12 12 0 -2
BITMAP
0000
3800
1800
7BE0
1630
1C30
3830
5830
7860
19C0
1800
0000
ENDCHAR

STARTCHAR jisx0208_2470
ENCODING 9328
SWIDTH 960 0
DWIDTH 12 0
BBX 12 12 0 -2
BITMAP
0000
1780
0B00
0300
0FC0
1660
3630
6C30
6DB0
7B60
01C0
0000
ENDCHAR

STARTCHAR jisx0208_2471
ENCODING 9329
SWIDTH 960 0
DWIDTH 12 0
BBX 12 12 0 -2
BITMAP
0000
0F80
0300
0F80
18C0
06C0
0780
0C00
19E0
2B30
66F0
0000
ENDCHAR

STARTCHAR jisx0208_2472
ENCODING 9330
SWIDTH 960 0
DWIDTH 12 0
BBX 12 12 0 -2
BITMAP
0000
0C00
7FC0
1800
1E00
32E0
6780
0B00
1B00
1800
0FC0
0000
ENDCHAR

STARTCHAR jisx0208_2473
ENCODING 9331
SWIDTH 960 0
DWIDTH 12 0
BBX 12 12 0 -2
BITMAP
0000
0E00
0600
0C00
0C00
1800
1E00
3330
3330
6360
61C0
0000
ENDCHAR

STARTCHAR jisx0208_2521
ENCODING 9505
SWIDTH 960 0
DWIDTH 12 0
BBX 12 12 0 -2
BITMAP
0000
0000
0000
00C0
3FE0
00C0
0D80
0700
0600
0C00
1800
0000
ENDCHAR

STARTCHAR jisx0208_2522
ENCODING 9506
SWIDTH 960 0
DWIDTH 12 0
BBX 12 12 0 -2
BITMAP
0000
6060
3FF0
0060
0EC0
0780
0600
0600
0C00
1800
3000
0000
ENDCHAR

STARTCHAR jisx0208_2523
ENCODING 9507
SWIDTH 960 0
DWIDTH 12 0
BBX 12 12 0 -2
BITMAP
0000
0000
0000
03C0
0180
0300
0F00
3B00
0300
0300
0300
0000
ENDCHAR

STARTCHAR jisx0208_2524
ENCODING 9508
SWIDTH 960 0
DWIDTH 12 0
BBX 12 12 0 -2
BITMAP
0000
01C0
00C0
0180
0300
0700
1B00
7300
0300
0300
0300
0000
ENDCHAR

STARTCHAR jisx0208_2525
ENCODING 9509
SWIDTH 960 0
DWIDTH 12 0
BBX 12 12 0 -2
BITMAP
0000
0000
0000
0700
1AC0
1FE0
18C0
18C0
00C0
0180
0700
0000
ENDCHAR

STARTCHAR jisx0208_2526
ENCODING 9510
SWIDTH 960 0
DWIDTH 12 0
BBX 12 12 0 -2
BITMAP
0000
0E00
36C0
3FE0
30C0
30C0
30C0
00C0
0180
0300
0E00
0000
ENDCHAR

STARTCHAR jisx0208_2527
ENCODING 9511
SWIDTH 960 0
DWIDTH 12 0
BBX 12 12 0 -2
BITMAP
0000
0000
0000
0000
1FC0
0600
0600
0600
36C0
1FE0
0000
0000
ENDCHAR

STARTCHAR jisx0208_2528
ENCODING 9512
SWIDTH 960 0
DWIDTH 12 0
BBX 12 12 0 -2
BITMAP
0000
0000
0000
3FE0
0600
0600
0600
0600
6660
3FF0
0000
0000
ENDCHAR

STARTCHAR jisx0208_2529
ENCODING 9513
SWIDTH 960 0
DWIDTH 12 0
BBX 12 12 0 -2
BITMAP
0000
0000
0000
0700
0300
3FC0
0700
0B00
3B00
0F00
0300
0000
ENDCHAR

STARTCHAR jisx0208_252A
ENCODING 9514
SWIDTH 960 0
DWIDTH 12 0
BBX 12 12 0 -2
BITMAP
0000
0380
6180
3FE0
0380
0580
0D80
1980
7180
0780
0300
0000
ENDCHAR

STARTCHAR jisx0208_252B
ENCODING 9515
SWIDTH 960 0
DWIDTH 12 0
BBX 12 12 0 -2
BITMAP
0000
1C00
0CC0
7FE0
0CC0
0CC0
0CC0
18C0
18C0
37C0
6180
0000
ENDCHAR

STARTCHAR jisx0208_252C
ENCODING 9516
SWIDTH 960 0
DWIDTH 12 0
BBX 12 12 0 -2
BITMAP
0000
1C70
0CC0
7FE0
0CC0
0CC0
0CC0
18C0
18C0
37C0
6180
0000
ENDCHAR

STARTCHAR jisx0208_252D
ENCODING 9517
SWIDTH 960 0
DWIDTH 12 0
BBX 12 12 0 -2
BITMAP
0000
0E00
0600
7FC0
0600
0600
7FE0
0300
0300
0300
0300
0000
ENDCHAR

STARTCHAR jisx0208_252E
ENCODING 9518
SWIDTH 960 0
DWIDTH 12 0
BBX 12 12 0 -2
BITMAP
0000
0E70
0600
7FC0
0600
0600
7FE0
0300
0300
0300
0300
0000
ENDCHAR

STARTCHAR jisx0208_252F
ENCODING 9519
SWIDTH 960 0
DWIDTH 12 0
BBX 12 12 0 -2
BITMAP
0000
0E00
0660
0FF0
1860
30C0
00C0
0180
0300
0600
1C00
0000
ENDCHAR

STARTCHAR jisx0208_2530
ENCODING 9520
SWIDTH 960 0
DWIDTH 12 0
BBX 12 12 0 -2
BITMAP
0000
0E70
0600
0FE0
1860
30C0
00C0
0180
0300
0600
1C00
0000
ENDCHAR

STARTCHAR jisx0208_2531
ENCODING 9521
SWIDTH 960 0
DWIDTH 12 0
BBX 12 12 0 -2
BITMAP
0000
1C00
0C60
1FF0
3180
6180
0180
0180
0300
0600
1C00
0000
ENDCHAR

STARTCHAR jisx0208_2532
ENCODING 9522
SWIDTH 960 0
DWIDTH 12 0
BBX 12 12 0 -2
BITMAP
0000
1C70
0C60
1FF0
3180
6180
0180
0180
0300
0600
1C00
0000
ENDCHAR

STARTCHAR jisx0208_2533
ENCODING 9523
SWIDTH 960 0
DWIDTH 12 0
BBX 12 12 0 -2
BITMAP
0000
0000
00C0
3FE0
00C0
00C0
00C0
00C0
00C0
3FE0
0000
0000
ENDCHAR

STARTCHAR jisx0208_2534
ENCODING 9524
SWIDTH 960 0
DWIDTH 12 0
BBX 12 12 0 -2
BITMAP
0000
0070
00C0
3FE0
00C0
00C0
00C0
00C0
00C0
3FE0
0000
0000
ENDCHAR

STARTCHAR jisx0208_2535
ENCODING 9525
SWIDTH 960 0
DWIDTH 12 0
BBX 12 12 0 -2
BITMAP
0000
3B80
1980
1960
7FF0
1980
1980
1980
0180
0300
0E00
0000
ENDCHAR

STARTCHAR jisx0208_2536
ENCODING 9526
SWIDTH 960 0
DWIDTH 12 0
BBX 12 12 0 -2
BITMAP
0000
3B70
1980
1960
7FF0
1980
1980
1980
0180
0300
0E00
0000
ENDCHAR

STARTCHAR jisx0208_2537
ENCODING 9527
SWIDTH 960 0
DWIDTH 12 0
BBX 12 12 0 -2
BITMAP
0000
0000
3800
0C00
0060
7060
18C0
0180
0300
3600
3C00
0000
ENDCHAR

STARTCHAR jisx0208_2538
ENCODING 9528
SWIDTH 960 0
DWIDTH 12 0
BBX 12 12 0 -2
BITMAP
0000
00E0
3800
0C00
0060
7060
18C0
0180
0300
3600
3C00
0000
ENDCHAR

STARTCHAR jisx0208_2539
ENCODING 9529
SWIDTH 960 0
DWIDTH 12 0
BBX 12 12 0 -2
BITMAP
0000
0000
3180
1FC0
0180
0180
0300
0580
0CC0
1860
7060
0000
ENDCHAR

STARTCHAR jisx0208_253A
ENCODING 9530
SWIDTH 960 0
DWIDTH 12 0
BBX 12 12 0 -2
BITMAP
0000
0070
3180
1FC0
0180
0180
0300
0580
0CC0
1860
7060
0000
ENDCHAR

STARTCHAR jisx0208_253B
ENCODING 9531
SWIDTH 960 0
DWIDTH 12 0
BBX 12 12 0 -2
BITMAP
0000
1C00
0C00
0C60
6FF0
3C60
0CC0
0D80
0C00
0C00
07E0
0000
ENDCHAR

STARTCHAR jisx0208_253C
ENCODING 9532
SWIDTH 960 0
DWIDTH 12 0
BBX 12 12 0 -2
BITMAP
0000
1C70
0C00
0C60
6FF0
3C60
0CC0
0D80
0C00
0C00
07E0
0000
ENDCHAR

STARTCHAR jisx0208_253D
ENCODING 9533
SWIDTH 960 0
DWIDTH 12 0
BBX 12 12 0 -2
BITMAP
0000
0000
30E0
1860
1860
1860
00C0
00C0
0180
0300
0E00
0000
ENDCHAR

STARTCHAR jisx0208_253E
ENCODING 9534
SWIDTH 960 0
DWIDTH 12 0
BBX 12 12 0 -2
BITMAP
0000
0070
30E0
1860
1860
1860
00C0
00C0
0180
0300
0E00
0000
ENDCHAR

STARTCHAR jisx0208_253F
ENCODING 9535
SWIDTH 960 0
DWIDTH 12 0
BBX 12 12 0 -2
BITMAP
0000
0E00
0660
0FF0
1860
3060
06C0
0180
02C0
0600
1C00
0000
ENDCHAR

STARTCHAR jisx0208_2540
ENCODING 9536
SWIDTH 960 0
DWIDTH 12 0
BBX 12 12 0 -2
BITMAP
0000
0E70
0660
0FF0
1860
3060
06C0
0180
02C0
0600
1C00
0000
ENDCHAR

STARTCHAR jisx0208_2541
ENCODING 9537
SWIDTH 960 0
DWIDTH 12 0
BBX 12 12 0 -2
BITMAP
0000
01C0
3F00
0600
06C0
7FE0
0600
0600
0600
0C00
3800
0000
ENDCHAR

STARTCHAR jisx0208_2542
ENCODING 9538
SWIDTH 960 0
DWIDTH 12 0
BBX 12 12 0 -2
BITMAP
0000
01C0
3F70
0600
06C0
7FE0
0600
0600
0600
0C00
3800
0000
ENDCHAR

STARTCHAR jisx0208_2543
ENCODING 9539
SWIDTH 960 0
DWIDTH 12 0
BBX 12 12 0 -2
BITMAP
0000
0000
0000
0C00
36E0
1660
18C0
00C0
0180
0300
0E00
0000
ENDCHAR

STARTCHAR jisx0208_2544
ENCODING 9540
SWIDTH 960 0
DWIDTH 12 0
BBX 12 12 0 -2
BITMAP
0000
0000
0C00
66E0
3660
30C0
00C0
0180
0300
0600
1C00
0000
ENDCHAR

STARTCHAR jisx0208_2545
ENCODING 9541
SWIDTH 960 0
DWIDTH 12 0
BBX 12 12 0 -2
BITMAP
0000
0070
0C00
66E0
3660
30C0
00C0
0180
0300
0600
1C00
0000
ENDCHAR

STARTCHAR jisx0208_2546
ENCODING 9542
SWIDTH 960 0
DWIDTH 12 0
BBX 12 12 0 -2
BITMAP
0000
0000
3FC0
0000
6000
3FE0
0600
0600
0600
0C00
3800
0000
ENDCHAR

STARTCHAR jisx0208_2547
ENCODING 9543
SWIDTH 960 0
DWIDTH 12 0
BBX 12 12 0 -2
BITMAP
0000
0070
3FC0
0000
6000
3FE0
0600
0600
0600
0C00
3800
0000
ENDCHAR

STARTCHAR jisx0208_2548
ENCODING 9544
SWIDTH 960 0
DWIDTH 12 0
BBX 12 12 0 -2
BITMAP
0000
1C00
0C00
0C00
0C00
0F00
0DC0
0C00
0C00
0C00
0C00
0000
ENDCHAR

STARTCHAR jisx0208_2549
ENCODING 9545
SWIDTH 960 0
DWIDTH 12 0
BBX 12 12 0 -2
BITMAP
0000
1C00
0CE0
0C00
0C00
0F00
0DC0
0C00
0C00
0C00
0C00
0000
ENDCHAR

STARTCHAR jisx0208_254A
ENCODING 9546
SWIDTH 960 0
DWIDTH 12 0
BBX 12 12 0 -2
BITMAP
0000
0E00
0600
06C0
7FE0
0600
0600
0600
0600
0C00
3800
0000
ENDCHAR

STARTCHAR jisx0208_254B
ENCODING 9547
SWIDTH 960 0
DWIDTH 12 0
BBX 12 12 0 -2
BITMAP
0000
0000
0000
1FC0
0000
0000
0000
0000
6060
3FF0
0000
0000
ENDCHAR

STARTCHAR jisx0208_254C
ENCODING 9548
SWIDTH 960 0
DWIDTH 12 0
BBX 12 12 0 -2
BITMAP
0000
0000
30C0
1FE0
00C0
1CC0
0580
0300
0580
1CC0
7000
0000
ENDCHAR

STARTCHAR jisx0208_254D
ENCODING 9549
SWIDTH 960 0
DWIDTH 12 0
BBX 12 12 0 -2
BITMAP
0000
0E00
0300
3FC0
0180
0300
0580
1EC0
7660
0600
0600
0000
ENDCHAR

STARTCHAR jisx0208_254E
ENCODING 9550
SWIDTH 960 0
DWIDTH 12 0
BBX 12 12 0 -2
BITMAP
0000
0000
00E0
0060
00C0
00C0
0180
0300
0600
0C00
3800
0000
ENDCHAR

STARTCHAR jisx0208_254F
ENCODING 9551
SWIDTH 960 0
DWIDTH 12 0
BBX 12 12 0 -2
BITMAP
0000
0000
0000
3980
18C0
18C0
1860
3060
3060
6060
0000
0000
ENDCHAR

STARTCHAR jisx0208_2550
ENCODING 9552
SWIDTH 960 0
DWIDTH 12 0
BBX 12 12 0 -2
BITMAP
0000
0000
0070
3980
18C0
18C0
1860
3060
3060
6060
0000
0000
ENDCHAR

STARTCHAR jisx0208_2551
ENCODING 9553
SWIDTH 960 0
DWIDTH 12 0
BBX 12 12 0 -2
BITMAP
0000
0070
0070
3980
18C0
18C0
1860
3060
3060
6060
0000
0000
ENDCHAR

STARTCHAR jisx0208_2552
ENCODING 9554
SWIDTH 960 0
DWIDTH 12 0
BBX 12 12 0 -2
BITMAP
0000
3800
1800
1860
19E0
1F00
1800
1800
1800
1800
0FE0
0000
ENDCHAR

STARTCHAR jisx0208_2553
ENCODING 9555
SWIDTH 960 0
DWIDTH 12 0
BBX 12 12 0 -2
BITMAP
0000
3870
1800
1860
19E0
1F00
1800
1800
1800
1800
0FE0
0000
ENDCHAR

STARTCHAR jisx0208_2554
ENCODING 9556
SWIDTH 960 0
DWIDTH 12 0
BBX 12 12 0 -2
BITMAP
0000
3870
1870
1860
19E0
1F00
1800
1800
1800
1800
0FE0
0000
ENDCHAR

STARTCHAR jisx0208_2555
ENCODING 9557
SWIDTH 960 0
DWIDTH 12 0
BBX 12 12 0 -2
BITMAP
0000
0000
60C0
3FE0
00C0
00C0
0180
0180
0300
0600
1C00
0000
ENDCHAR

STARTCHAR jisx0208_2556
ENCODING 9558
SWIDTH 960 0
DWIDTH 12 0
BBX 12 12 0 -2
BITMAP
0000
0070
60C0
3FE0
00C0
00C0
0180
0180
0300
0600
1C00
0000
ENDCHAR

STARTCHAR jisx0208_2557
ENCODING 9559
SWIDTH 960 0
DWIDTH 12 0
BBX 12 12 0 -2
BITMAP
0000
0070
60F0
3FE0
00C0
00C0
0180
0180
0300
0600
1C00
0000
ENDCHAR

STARTCHAR jisx0208_2558
ENCODING 9560
SWIDTH 960 0
DWIDTH 12 0
BBX 12 12 0 -2
BITMAP
0000
0000
0000
0600
0B00
5980
70C0
0060
0030
0000
0000
0000
ENDCHAR

STARTCHAR jisx0208_2559
ENCODING 9561
SWIDTH 960 0
DWIDTH 12 0
BBX 12 12 0 -2
BITMAP
0000
0000
0000
06E0
0B00
5980
70C0
0060
0030
0000
0000
0000
ENDCHAR

STARTCHAR jisx0208_255A
ENCODING 9562
SWIDTH 960 0
DWIDTH 12 0
BBX 12 12 0 -2
BITMAP
0000
0000
00E0
06E0
0B00
5980
70C0
0060
0030
0000
0000
0000
ENDCHAR

STARTCHAR jisx0208_255B
ENCODING 9563
SWIDTH 960 0
DWIDTH 12 0
BBX 12 12 0 -2
BITMAP
0000
0E00
06C0
7FE0
0600
36C0
3660
3660
6660
1E00
0C00
0000
ENDCHAR

STARTCHAR jisx0208_255C
ENCODING 9564
SWIDTH 960 0
DWIDTH 12 0
BBX 12 12 0 -2
BITMAP
0000
0E70
06C0
7FE0
0600
36C0
3660
3660
6660
1E00
0C00
0000
ENDCHAR

STARTCHAR jisx0208_255D
ENCODING 9565
SWIDTH 960 0
DWIDTH 12 0
BBX 12 12 0 -2
BITMAP
0000
0E70
06F0
7FE0
0600
36C0
3660
3660
6660
1E00
0C00
0000
ENDCHAR

STARTCHAR jisx0208_255E
ENCODING 9566
SWIDTH 960 0
DWIDTH 12 0
BBX 12 12 0 -2
BITMAP
0000
0000
6060
3FF0
0060
00C0
1980
0B00
0600
0300
0300
0000
ENDCHAR

STARTCHAR jisx0208_255F
ENCODING 9567
SWIDTH 960 0
DWIDTH 12 0
BBX 12 12 0 -2
BITMAP
0000
0000
1E00
0380
0000
1E00
0380
0000
3C00
0700
01C0
0000
ENDCHAR

STARTCHAR jisx0208_2560
ENCODING 9568
SWIDTH 960 0
DWIDTH 12 0
BBX 12 12 0 -2
BITMAP
0000
0600
0300
0600
0600
0C00
0CC0
1860
1BF0
7E30
0030
0000
ENDCHAR

STARTCHAR jisx0208_2561
ENCODING 9569
SWIDTH 960 0
DWIDTH 12 0
BBX 12 12 0 -2
BITMAP
0000
0000
01C0
00C0
1D80
0580
0300
0580
0CC0
1800
7000
0000
ENDCHAR

STARTCHAR jisx0208_2562
ENCODING 9570
SWIDTH 960 0
DWIDTH 12 0
BBX 12 12 0 -2
BITMAP
0000
0000
3FC0
0C00
0C00
7FE0
0C00
0C00
0C00
0C00
07C0
0000
ENDCHAR

STARTCHAR jisx0208_2563
ENCODING 9571
SWIDTH 960 0
DWIDTH 12 0
BBX 12 12 0 -2
BITMAP
0000
0000
0000
1C00
0CC0
0FE0
3CC0
0580
0600
0600
0600
0000
ENDCHAR

STARTCHAR jisx0208_2564
ENCODING 9572
SWIDTH 960 0
DWIDTH 12 0
BBX 12 12 0 -2
BITMAP
0000
1C00
0C60
0FF0
7C60
0CC0
0D80
0600
0600
0600
0600
0000
ENDCHAR

STARTCHAR jisx0208_2565
ENCODING 9573
SWIDTH 960 0
DWIDTH 12 0
BBX 12 12 0 -2
BITMAP
0000
0000
0000
0000
1F80
0180
0180
0180
3180
1FE0
0000
0000
ENDCHAR

STARTCHAR jisx0208_2566
ENCODING 9574
SWIDTH 960 0
DWIDTH 12 0
BBX 12 12 0 -2
BITMAP
0000
0000
0180
3FC0
0180
0180
0180
0180
6160
3FF0
0000
0000
ENDCHAR

STARTCHAR jisx0208_2567
ENCODING 9575
SWIDTH 960 0
DWIDTH 12 0
BBX 12 12 0 -2
BITMAP
0000
0000
0000
0000
1FC0
00C0
1FC0
00C0
00C0
1FC0
0000
0000
ENDCHAR

STARTCHAR jisx0208_2568
ENCODING 9576
SWIDTH 960 0
DWIDTH 12 0
BBX 12 12 0 -2
BITMAP
0000
00C0
3FE0
00C0
00C0
3FC0
00C0
00C0
00C0
3FE0
0000
0000
ENDCHAR

STARTCHAR jisx0208_2569
ENCODING 9577
SWIDTH 960 0
DWIDTH 12 0
BBX 12 12 0 -2
BITMAP
0000
0000
1FC0
0000
6060
3FF0
0060
0060
00C0
0180
0F00
0000
ENDCHAR

STARTCHAR jisx0208_256A
ENCODING 9578
SWIDTH 960 0
DWIDTH 12 0
BBX 12 12 0 -2
BITMAP
0000
01C0
38C0
18C0
18C0
18C0
18C0
18C0
00C0
0180
0700
0000
ENDCHAR

STARTCHAR jisx0208_256B
ENCODING 9579
SWIDTH 960 0
DWIDTH 12 0
BBX 12 12 0 -2
BITMAP
0000
0000
0700
3B00
1B00
1B00
1B30
1B60
32C0
3380
6300
0000
ENDCHAR

STARTCHAR jisx0208_256C
ENCODING 9580
SWIDTH 960 0
DWIDTH 12 0
BBX 12 12 0 -2
BITMAP
0000
0000
3800
1800
1800
1800
1860
18C0
1980
1700
1C00
0000
ENDCHAR

STARTCHAR jisx0208_256D
ENCODING 9581
SWIDTH 960 0
DWIDTH 12 0
BBX 12 12 0 -2
BITMAP
0000
0000
30C0
3FE0
30C0
30C0
30C0
30C0
30C0
3FE0
3000
0000
ENDCHAR

STARTCHAR jisx0208_256E
ENCODING 9582
SWIDTH 960 0
DWIDTH 12 0
BBX 12 12 0 -2
BITMAP
0000
0000
0000
0000
18C0
1FE0
18C0
18C0
00C0
0180
0700
0000
ENDCHAR

STARTCHAR jisx0208_256F
ENCODING 9583
SWIDTH 960 0
DWIDTH 12 0
BBX 12 12 0 -2
BITMAP
0000
0000
70C0
3FE0
30C0
30C0
30C0
0180
0180
0300
0E00
0000
ENDCHAR

STARTCHAR jisx0208_2570
ENCODING 9584
SWIDTH 960 0
DWIDTH 12 0
BBX 12 12 0 -2
BITMAP
0000
0700
0300
3FE0
1B00
1B00
1B60
7FF0
0300
0300
0300
0000
ENDCHAR

STARTCHAR jisx0208_2571
ENCODING 9585
SWIDTH 960 0
DWIDTH 12 0
BBX 12 12 0 -2
BITMAP
0000
0000
0000
3FE0
00C0
0D80
0700
0600
6660
3FF0
0000
0000
ENDCHAR

STARTCHAR jisx0208_2572
ENCODING 9586
SWIDTH 960 0
DWIDTH 12 0
BBX 12 12 0 -2
BITMAP
0000
00C0
3FE0
00C0
00C0
3FC0
00C0
0180
0180
0700
1C00
0000
ENDCHAR

STARTCHAR jisx0208_2573
ENCODING 9587
SWIDTH 960 0
DWIDTH 12 0
BBX 12 12 0 -2
BITMAP
0000
0000
6000
3000
1860
0060
00C0
0180
0300
3600
3C00
0000
ENDCHAR

STARTCHAR jisx0208_2574
ENCODING 9588
SWIDTH 960 0
DWIDTH 12 0
BBX 12 12 0 -2
BITMAP
0000
0E70
36C0
3FE0
30C0
30C0
30C0
00C0
0180
0300
0E00
0000
ENDCHAR

STARTCHAR jisx0208_2575
ENCODING 9589
SWIDTH 960 0
DWIDTH 12 0
BBX 12 12 0 -2
BITMAP
0000
0000
0000
0E00
06C0
3FE0
0CC0
0CC0
0CC0
1BC0
3180
0000
ENDCHAR

STARTCHAR jisx0208_2576
ENCODING 9590
SWIDTH 960 0
DWIDTH 12 0
BBX 12 12 0 -2
BITMAP
0000
0000
0000
1C00
0C00
0FE0
1980
3180
0180
0300
0E00
0000
ENDCHAR

STARTCHAR jisx0208_2621
ENCODING 9761
SWIDTH 960 0
DWIDTH 12 0
BBX 12 12 0 -2
BITMAP
0000
0000
0600
0600
0B00
0B00
1980
1F80
30C0
79E0
0000
0000
ENDCHAR

STARTCHAR jisx0208_2622
ENCODING 9762
SWIDTH 960 0
DWIDTH 12 0
BBX 12 12 0 -2
BITMAP
0000
0000
3F00
1980
1980
1F80
18C0
18C0
18C0
3F80
0000
0000
ENDCHAR

STARTCHAR jisx0208_2623
ENCODING 9763
SWIDTH 960 0
DWIDTH 12 0
BBX 12 12 0 -2
BITMAP
0000
0000
3FC0
18C0
1800
1800
1800
1800
1800
3C00
0000
0000
ENDCHAR

STARTCHAR jisx0208_2624
ENCODING 9764
SWIDTH 960 0
DWIDTH 12 0
BBX 12 12 0 -2
BITMAP
0000
0000
0600
0600
0B00
0B00
1980
1980
30C0
3FC0
0000
0000
ENDCHAR

STARTCHAR jisx0208_2625
ENCODING 9765
SWIDTH 960 0
DWIDTH 12 0
BBX 12 12 0 -2
BITMAP
0000
0000
3FC0
18C0
1B00
1F00
1B00
1800
18C0
3FC0
0000
0000
ENDCHAR

STARTCHAR jisx0208_2626
ENCODING 9766
SWIDTH 960 0
DWIDTH 12 0
BBX 12 12 0 -2
BITMAP
0000
0000
1FC0
18C0
0180
0300
0600
0C00
18C0
1FC0
0000
0000
ENDCHAR

STARTCHAR jisx0208_2627
ENCODING 9767
SWIDTH 960 0
DWIDTH 12 0
BBX 12 12 0 -2
BITMAP
0000
0000
3DE0
18C0
18C0
1FC0
18C0
18C0
18C0
3DE0
0000
0000
ENDCHAR

STARTCHAR jisx0208_2628
ENCODING 9768
SWIDTH 960 0
DWIDTH 12 0
BBX 12 12 0 -2
BITMAP
0000
0000
0F00
1980
2AC0
2EC0
2AC0
30C0
1980
0F00
0000
0000
ENDCHAR

STARTCHAR jisx0208_2629
ENCODING 9769
SWIDTH 960 0
DWIDTH 12 0
BBX 12 12 0 -2
BITMAP
0000
0000
0F00
0600
0600
0600
0600
0600
0600
0F00
0000
0000
ENDCHAR

STARTCHAR jisx0208_262A
ENCODING 9770
SWIDTH 960 0
DWIDTH 12 0
BBX 12 12 0 -2
BITMAP
0000
0000
3BC0
1980
1B00
1600
1B00
1980
18C0
3DE0
0000
0000
ENDCHAR

STARTCHAR jisx0208_262B
ENCODING 9771
SWIDTH 960 0
DWIDTH 12 0
BBX 12 12 0 -2
BITMAP
0000
0000
0600
0600
0B00
0B00
1980
1980
30C0
79E0
0000
0000
ENDCHAR

STARTCHAR jisx0208_262C
ENCODING 9772
SWIDTH 960 0
DWIDTH 12 0
BBX 12 12 0 -2
BITMAP
0000
0000
70E0
30C0
39C0
39C0
2AC0
2AC0
36C0
75E0
0000
0000
ENDCHAR

STARTCHAR jisx0208_262D
ENCODING 9773
SWIDTH 960 0
DWIDTH 12 0
BBX 12 12 0 -2
BITMAP
0000
0000
39E0
1CC0
1CC0
16C0
1AC0
1AC0
19C0
3CC0
0000
0000
ENDCHAR

STARTCHAR jisx0208_262E
ENCODING 9774
SWIDTH 960 0
DWIDTH 12 0
BBX 12 12 0 -2
BITMAP
0000
0000
1FC0
18C0
0000
0F80
0000
0000
18C0
1FC0
0000
0000
ENDCHAR

STARTCHAR jisx0208_262F
ENCODING 9775
SWIDTH 960 0
DWIDTH 12 0
BBX 12 12 0 -2
BITMAP
0000
0000
0F00
1980
30C0
30C0
30C0
30C0
1980
0F00
0000
0000
ENDCHAR

STARTCHAR jisx0208_2630
ENCODING 9776
SWIDTH 960 0
DWIDTH 12 0
BBX 12 12 0 -2
BITMAP
0000
0000
3FE0
18C0
18C0
18C0
18C0
18C0
18C0
3DE0
0000
0000
ENDCHAR

STARTCHAR jisx0208_2631
ENCODING 9777
SWIDTH 960 0
DWIDTH 12 0
BBX 12 12 0 -2
BITMAP
0000
0000
3F80
18C0
18C0
18C0
1F80
1800
1800
3C00
0000
0000
ENDCHAR

STARTCHAR jisx0208_2632
ENCODING 9778
SWIDTH 960 0
DWIDTH 12 0
BBX 12 12 0 -2
BITMAP
0000
0000
1FC0
0CC0
0600
0300
0600
0C00
18C0
1FC0
0000
0000
ENDCHAR

STARTCHAR jisx0208_2633
ENCODING 9779
SWIDTH 960 0
DWIDTH 12 0
BBX 12 12 0 -2
BITMAP
0000
0000
3FC0
36C0
0600
0600
0600
0600
0600
0F00
0000
0000
ENDCHAR

STARTCHAR jisx0208_2634
ENCODING 9780
SWIDTH 960 0
DWIDTH 12 0
BBX 12 12 0 -2
BITMAP
0000
0000
1B80
36C0
0600
0600
0600
0600
0600
0F00
0000
0000
ENDCHAR

STARTCHAR jisx0208_2635
ENCODING 9781
SWIDTH 960 0
DWIDTH 12 0
BBX 12 12 0 -2
BITMAP
0000
0000
0F00
0600
1F80
36C0
36C0
1F80
0600
0F00
0000
0000
ENDCHAR

STARTCHAR jisx0208_2636
ENCODING 9782
SWIDTH 960 0
DWIDTH 12 0
BBX 12 12 0 -2
BITMAP
0000
0000
3BC0
1980
0B00
0600
0600
0B00
1980
3BC0
0000
0000
ENDCHAR

STARTCHAR jisx0208_2637
ENCODING 9783
SWIDTH 960 0
DWIDTH 12 0
BBX 12 12 0 -2
BITMAP
0000
0000
6EE0
36C0
36C0
36C0
36C0
1F80
0600
0F00
0000
0000
ENDCHAR

STARTCHAR jisx0208_2638
ENCODING 9784
SWIDTH 960 0
DWIDTH 12 0
BBX 12 12 0 -2
BITMAP
0000
0000
0F00
1980
30C0
30C0
30C0
1980
2AC0
3BC0
0000
0000
ENDCHAR

STARTCHAR jisx0208_2641
ENCODING 9793
SWIDTH 960 0
DWIDTH 12 0
BBX 12 12 0 -2
BITMAP
0000
0000
0000
0000
0EC0
1AC0
3380
3300
36C0
1B80
0000
0000
ENDCHAR

STARTCHAR jisx0208_2642
ENCODING 9794
SWIDTH 960 0
DWIDTH 12 0
BBX 12 12 0 -2
BITMAP
0000
0000
0780
0CC0
0CC0
0B80
18C0
18C0
1CC0
1780
3C00
0000
ENDCHAR

STARTCHAR jisx0208_2643
ENCODING 9795
SWIDTH 960 0
DWIDTH 12 0
BBX 12 12 0 -2
BITMAP
0000
0000
0000
0000
0EE0
1B80
0300
0300
0600
0600
0F00
0000
ENDCHAR

STARTCHAR jisx0208_2644
ENCODING 9796
SWIDTH 960 0
DWIDTH 12 0
BBX 12 12 0 -2
BITMAP
0000
0000
03C0
06C0
0780
0CC0
18C0
18C0
1980
0F00
0000
0000
ENDCHAR

STARTCHAR jisx0208_2645
ENCODING 9797
SWIDTH 960 0
DWIDTH 12 0
BBX 12 12 0 -2
BITMAP
0000
0000
0000
0000
07C0
0CC0
0F00
1800
18C0
0F80
0000
0000
ENDCHAR

STARTCHAR jisx0208_2646
ENCODING 9798
SWIDTH 960 0
DWIDTH 12 0
BBX 12 12 0 -2
BITMAP
0000
0000
0D80
0F00
0600
0C00
1800
1800
0F00
0180
0F00
0000
ENDCHAR

STARTCHAR jisx0208_2647
ENCODING 9799
SWIDTH 960 0
DWIDTH 12 0
BBX 12 12 0 -2
BITMAP
0000
0000
0000
0000
1B80
2EC0
0CC0
0CC0
1980
3D80
03C0
0000
ENDCHAR

STARTCHAR jisx0208_2648
ENCODING 9800
SWIDTH 960 0
DWIDTH 12 0
BBX 12 12 0 -2
BITMAP
0000
0000
0780
0CC0
0CC0
1FC0
18C0
1980
1980
0F00
0000
0000
ENDCHAR

STARTCHAR jisx0208_2649
ENCODING 9801
SWIDTH 960 0
DWIDTH 12 0
BBX 12 12 0 -2
BITMAP
0000
0000
0000
0000
0700
0300
0300
0600
0580
0700
0000
0000
ENDCHAR

STARTCHAR jisx0208_264A
ENCODING 9802
SWIDTH 960 0
DWIDTH 12 0
BBX 12 12 0 -2
BITMAP
0000
0000
0000
0000
1DC0
0AC0
0E00
1B00
1AC0
3B80
0000
0000
ENDCHAR

STARTCHAR jisx0208_264B
ENCODING 9803
SWIDTH 960 0
DWIDTH 12 0
BBX 12 12 0 -2
BITMAP
0000
0000
0E00
0B00
0300
0700
0B00
0B00
1AC0
3B80
0000
0000
ENDCHAR

STARTCHAR jisx0208_264C
ENCODING 9804
SWIDTH 960 0
DWIDTH 12 0
BBX 12 12 0 -2
BITMAP
0000
0000
0000
0000
0CC0
0CC0
0CC0
1980
1960
1FC0
3800
0000
ENDCHAR

STARTCHAR jisx0208_264D
ENCODING 9805
SWIDTH 960 0
DWIDTH 12 0
BBX 12 12 0 -2
BITMAP
0000
0000
0000
0000
19C0
0CC0
0CC0
0580
0700
0600
0000
0000
ENDCHAR

STARTCHAR jisx0208_264E
ENCODING 9806
SWIDTH 960 0
DWIDTH 12 0
BBX 12 12 0 -2
BITMAP
0000
0000
0600
0780
0C00
0F00
1800
1800
0F00
0180
0F00
0000
ENDCHAR

STARTCHAR jisx0208_264F
ENCODING 9807
SWIDTH 960 0
DWIDTH 12 0
BBX 12 12 0 -2
BITMAP
0000
0000
0000
0000
0780
0CC0
18C0
18C0
1980
0F00
0000
0000
ENDCHAR

STARTCHAR jisx0208_2650
ENCODING 9808
SWIDTH 960 0
DWIDTH 12 0
BBX 12 12 0 -2
BITMAP
0000
0000
0000
0000
0FE0
1580
0580
0B00
2AC0
3B80
0000
0000
ENDCHAR

STARTCHAR jisx0208_2651
ENCODING 9809
SWIDTH 960 0
DWIDTH 12 0
BBX 12 12 0 -2
BITMAP
0000
0000
0000
0000
0780
0CC0
0CC0
18C0
1CC0
1780
3C00
0000
ENDCHAR

STARTCHAR jisx0208_2652
ENCODING 9810
SWIDTH 960 0
DWIDTH 12 0
BBX 12 12 0 -2
BITMAP
0000
0000
0000
0000
07E0
0CC0
18C0
18C0
1980
0F00
0000
0000
ENDCHAR

STARTCHAR jisx0208_2653
ENCODING 9811
SWIDTH 960 0
DWIDTH 12 0
BBX 12 12 0 -2
BITMAP
0000
0000
0000
0000
0F80
1600
0600
0C00
0B00
0E00
0000
0000
ENDCHAR

STARTCHAR jisx0208_2654
ENCODING 9812
SWIDTH 960 0
DWIDTH 12 0
BBX 12 12 0 -2
BITMAP
0000
0000
0000
0000
1980
0CC0
0CC0
18C0
1980
0F00
0000
0000
ENDCHAR

STARTCHAR jisx0208_2655
ENCODING 9813
SWIDTH 960 0
DWIDTH 12 0
BBX 12 12 0 -2
BITMAP
0000
0000
0700
0300
0F80
1AC0
1AC0
16C0
0F80
0600
0F00
0000
ENDCHAR

STARTCHAR jisx0208_2656
ENCODING 9814
SWIDTH 960 0
DWIDTH 12 0
BBX 12 12 0 -2
BITMAP
0000
0000
0000
0000
1DE0
16C0
0580
0700
0B00
1B60
3DC0
0000
ENDCHAR

STARTCHAR jisx0208_2657
ENCODING 9815
SWIDTH 960 0
DWIDTH 12 0
BBX 12 12 0 -2
BITMAP
0000
0000
0000
0000
1AC0
0AC0
1AC0
16C0
0F80
0600
0F00
0000
ENDCHAR

STARTCHAR jisx0208_2658
ENCODING 9816
SWIDTH 960 0
DWIDTH 12 0
BBX 12 12 0 -2
BITMAP
0000
0000
0000
0000
0CC0
1860
3360
3360
3660
1BC0
0000
0000
ENDCHAR

STARTCHAR jisx0208_2721
ENCODING 10017
SWIDTH 960 0
DWIDTH 12 0
BBX 12 12 0 -2
BITMAP
0000
0000
0600
0600
0B00
0B00
1980
1F80
30C0
79E0
0000
0000
ENDCHAR

STARTCHAR jisx0208_2722
ENCODING 10018
SWIDTH 960 0
DWIDTH 12 0
BBX 12 12 0 -2
BITMAP
0000
0000
3FC0
18C0
1800
1F80
18C0
18C0
18C0
3F80
0000
0000
ENDCHAR

STARTCHAR jisx0208_2723
ENCODING 10019
SWIDTH 960 0
DWIDTH 12 0
BBX 12 12 0 -2
BITMAP
0000
0000
3F00
1980
1980
1F80
18C0
18C0
18C0
3F80
0000
0000
ENDCHAR

STARTCHAR jisx0208_2724
ENCODING 10020
SWIDTH 960 0
DWIDTH 12 0
BBX 12 12 0 -2
BITMAP
0000
0000
3FC0
18C0
1800
1800
1800
1800
1800
3C00
0000
0000
ENDCHAR

STARTCHAR jisx0208_2725
ENCODING 10021
SWIDTH 960 0
DWIDTH 12 0
BBX 12 12 0 -2
BITMAP
0000
0000
1FC0
0D80
0D80
0D80
0D80
0D80
1980
3FC0
30C0
0000
ENDCHAR

STARTCHAR jisx0208_2726
ENCODING 10022
SWIDTH 960 0
DWIDTH 12 0
BBX 12 12 0 -2
BITMAP
0000
0000
3FC0
18C0
1B00
1F00
1B00
1800
18C0
3FC0
0000
0000
ENDCHAR

STARTCHAR jisx0208_2727
ENCODING 10023
SWIDTH 960 0
DWIDTH 12 0
BBX 12 12 0 -2
BITMAP
0000
0D80
0000
3FC0
18C0
1B00
1F00
1B00
18C0
3FC0
0000
0000
ENDCHAR

STARTCHAR jisx0208_2728
ENCODING 10024
SWIDTH 960 0
DWIDTH 12 0
BBX 12 12 0 -2
BITMAP
0000
0000
6EE0
36C0
1580
1F80
1580
36C0
36C0
6EE0
0000
0000
ENDCHAR

STARTCHAR jisx0208_2729
ENCODING 10025
SWIDTH 960 0
DWIDTH 12 0
BBX 12 12 0 -2
BITMAP
0000
0000
1F80
18C0
18C0
0780
00C0
18C0
18C0
0F80
0000
0000
ENDCHAR

STARTCHAR jisx0208_272A
ENCODING 10026
SWIDTH 960 0
DWIDTH 12 0
BBX 12 12 0 -2
BITMAP
0000
0000
3CE0
19C0
1AC0
1AC0
16C0
1CC0
1CC0
39E0
0000
0000
ENDCHAR

STARTCHAR jisx0208_272B
ENCODING 10027
SWIDTH 960 0
DWIDTH 12 0
BBX 12 12 0 -2
BITMAP
0000
0D80
0700
3CE0
19C0
1AC0
1AC0
16C0
1CC0
39E0
0000
0000
ENDCHAR

STARTCHAR jisx0208_272C
ENCODING 10028
SWIDTH 960 0
DWIDTH 12 0
BBX 12 12 0 -2
BITMAP
0000
0000
3BC0
1980
1B00
1E00
1B00
1B00
1980
3BC0
0000
0000
ENDCHAR

STARTCHAR jisx0208_272D
ENCODING 10029
SWIDTH 960 0
DWIDTH 12 0
BBX 12 12 0 -2
BITMAP
0000
0000
0FE0
06C0
06C0
06C0
06C0
06C0
36C0
1DE0
0000
0000
ENDCHAR

STARTCHAR jisx0208_272E
ENCODING 10030
SWIDTH 960 0
DWIDTH 12 0
BBX 12 12 0 -2
BITMAP
0000
0000
70E0
30C0
39C0
39C0
2AC0
2AC0
36C0
75E0
0000
0000
ENDCHAR

STARTCHAR jisx0208_272F
ENCODING 10031
SWIDTH 960 0
DWIDTH 12 0
BBX 12 12 0 -2
BITMAP
0000
0000
3DE0
18C0
18C0
1FC0
18C0
18C0
18C0
3DE0
0000
0000
ENDCHAR

STARTCHAR jisx0208_2730
ENCODING 10032
SWIDTH 960 0
DWIDTH 12 0
BBX 12 12 0 -2
BITMAP
0000
0000
0F00
1980
30C0
30C0
30C0
30C0
1980
0F00
0000
0000
ENDCHAR

STARTCHAR jisx0208_2731
ENCODING 10033
SWIDTH 960 0
DWIDTH 12 0
BBX 12 12 0 -2
BITMAP
0000
0000
3FE0
18C0
18C0
18C0
18C0
18C0
18C0
3DE0
0000
0000
ENDCHAR

STARTCHAR jisx0208_2732
ENCODING 10034
SWIDTH 960 0
DWIDTH 12 0
BBX 12 12 0 -2
BITMAP
0000
0000
3F80
18C0
18C0
18C0
1F80
1800
1800
3C00
0000
0000
ENDCHAR

STARTCHAR jisx0208_2733
ENCODING 10035
SWIDTH 960 0
DWIDTH 12 0
BBX 12 12 0 -2
BITMAP
0000
0000
0EC0
19C0
30C0
3000
3000
30C0
1980
0F00
0000
0000
ENDCHAR

STARTCHAR jisx0208_2734
ENCODING 10036
SWIDTH 960 0
DWIDTH 12 0
BBX 12 12 0 -2
BITMAP
0000
0000
3FC0
36C0
0600
0600
0600
0600
0600
0F00
0000
0000
ENDCHAR

STARTCHAR jisx0208_2735
ENCODING 10037
SWIDTH 960 0
DWIDTH 12 0
BBX 12 12 0 -2
BITMAP
0000
0000
1DE0
0CC0
0CC0
0580
0580
0300
1B00
0E00
0000
0000
ENDCHAR

STARTCHAR jisx0208_2736
ENCODING 10038
SWIDTH 960 0
DWIDTH 12 0
BBX 12 12 0 -2
BITMAP
0000
0000
0F00
0600
1F80
36C0
36C0
1F80
0600
0F00
0000
0000
ENDCHAR

STARTCHAR jisx0208_2737
ENCODING 10039
SWIDTH 960 0
DWIDTH 12 0
BBX 12 12 0 -2
BITMAP
0000
0000
3BC0
1980
0B00
0600
0600
0B00
1980
3BC0
0000
0000
ENDCHAR

STARTCHAR jisx0208_2738
ENCODING 10040
SWIDTH 960 0
DWIDTH 12 0
BBX 12 12 0 -2
BITMAP
0000
0000
3DE0
18C0
18C0
18C0
18C0
18C0
18C0
3FE0
0060
0000
ENDCHAR

STARTCHAR jisx0208_2739
ENCODING 10041
SWIDTH 960 0
DWIDTH 12 0
BBX 12 12 0 -2
BITMAP
0000
0000
3BC0
1980
1980
1980
1980
0F80
0180
03C0
0000
0000
ENDCHAR

STARTCHAR jisx0208_273A
ENCODING 10042
SWIDTH 960 0
DWIDTH 12 0
BBX 12 12 0 -2
BITMAP
0000
0000
6EE0
36C0
36C0
36C0
36C0
36C0
36C0
7FE0
0000
0000
ENDCHAR

STARTCHAR jisx0208_273B
ENCODING 10043
SWIDTH 960 0
DWIDTH 12 0
BBX 12 12 0 -2
BITMAP
0000
0000
6EE0
36C0
36C0
36C0
36C0
36C0
36C0
7FE0
0060
0000
ENDCHAR

STARTCHAR jisx0208_273C
ENCODING 10044
SWIDTH 960 0
DWIDTH 12 0
BBX 12 12 0 -2
BITMAP
0000
0000
3E00
2C00
0C00
0FC0
0C60
0C60
0C60
1FC0
0000
0000
ENDCHAR

STARTCHAR jisx0208_273D
ENCODING 10045
SWIDTH 960 0
DWIDTH 12 0
BBX 12 12 0 -2
BITMAP
0000
0000
79E0
30C0
30C0
3EC0
32C0
32C0
32C0
7DE0
0000
0000
ENDCHAR

STARTCHAR jisx0208_273E
ENCODING 10046
SWIDTH 960 0
DWIDTH 12 0
BBX 12 12 0 -2
BITMAP
0000
0000
3C00
1800
1800
1F80
18C0
18C0
18C0
3F80
0000
0000
ENDCHAR

STARTCHAR jisx0208_273F
ENCODING 10047
SWIDTH 960 0
DWIDTH 12 0
BBX 12 12 0 -2
BITMAP
0000
0000
1780
1CC0
1860
07E0
0060
1860
0CC0
0780
0000
0000
ENDCHAR

STARTCHAR jisx0208_2740
ENCODING 10048
SWIDTH 960 0
DWIDTH 12 0
BBX 12 12 0 -2
BITMAP
0000
0000
7B80
36C0
2C60
3C60
2C60
2C60
36C0
7B80
0000
0000
ENDCHAR

STARTCHAR jisx0208_2741
ENCODING 10049
SWIDTH 960 0
DWIDTH 12 0
BBX 12 12 0 -2
BITMAP
0000
0000
0FE0
18C0
18C0
18C0
0FC0
0CC0
2CC0
19E0
0000
0000
ENDCHAR

STARTCHAR jisx0208_2751
ENCODING 10065
SWIDTH 960 0
DWIDTH 12 0
BBX 12 12 0 -2
BITMAP
0000
0000
0000
0000
0F00
0180
0F80
1980
1980
0FC0
0000
0000
ENDCHAR

STARTCHAR jisx0208_2752
ENCODING 10066
SWIDTH 960 0
DWIDTH 12 0
BBX 12 12 0 -2
BITMAP
0000
0000
0F80
1800
1F00
1980
1980
1980
1980
0F00
0000
0000
ENDCHAR

STARTCHAR jisx0208_2753
ENCODING 10067
SWIDTH 960 0
DWIDTH 12 0
BBX 12 12 0 -2
BITMAP
0000
0000
0000
0000
1F80
0CC0
0F80
0CC0
0CC0
1F80
0000
0000
ENDCHAR

STARTCHAR jisx0208_2754
ENCODING 10068
SWIDTH 960 0
DWIDTH 12 0
BBX 12 12 0 -2
BITMAP
0000
0000
0000
0000
1F80
0D80
0C00
0C00
0C00
1E00
0000
0000
ENDCHAR

STARTCHAR jisx0208_2755
ENCODING 10069
SWIDTH 960 0
DWIDTH 12 0
BBX 12 12 0 -2
BITMAP
0000
0000
0000
0000
1FC0
0D80
0D80
0D80
1980
3FC0
30C0
0000
ENDCHAR

STARTCHAR jisx0208_2756
ENCODING 10070
SWIDTH 960 0
DWIDTH 12 0
BBX 12 12 0 -2
BITMAP
0000
0000
0000
0000
0F00
1980
1F80
1800
1980
0F00
0000
0000
ENDCHAR

STARTCHAR jisx0208_2757
ENCODING 10071
SWIDTH 960 0
DWIDTH 12 0
BBX 12 12 0 -2
BITMAP
0000
0000
0B00
0000
0F00
1980
1F80
1800
1980
0F00
0000
0000
ENDCHAR

STARTCHAR jisx0208_2758
ENCODING 10072
SWIDTH 960 0
DWIDTH 12 0
BBX 12 12 0 -2
BITMAP
0000
0000
0000
0000
35C0
1580
0F00
1580
1580
35C0
0000
0000
ENDCHAR

STARTCHAR jisx0208_2759
ENCODING 10073
SWIDTH 960 0
DWIDTH 12 0
BBX 12 12 0 -2
BITMAP
0000
0000
0000
0000
1F00
1980
0700
0180
1980
0F00
0000
0000
ENDCHAR

STARTCHAR jisx0208_275A
ENCODING 10074
SWIDTH 960 0
DWIDTH 12 0
BBX 12 12 0 -2
BITMAP
0000
0000
0000
0000
3DC0
1B80
1580
1580
1D80
3BC0
0000
0000
ENDCHAR

STARTCHAR jisx0208_275B
ENCODING 10075
SWIDTH 960 0
DWIDTH 12 0
BBX 12 12 0 -2
BITMAP
0000
0000
0D80
0700
3DC0
1B80
1580
1580
1D80
3BC0
0000
0000
ENDCHAR

STARTCHAR jisx0208_275C
ENCODING 10076
SWIDTH 960 0
DWIDTH 12 0
BBX 12 12 0 -2
BITMAP
0000
0000
0000
0000
37C0
1B00
1E00
1B00
1980
3BC0
0000
0000
ENDCHAR

STARTCHAR jisx0208_275D
ENCODING 10077
SWIDTH 960 0
DWIDTH 12 0
BBX 12 12 0 -2
BITMAP
0000
0000
0000
0000
0FC0
0580
0580
0580
1580
1BC0
0000
0000
ENDCHAR

STARTCHAR jisx0208_275E
ENCODING 10078
SWIDTH 960 0
DWIDTH 12 0
BBX 12 12 0 -2
BITMAP
0000
0000
0000
0000
38E0
18C0
1DC0
1DC0
16C0
36E0
0000
0000
ENDCHAR

STARTCHAR jisx0208_275F
ENCODING 10079
SWIDTH 960 0
DWIDTH 12 0
BBX 12 12 0 -2
BITMAP
0000
0000
0000
0000
3BC0
1980
1F80
1980
1980
3BC0
0000
0000
ENDCHAR

STARTCHAR jisx0208_2760
ENCODING 10080
SWIDTH 960 0
DWIDTH 12 0
BBX 12 12 0 -2
BITMAP
0000
0000
0000
0000
0F00
1980
1980
1980
1980
0F00
0000
0000
ENDCHAR

STARTCHAR jisx0208_2761
ENCODING 10081
SWIDTH 960 0
DWIDTH 12 0
BBX 12 12 0 -2
BITMAP
0000
0000
0000
0000
3FC0
1980
1980
1980
1980
3BC0
0000
0000
ENDCHAR

STARTCHAR jisx0208_2762
ENCODING 10082
SWIDTH 960 0
DWIDTH 12 0
BBX 12 12 0 -2
BITMAP
0000
0000
0000
0000
1F80
0CC0
0CC0
0CC0
0F80
0C00
1E00
0000
ENDCHAR

STARTCHAR jisx0208_2763
ENCODING 10083
SWIDTH 960 0
DWIDTH 12 0
BBX 12 12 0 -2
BITMAP
0000
0000
0000
0000
0F00
1980
1B80
1800
1980
0F00
0000
0000
ENDCHAR

STARTCHAR jisx0208_2764
ENCODING 10084
SWIDTH 960 0
DWIDTH 12 0
BBX 12 12 0 -2
BITMAP
0000
0000
0000
0000
1F80
1580
0600
0600
0600
0F00
0000
0000
ENDCHAR

STARTCHAR jisx0208_2765
ENCODING 10085
SWIDTH 960 0
DWIDTH 12 0
BBX 12 12 0 -2
BITMAP
0000
0000
0000
0000
1DE0
0CC0
0580
0580
0300
1B00
0E00
0000
ENDCHAR

STARTCHAR jisx0208_2766
ENCODING 10086
SWIDTH 960 0
DWIDTH 12 0
BBX 12 12 0 -2
BITMAP
0000
0000
0E00
0600
1580
2EC0
36C0
2EC0
1580
0600
0F00
0000
ENDCHAR

STARTCHAR jisx0208_2767
ENCODING 10087
SWIDTH 960 0
DWIDTH 12 0
BBX 12 12 0 -2
BITMAP
0000
0000
0000
0000
1DC0
0D80
0700
0700
0D80
1DC0
0000
0000
ENDCHAR

STARTCHAR jisx0208_2768
ENCODING 10088
SWIDTH 960 0
DWIDTH 12 0
BBX 12 12 0 -2
BITMAP
0000
0000
0000
0000
1BC0
0D80
0D80
0D80
0D80
1FC0
00C0
0000
ENDCHAR

STARTCHAR jisx0208_2769
ENCODING 10089
SWIDTH 960 0
DWIDTH 12 0
BBX 12 12 0 -2
BITMAP
0000
0000
0000
0000
1BC0
0D80
0D80
0780
0180
03C0
0000
0000
ENDCHAR

STARTCHAR jisx0208_276A
ENCODING 10090
SWIDTH 960 0
DWIDTH 12 0
BBX 12 12 0 -2
BITMAP
0000
0000
0000
0000
35C0
1580
1580
1580
1580
3FC0
0000
0000
ENDCHAR

STARTCHAR jisx0208_276B
ENCODING 10091
SWIDTH 960 0
DWIDTH 12 0
BBX 12 12 0 -2
BITMAP
0000
0000
0000
0000
35C0
1580
1580
1580
1580
3FC0
00C0
0000
ENDCHAR

STARTCHAR jisx0208_276C
ENCODING 10092
SWIDTH 960 0
DWIDTH 12 0
BBX 12 12 0 -2
BITMAP
0000
0000
0000
0000
3E00
2C00
0F80
0CC0
0CC0
1F80
0000
0000
ENDCHAR

STARTCHAR jisx0208_276D
ENCODING 10093
SWIDTH 960 0
DWIDTH 12 0
BBX 12 12 0 -2
BITMAP
0000
0000
0000
0000
3DE0
18C0
1EC0
1AC0
1AC0
3DE0
0000
0000
ENDCHAR

STARTCHAR jisx0208_276E
ENCODING 10094
SWIDTH 960 0
DWIDTH 12 0
BBX 12 12 0 -2
BITMAP
0000
0000
0000
0000
1E00
0C00
0F80
0CC0
0CC0
1F80
0000
0000
ENDCHAR

STARTCHAR jisx0208_276F
ENCODING 10095
SWIDTH 960 0
DWIDTH 12 0
BBX 12 12 0 -2
BITMAP
0000
0000
0000
0000
0F00
1980
0780
0180
1980
0F00
0000
0000
ENDCHAR

STARTCHAR jisx0208_2770
ENCODING 10096
SWIDTH 960 0
DWIDTH 12 0
BBX 12 12 0 -2
BITMAP
0000
0000
0000
0000
3BC0
1660
1E60
1660
1660
3BC0
0000
0000
ENDCHAR

STARTCHAR jisx0208_2771
ENCODING 10097
SWIDTH 960 0
DWIDTH 12 0
BBX 12 12 0 -2
BITMAP
0000
0000
0000
0000
0FC0
1980
1980
0F80
0D80
1BC0
0000
0000
ENDCHAR

STARTCHAR jisx0208_2821
ENCODING 10273
SWIDTH 960 0
DWIDTH 12 0
BBX 12 12 0 -2
BITMAP
0000
0000
0000
0000
0000
FFF0
0000
0000
0000
0000
0000
0000
ENDCHAR

STARTCHAR jisx0208_2822
ENCODING 10274
SWIDTH 960 0
DWIDTH 12 0
BBX 12 12 0 -2
BITMAP
0600
0600
0600
0600
0600
0600
0600
0600
0600
0600
0600
0600
ENDCHAR

STARTCHAR jisx0208_2823
ENCODING 10275
SWIDTH 960 0
DWIDTH 12 0
BBX 12 12 0 -2
BITMAP
0000
0000
0000
0000
0000
07F0
0600
0600
0600
0600
0600
0600
ENDCHAR

STARTCHAR jisx0208_2824
ENCODING 10276
SWIDTH 960 0
DWIDTH 12 0
BBX 12 12 0 -2
BITMAP
0000
0000
0000
0000
0000
FE00
0600
0600
0600
0600
0600
0600
ENDCHAR

STARTCHAR jisx0208_2825
ENCODING 10277
SWIDTH 960 0
DWIDTH 12 0
BBX 12 12 0 -2
BITMAP
0600
0600
0600
0600
0600
FE00
0000
0000
0000
0000
0000
0000
ENDCHAR

STARTCHAR jisx0208_2826
ENCODING 10278
SWIDTH 960 0
DWIDTH 12 0
BBX 12 12 0 -2
BITMAP
0600
0600
0600
0600
0600
07F0
0000
0000
0000
0000
0000
0000
ENDCHAR

STARTCHAR jisx0208_2827
ENCODING 10279
SWIDTH 960 0
DWIDTH 12 0
BBX 12 12 0 -2
BITMAP
0600
0600
0600
0600
0600
07F0
0600
0600
0600
0600
0600
0600
ENDCHAR

STARTCHAR jisx0208_2828
ENCODING 10280
SWIDTH 960 0
DWIDTH 12 0
BBX 12 12 0 -2
BITMAP
0000
0000
0000
0000
0000
FFF0
0600
0600
0600
0600
0600
0600
ENDCHAR

STARTCHAR jisx0208_2829
ENCODING 10281
SWIDTH 960 0
DWIDTH 12 0
BBX 12 12 0 -2
BITMAP
0600
0600
0600
0600
0600
FE00
0600
0600
0600
0600
0600
0600
ENDCHAR

STARTCHAR jisx0208_282A
ENCODING 10282
SWIDTH 960 0
DWIDTH 12 0
BBX 12 12 0 -2
BITMAP
0600
0600
0600
0600
0600
FFF0
0000
0000
0000
0000
0000
0000
ENDCHAR

STARTCHAR jisx0208_282B
ENCODING 10283
SWIDTH 960 0
DWIDTH 12 0
BBX 12 12 0 -2
BITMAP
0600
0600
0600
0600
0600
FFF0
0600
0600
0600
0600
0600
0600
ENDCHAR

STARTCHAR jisx0208_282C
ENCODING 10284
SWIDTH 960 0
DWIDTH 12 0
BBX 12 12 0 -2
BITMAP
0000
0000
0000
0000
0000
FFF0
FFF0
0000
0000
0000
0000
0000
ENDCHAR

STARTCHAR jisx0208_282D
ENCODING 10285
SWIDTH 960 0
DWIDTH 12 0
BBX 12 12 0 -2
BITMAP
0700
0700
0700
0700
0700
0700
0700
0700
0700
0700
0700
0700
ENDCHAR

STARTCHAR jisx0208_282E
ENCODING 10286
SWIDTH 960 0
DWIDTH 12 0
BBX 12 12 0 -2
BITMAP
0000
0000
0000
0000
0000
07F0
07F0
0700
0700
0700
0700
0700
ENDCHAR

STARTCHAR jisx0208_282F
ENCODING 10287
SWIDTH 960 0
DWIDTH 12 0
BBX 12 12 0 -2
BITMAP
0000
0000
0000
0000
0000
FF00
FF00
0700
0700
0700
0700
0700
ENDCHAR

STARTCHAR jisx0208_2830
ENCODING 10288
SWIDTH 960 0
DWIDTH 12 0
BBX 12 12 0 -2
BITMAP
0700
0700
0700
0700
0700
FF00
FF00
0000
0000
0000
0000
0000
ENDCHAR

STARTCHAR jisx0208_2831
ENCODING 10289
SWIDTH 960 0
DWIDTH 12 0
BBX 12 12 0 -2
BITMAP
0700
0700
0700
0700
0700
07F0
07F0
0000
0000
0000
0000
0000
ENDCHAR

STARTCHAR jisx0208_2832
ENCODING 10290
SWIDTH 960 0
DWIDTH 12 0
BBX 12 12 0 -2
BITMAP
0700
0700
0700
0700
0700
07F0
07F0
0700
0700
0700
0700
0700
ENDCHAR

STARTCHAR jisx0208_2833
ENCODING 10291
SWIDTH 960 0
DWIDTH 12 0
BBX 12 12 0 -2
BITMAP
0000
0000
0000
0000
0000
FFF0
FFF0
0700
0700
0700
0700
0700
ENDCHAR

STARTCHAR jisx0208_2834
ENCODING 10292
SWIDTH 960 0
DWIDTH 12 0
BBX 12 12 0 -2
BITMAP
0700
0700
0700
0700
0700
FF00
FF00
0700
0700
0700
0700
0700
ENDCHAR

STARTCHAR jisx0208_2835
ENCODING 10293
SWIDTH 960 0
DWIDTH 12 0
BBX 12 12 0 -2
BITMAP
0700
0700
0700
0700
0700
FFF0
FFF0
0000
0000
0000
0000
0000
ENDCHAR

STARTCHAR jisx0208_2836
ENCODING 10294
SWIDTH 960 0
DWIDTH 12 0
BBX 12 12 0 -2
BITMAP
0700
0700
0700
0700
0700
FFF0
FFF0
0700
0700
0700
0700
0700
ENDCHAR

STARTCHAR jisx0208_2837
ENCODING 10295
SWIDTH 960 0
DWIDTH 12 0
BBX 12 12 0 -2
BITMAP
0700
0700
0700
0700
0700
07F0
0700
0700
0700
0700
0700
0700
ENDCHAR

STARTCHAR jisx0208_2838
ENCODING 10296
SWIDTH 960 0
DWIDTH 12 0
BBX 12 12 0 -2
BITMAP
0000
0000
0000
0000
0000
FFF0
FFF0
0600
0600
0600
0600
0600
ENDCHAR

STARTCHAR jisx0208_2839
ENCODING 10297
SWIDTH 960 0
DWIDTH 12 0
BBX 12 12 0 -2
BITMAP
0700
0700
0700
0700
0700
FF00
0700
0700
0700
0700
0700
0700
ENDCHAR

STARTCHAR jisx0208_283A
ENCODING 10298
SWIDTH 960 0
DWIDTH 12 0
BBX 12 12 0 -2
BITMAP
0600
0600
0600
0600
0600
FFF0
FFF0
0000
0000
0000
0000
0000
ENDCHAR

STARTCHAR jisx0208_283B
ENCODING 10299
SWIDTH 960 0
DWIDTH 12 0
BBX 12 12 0 -2
BITMAP
0600
0600
0600
0600
0600
FFF0
FFF0
0600
0600
0600
0600
0600
ENDCHAR

STARTCHAR jisx0208_283C
ENCODING 10300
SWIDTH 960 0
DWIDTH 12 0
BBX 12 12 0 -2
BITMAP
0600
0600
0600
0600
0600
07F0
07F0
0600
0600
0600
0600
0600
ENDCHAR

STARTCHAR jisx0208_283D
ENCODING 10301
SWIDTH 960 0
DWIDTH 12 0
BBX 12 12 0 -2
BITMAP
0000
0000
0000
0000
0000
FFF0
0700
0700
0700
0700
0700
0700
ENDCHAR

STARTCHAR jisx0208_283E
ENCODING 10302
SWIDTH 960 0
DWIDTH 12 0
BBX 12 12 0 -2
BITMAP
0600
0600
0600
0600
0600
FE00
FE00
0600
0600
0600
0600
0600
ENDCHAR

STARTCHAR jisx0208_283F
ENCODING 10303
SWIDTH 960 0
DWIDTH 12 0
BBX 12 12 0 -2
BITMAP
0700
0700
0700
0700
0700
FFF0
0000
0000
0000
0000
0000
0000
ENDCHAR

STARTCHAR jisx0208_2840
ENCODING 10304
SWIDTH 960 0
DWIDTH 12 0
BBX 12 12 0 -2
BITMAP
0700
0700
0700
0700
0700
FFF0
0700
0700
0700
0700
0700
0700
ENDCHAR

STARTCHAR jisx0208_2D21
ENCODING 11553
SWIDTH 960 0
DWIDTH 12 0
BBX 12 12 0 -2
BITMAP
0000
3F80
60C0
C660
CE60
C660
C660
C660
C660
60C0
3F80
0000
ENDCHAR

STARTCHAR jisx0208_2D22
ENCODING 11554
SWIDTH 960 0
DWIDTH 12 0
BBX 12 12 0 -2
BITMAP
0000
3F80
60C0
CE60
DB60
C360
C660
CC60
DF60
60C0
3F80
0000
ENDCHAR

STARTCHAR jisx0208_2D23
ENCODING 11555
SWIDTH 960 0
DWIDTH 12 0
BBX 12 12 0 -2
BITMAP
0000
3F80
60C0
DE60
B360
CE60
C360
B360
DE60
60C0
3F80
0000
ENDCHAR

STARTCHAR jisx0208_2D24
ENCODING 11556
SWIDTH 960 0
DWIDTH 12 0
BBX 12 12 0 -2
BITMAP
0000
3F80
60C0
C360
C760
CB60
DB60
BF60
C360
60C0
3F80
0000
ENDCHAR

STARTCHAR jisx0208_2D25
ENCODING 11557
SWIDTH 960 0
DWIDTH 12 0
BBX 12 12 0 -2
BITMAP
0000
3F80
60C0
BF60
B060
BE60
C360
B360
DE60
60C0
3F80
0000
ENDCHAR

STARTCHAR jisx0208_2D26
ENCODING 11558
SWIDTH 960 0
DWIDTH 12 0
BBX 12 12 0 -2
BITMAP
0000
3F80
60C0
DF60
B060
BE60
B360
B360
DE60
60C0
3F80
0000
ENDCHAR

STARTCHAR jisx0208_2D27
ENCODING 11559
SWIDTH 960 0
DWIDTH 12 0
BBX 12 12 0 -2
BITMAP
0000
3F80
60C0
BF60
C660
CC60
CC60
CC60
CC60
60C0
3F80
0000
ENDCHAR

STARTCHAR jisx0208_2D28
ENCODING 11560
SWIDTH 960 0
DWIDTH 12 0
BBX 12 12 0 -2
BITMAP
0000
3F80
60C0
DE60
B360
DE60
B360
B360
DE60
60C0
3F80
0000
ENDCHAR

STARTCHAR jisx0208_2D29
ENCODING 11561
SWIDTH 960 0
DWIDTH 12 0
BBX 12 12 0 -2
BITMAP
0000
3F80
60C0
DE60
B360
B360
DF60
C360
BE60
60C0
3F80
0000
ENDCHAR

STARTCHAR jisx0208_2D2A
ENCODING 11562
SWIDTH 960 0
DWIDTH 12 0
BBX 12 12 0 -2
BITMAP
0000
3F80
60C0
B760
ED60
AD60
AD60
AD60
B760
60C0
3F80
0000
ENDCHAR

STARTCHAR jisx0208_2D2B
ENCODING 11563
SWIDTH 960 0
DWIDTH 12 0
BBX 12 12 0 -2
BITMAP
0000
3F80
60C0
B360
F760
B360
B360
B360
B360
60C0
3F80
0000
ENDCHAR

STARTCHAR jisx0208_2D2C
ENCODING 11564
SWIDTH 960 0
DWIDTH 12 0
BBX 12 12 0 -2
BITMAP
0000
3F80
60C0
B760
ED60
B160
B360
B660
AF60
60C0
3F80
0000
ENDCHAR

STARTCHAR jisx0208_2D2D
ENCODING 11565
SWIDTH 960 0
DWIDTH 12 0
BBX 12 12 0 -2
BITMAP
0000
3F80
60C0
B760
ED60
B360
B160
AD60
B760
60C0
3F80
0000
ENDCHAR

STARTCHAR jisx0208_2D2E
ENCODING 11566
SWIDTH 960 0
DWIDTH 12 0
BBX 12 12 0 -2
BITMAP
0000
3F80
60C0
B160
F360
B360
B560
AFE0
B160
60C0
3F80
0000
ENDCHAR

STARTCHAR jisx0208_2D2F
ENCODING 11567
SWIDTH 960 0
DWIDTH 12 0
BBX 12 12 0 -2
BITMAP
0000
3F80
60C0
AF60
EC60
AF60
B160
AD60
B760
60C0
3F80
0000
ENDCHAR

STARTCHAR jisx0208_2D30
ENCODING 11568
SWIDTH 960 0
DWIDTH 12 0
BBX 12 12 0 -2
BITMAP
0000
3F80
60C0
B760
EC60
AF60
AD60
AD60
B760
60C0
3F80
0000
ENDCHAR

STARTCHAR jisx0208_2D31
ENCODING 11569
SWIDTH 960 0
DWIDTH 12 0
BBX 12 12 0 -2
BITMAP
0000
3F80
60C0
AF60
F360
B660
B660
B660
B660
60C0
3F80
0000
ENDCHAR

STARTCHAR jisx0208_2D32
ENCODING 11570
SWIDTH 960 0
DWIDTH 12 0
BBX 12 12 0 -2
BITMAP
0000
3F80
60C0
B760
ED60
B760
AD60
AD60
B760
60C0
3F80
0000
ENDCHAR

STARTCHAR jisx0208_2D33
ENCODING 11571
SWIDTH 960 0
DWIDTH 12 0
BBX 12 12 0 -2
BITMAP
0000
3F80
60C0
B760
ED60
AD60
B760
B160
AF60
60C0
3F80
0000
ENDCHAR

STARTCHAR jisx0208_2D34
ENCODING 11572
SWIDTH 960 0
DWIDTH 12 0
BBX 12 12 0 -2
BITMAP
0000
3F80
60C0
BB60
EEE0
CEE0
D6E0
B6E0
FB60
60C0
3F80
0000
ENDCHAR

STARTCHAR jisx0208_2D35
ENCODING 11573
SWIDTH 960 0
DWIDTH 12 0
BBX 12 12 0 -2
BITMAP
0000
0000
0C00
0C00
0C00
0C00
0C00
0C00
0C00
0C00
0000
0000
ENDCHAR

STARTCHAR jisx0208_2D36
ENCODING 11574
SWIDTH 960 0
DWIDTH 12 0
BBX 12 12 0 -2
BITMAP
0000
0000
1B00
1B00
1B00
1B00
1B00
1B00
1B00
1B00
0000
0000
ENDCHAR

STARTCHAR jisx0208_2D37
ENCODING 11575
SWIDTH 960 0
DWIDTH 12 0
BBX 12 12 0 -2
BITMAP
0000
0000
6D80
6D80
6D80
6D80
6D80
6D80
6D80
6D80
0000
0000
ENDCHAR

STARTCHAR jisx0208_2D38
ENCODING 11576
SWIDTH 960 0
DWIDTH 12 0
BBX 12 12 0 -2
BITMAP
0000
0000
58C0
58C0
6D80
6D80
6D80
6700
6700
6700
0000
0000
ENDCHAR

STARTCHAR jisx0208_2D39
ENCODING 11577
SWIDTH 960 0
DWIDTH 12 0
BBX 12 12 0 -2
BITMAP
0000
0000
6180
6180
3300
3300
1600
1600
0C00
0C00
0000
0000
ENDCHAR

STARTCHAR jisx0208_2D3A
ENCODING 11578
SWIDTH 960 0
DWIDTH 12 0
BBX 12 12 0 -2
BITMAP
0000
0000
62C0
62C0
36C0
36C0
36C0
1CC0
1CC0
1CC0
0000
0000
ENDCHAR

STARTCHAR jisx0208_2D3B
ENCODING 11579
SWIDTH 960 0
DWIDTH 12 0
BBX 12 12 0 -2
BITMAP
0000
0000
CAC0
CAC0
CAC0
5AC0
5AC0
5AC0
32C0
32C0
0000
0000
ENDCHAR

STARTCHAR jisx0208_2D3C
ENCODING 11580
SWIDTH 960 0
DWIDTH 12 0
BBX 12 12 0 -2
BITMAP
0000
0000
D560
D560
D560
D560
D560
7560
7560
7560
0000
0000
ENDCHAR

STARTCHAR jisx0208_2D3D
ENCODING 11581
SWIDTH 960 0
DWIDTH 12 0
BBX 12 12 0 -2
BITMAP
0000
0000
6CC0
6580
6580
6300
6300
6580
6580
6CC0
0000
0000
ENDCHAR

STARTCHAR jisx0208_2D3E
ENCODING 11582
SWIDTH 960 0
DWIDTH 12 0
BBX 12 12 0 -2
BITMAP
0000
0000
3180
3180
1B00
0E00
0E00
1B00
3180
3180
0000
0000
ENDCHAR

STARTCHAR jisx0208_2D40
ENCODING 11584
SWIDTH 960 0
DWIDTH 12 0
BBX 12 12 0 -2
BITMAP
0000
7800
0000
7800
0000
FC00
0360
0360
0360
0060
01C0
0000
ENDCHAR

STARTCHAR jisx0208_2D41
ENCODING 11585
SWIDTH 960 0
DWIDTH 12 0
BBX 12 12 0 -2
BITMAP
0000
3000
FC00
3000
FC00
3000
0000
03E0
0360
0360
03E0
0000
ENDCHAR

STARTCHAR jisx0208_2D42
ENCODING 11586
SWIDTH 960 0
DWIDTH 12 0
BBX 12 12 0 -2
BITMAP
0000
7B80
EC60
60C0
7B80
0000
7800
3000
FC00
3000
6000
0000
ENDCHAR

STARTCHAR jisx0208_2D43
ENCODING 11587
SWIDTH 960 0
DWIDTH 12 0
BBX 12 12 0 -2
BITMAP
0000
1800
5800
33E0
5800
C000
6180
6380
7B80
6360
65C0
0000
ENDCHAR

STARTCHAR jisx0208_2D44
ENCODING 11588
SWIDTH 960 0
DWIDTH 12 0
BBX 12 12 0 -2
BITMAP
0000
5BC0
7800
DBE0
3060
E3C0
0000
6000
5800
DC00
EC00
0000
ENDCHAR

STARTCHAR jisx0208_2D45
ENCODING 11589
SWIDTH 960 0
DWIDTH 12 0
BBX 12 12 0 -2
BITMAP
0000
6000
6000
7800
6000
6000
6000
0700
0060
00C0
0780
0000
ENDCHAR

STARTCHAR jisx0208_2D46
ENCODING 11590
SWIDTH 960 0
DWIDTH 12 0
BBX 12 12 0 -2
BITMAP
0000
FC00
0C00
3BE0
3000
6000
3000
7000
7000
6C00
B800
0000
ENDCHAR

STARTCHAR jisx0208_2D47
ENCODING 11591
SWIDTH 960 0
DWIDTH 12 0
BBX 12 12 0 -2
BITMAP
0000
0180
61E0
B360
18C0
0B80
60C0
79C0
DDC0
31E0
E2C0
0000
ENDCHAR

STARTCHAR jisx0208_2D48
ENCODING 11592
SWIDTH 960 0
DWIDTH 12 0
BBX 12 12 0 -2
BITMAP
0000
D800
D800
DB60
1860
71C0
6180
6380
7B80
6360
65C0
0000
ENDCHAR

STARTCHAR jisx0208_2D49
ENCODING 11593
SWIDTH 960 0
DWIDTH 12 0
BBX 12 12 0 -2
BITMAP
0000
FC00
CC00
CB60
1860
71C0
6000
6000
7800
6000
6000
0000
ENDCHAR

STARTCHAR jisx0208_2D4A
ENCODING 11594
SWIDTH 960 0
DWIDTH 12 0
BBX 12 12 0 -2
BITMAP
0000
6000
FBE0
6B60
6B60
DBE0
0000
D800
DBE0
1800
7000
0000
ENDCHAR

STARTCHAR jisx0208_2D4B
ENCODING 11595
SWIDTH 960 0
DWIDTH 12 0
BBX 12 12 0 -2
BITMAP
0000
5600
6000
7800
6000
6000
0180
0380
0380
0360
05C0
0000
ENDCHAR

STARTCHAR jisx0208_2D4C
ENCODING 11596
SWIDTH 960 0
DWIDTH 12 0
BBX 12 12 0 -2
BITMAP
0000
7B80
EC60
60C0
7B80
0000
3000
3000
3C00
3000
3000
0000
ENDCHAR

STARTCHAR jisx0208_2D4D
ENCODING 11597
SWIDTH 960 0
DWIDTH 12 0
BBX 12 12 0 -2
BITMAP
0000
0E00
5E00
6DE0
CC00
0000
CCC0
F2C0
B2E0
C2C0
EEC0
0000
ENDCHAR

STARTCHAR jisx0208_2D4E
ENCODING 11598
SWIDTH 960 0
DWIDTH 12 0
BBX 12 12 0 -2
BITMAP
0000
7360
7360
0360
F860
01C0
1CC0
B1C0
DDC0
D9E0
DAC0
0000
ENDCHAR

STARTCHAR jisx0208_2D4F
ENCODING 11599
SWIDTH 960 0
DWIDTH 12 0
BBX 12 12 0 -2
BITMAP
0000
5C00
BC00
1BE0
0C00
0000
DC00
0000
EC00
1800
F000
0000
ENDCHAR

STARTCHAR jisx0208_2D50
ENCODING 11600
SWIDTH 960 0
DWIDTH 12 0
BBX 12 12 0 -2
BITMAP
0000
0000
0000
0000
D6C0
AD60
AD60
AD60
AD60
AD60
0000
0000
ENDCHAR

STARTCHAR jisx0208_2D51
ENCODING 11601
SWIDTH 960 0
DWIDTH 12 0
BBX 12 12 0 -2
BITMAP
0000
0000
0000
0000
76C0
D560
C560
C560
D560
7560
0000
0000
ENDCHAR

STARTCHAR jisx0208_2D52
ENCODING 11602
SWIDTH 960 0
DWIDTH 12 0
BBX 12 12 0 -2
BITMAP
0000
0000
C000
C000
D6C0
B560
E560
B560
D560
D560
0000
0000
ENDCHAR

STARTCHAR jisx0208_2D53
ENCODING 11603
SWIDTH 960 0
DWIDTH 12 0
BBX 12 12 0 -2
BITMAP
0000
0000
0000
0000
D9E0
AB60
AB60
ADE0
AC60
AB60
01C0
0000
ENDCHAR

STARTCHAR jisx0208_2D54
ENCODING 11604
SWIDTH 960 0
DWIDTH 12 0
BBX 12 12 0 -2
BITMAP
0000
0000
C000
C000
DBC0
B6C0
E6C0
B3C0
D8C0
D6C0
0380
0000
ENDCHAR

STARTCHAR jisx0208_2D55
ENCODING 11605
SWIDTH 960 0
DWIDTH 12 0
BBX 12 12 0 -2
BITMAP
0000
0000
0000
0000
7380
D6C0
C600
C600
D6C0
7380
0000
0000
ENDCHAR

STARTCHAR jisx0208_2D56
ENCODING 11606
SWIDTH 960 0
DWIDTH 12 0
BBX 12 12 0 -2
BITMAP
0000
00E0
0160
00C0
77E0
6D80
6D80
6D80
6D80
6D80
0000
0000
ENDCHAR

STARTCHAR jisx0208_2D5F
ENCODING 11615
SWIDTH 960 0
DWIDTH 12 0
BBX 12 12 0 -2
BITMAP
0000
FD60
3180
AFE0
AD80
3760
FD60
35C0
3780
3560
2AE0
0000
ENDCHAR

STARTCHAR jisx0208_2D60
ENCODING 11616
SWIDTH 960 0
DWIDTH 12 0
BBX 12 12 0 -2
BITMAP
0000
0160
02C0
0000
0000
0000
0000
0000
0000
0000
0000
0000
ENDCHAR

STARTCHAR jisx0208_2D61
ENCODING 11617
SWIDTH 960 0
DWIDTH 12 0
BBX 12 12 0 -2
BITMAP
0000
0000
0000
0000
0000
0000
0000
0000
0000
5800
B000
0000
ENDCHAR

STARTCHAR jisx0208_2D62
ENCODING 11618
SWIDTH 960 0
DWIDTH 12 0
BBX 12 12 0 -2
BITMAP
0000
0000
D800
D800
DB80
D6C0
B6C0
B6C0
D6E0
DB60
0000
0000
ENDCHAR

STARTCHAR jisx0208_2D63
ENCODING 11619
SWIDTH 960 0
DWIDTH 12 0
BBX 12 12 0 -2
BITMAP
0000
0000
D6C0
B580
B580
E700
B580
B580
DEE0
DEE0
0000
0000
ENDCHAR

STARTCHAR jisx0208_2D64
ENCODING 11620
SWIDTH 960 0
DWIDTH 12 0
BBX 12 12 0 -2
BITMAP
0000
0000
FF80
6D80
6D80
6F80
6D80
6D80
6D80
6FE0
0000
0000
ENDCHAR

STARTCHAR jisx0208_2D65
ENCODING 11621
SWIDTH 960 0
DWIDTH 12 0
BBX 12 12 0 -2
BITMAP
0000
3F80
60C0
CC60
CC60
CF60
CC60
CC60
FFE0
60C0
3F80
0000
ENDCHAR

STARTCHAR jisx0208_2D66
ENCODING 11622
SWIDTH 960 0
DWIDTH 12 0
BBX 12 12 0 -2
BITMAP
0000
3F80
6CC0
CC60
BF60
AD60
AD60
BF60
CC60
6CC0
3F80
0000
ENDCHAR

STARTCHAR jisx0208_2D67
ENCODING 11623
SWIDTH 960 0
DWIDTH 12 0
BBX 12 12 0 -2
BITMAP
0000
3F80
60C0
FFE0
CC60
CE60
CB60
CC60
CC60
6CC0
3F80
0000
ENDCHAR

STARTCHAR jisx0208_2D68
ENCODING 11624
SWIDTH 960 0
DWIDTH 12 0
BBX 12 12 0 -2
BITMAP
0000
3F80
6CC0
FF60
D860
DF60
B660
E660
DF60
60C0
3F80
0000
ENDCHAR

STARTCHAR jisx0208_2D69
ENCODING 11625
SWIDTH 960 0
DWIDTH 12 0
BBX 12 12 0 -2
BITMAP
0000
3F80
6CC0
FFE0
D860
DF60
B960
D960
DF60
60C0
3F80
0000
ENDCHAR

STARTCHAR jisx0208_2D6A
ENCODING 11626
SWIDTH 960 0
DWIDTH 12 0
BBX 12 12 0 -2
BITMAP
0000
60C0
AB60
FFE0
AB60
EFE0
FB60
B760
AAE0
BB60
72C0
0000
ENDCHAR

STARTCHAR jisx0208_2D6B
ENCODING 11627
SWIDTH 960 0
DWIDTH 12 0
BBX 12 12 0 -2
BITMAP
0000
6CC0
FFE0
D860
DF60
B960
BF60
D960
DF60
D960
5BC0
0000
ENDCHAR

STARTCHAR jisx0208_2D6C
ENCODING 11628
SWIDTH 960 0
DWIDTH 12 0
BBX 12 12 0 -2
BITMAP
0000
60C0
D560
D660
AF60
F660
B660
B560
B560
B360
60C0
0000
ENDCHAR

STARTCHAR jisx0208_2D6D
ENCODING 11629
SWIDTH 960 0
DWIDTH 12 0
BBX 12 12 0 -2
BITMAP
0000
3EC0
EAC0
AD80
BD60
EBE0
AC00
BBE0
EB60
2D60
5DE0
0000
ENDCHAR

STARTCHAR jisx0208_2D6E
ENCODING 11630
SWIDTH 960 0
DWIDTH 12 0
BBX 12 12 0 -2
BITMAP
0000
37E0
3180
FD80
3180
35E0
3580
5580
5580
5580
CFE0
0000
ENDCHAR

STARTCHAR jisx0208_2D6F
ENCODING 11631
SWIDTH 960 0
DWIDTH 12 0
BBX 12 12 0 -2
BITMAP
0000
FD80
AF00
ABE0
EF60
BB60
B760
BF60
EB60
2BE0
3B00
0000
ENDCHAR

STARTCHAR jisx0208_2D70
ENCODING 11632
SWIDTH 960 0
DWIDTH 12 0
BBX 12 12 0 -2
BITMAP
0000
0000
3800
0000
7F80
0000
7F80
0000
0700
0000
0000
0000
ENDCHAR

STARTCHAR jisx0208_2D71
ENCODING 11633
SWIDTH 960 0
DWIDTH 12 0
BBX 12 12 0 -2
BITMAP
0000
0000
0000
7F80
0000
7F80
0000
7F80
0000
0000
0000
0000
ENDCHAR

STARTCHAR jisx0208_2D72
ENCODING 11634
SWIDTH 960 0
DWIDTH 12 0
BBX 12 12 0 -2
BITMAP
0000
0600
0B00
0C00
0C00
0C00
0600
0600
0600
1600
0C00
0000
ENDCHAR

STARTCHAR jisx0208_2D73
ENCODING 11635
SWIDTH 960 0
DWIDTH 12 0
BBX 12 12 0 -2
BITMAP
0000
0600
0B00
0C00
0F00
1580
1580
0F00
0600
1600
0C00
0000
ENDCHAR

STARTCHAR jisx0208_2D74
ENCODING 11636
SWIDTH 960 0
DWIDTH 12 0
BBX 12 12 0 -2
BITMAP
0000
0000
3F80
1800
0C00
0600
0600
0C00
1800
3F80
0000
0000
ENDCHAR

STARTCHAR jisx0208_2D75
ENCODING 11637
SWIDTH 960 0
DWIDTH 12 0
BBX 12 12 0 -2
BITMAP
0000
07E0
0600
0600
0C00
0C00
6C00
5800
B800
1800
0000
0000
ENDCHAR

STARTCHAR jisx0208_2D76
ENCODING 11638
SWIDTH 960 0
DWIDTH 12 0
BBX 12 12 0 -2
BITMAP
0000
0000
0C00
0C00
0C00
0C00
0C00
0C00
7F80
0000
0000
0000
ENDCHAR

STARTCHAR jisx0208_2D77
ENCODING 11639
SWIDTH 960 0
DWIDTH 12 0
BBX 12 12 0 -2
BITMAP
0000
0000
0180
0300
0600
0C00
1800
3000
7F80
0000
0000
0000
ENDCHAR

STARTCHAR jisx0208_2D78
ENCODING 11640
SWIDTH 960 0
DWIDTH 12 0
BBX 12 12 0 -2
BITMAP
0000
0000
6000
6000
6000
6000
6000
6000
7F80
0000
0000
0000
ENDCHAR

STARTCHAR jisx0208_2D79
ENCODING 11641
SWIDTH 960 0
DWIDTH 12 0
BBX 12 12 0 -2
BITMAP
0000
0000
0180
0380
0580
0D80
1980
3180
7F80
0000
0000
0000
ENDCHAR

STARTCHAR jisx0208_2D7A
ENCODING 11642
SWIDTH 960 0
DWIDTH 12 0
BBX 12 12 0 -2
BITMAP
0000
0000
6180
6180
0000
0000
0000
0C00
0C00
0000
0000
0000
ENDCHAR

STARTCHAR jisx0208_2D7B
ENCODING 11643
SWIDTH 960 0
DWIDTH 12 0
BBX 12 12 0 -2
BITMAP
0000
0000
1F00
3180
3180
3180
3180
3180
3180
0000
0000
0000
ENDCHAR

STARTCHAR jisx0208_2D7C
ENCODING 11644
SWIDTH 960 0
DWIDTH 12 0
BBX 12 12 0 -2
BITMAP
0000
0000
3180
3180
3180
3180
3180
3180
1F00
0000
0000
0000
ENDCHAR

STARTCHAR jisx0208_3021
ENCODING 12321
SWIDTH 960 0
DWIDTH 12 0
BBX 12 12 0 -2
BITMAP
0000
7FF0
0D80
0D80
3FE0
2D60
2D60
3FE0
0D80
0D80
7FF0
0000
ENDCHAR

STARTCHAR jisx0208_3022
ENCODING 12322
SWIDTH 960 0
DWIDTH 12 0
BBX 12 12 0 -2
BITMAP
0000
0FF0
7AC0
5AC0
5FF0
5AB0
5AB0
5FF0
7AC0
02C0
1FF0
0000
ENDCHAR

STARTCHAR jisx0208_3023
ENCODING 12323
SWIDTH 960 0
DWIDTH 12 0
BBX 12 12 0 -2
BITMAP
0000
3180
37E0
7980
5980
57F0
5980
57E0
3180
3980
6FF0
0000
ENDCHAR

STARTCHAR jisx0208_3024
ENCODING 12324
SWIDTH 960 0
DWIDTH 12 0
BBX 12 12 0 -2
BITMAP
0000
77F0
5860
5860
7760
5560
5560
5760
7060
6060
60E0
0000
ENDCHAR

STARTCHAR jisx0208_3025
ENCODING 12325
SWIDTH 960 0
DWIDTH 12 0
BBX 12 12 0 -2
BITMAP
0000
0600
7FF0
18C0
18C0
1FC0
0600
1B60
79C0
16C0
3C70
0000
ENDCHAR

STARTCHAR jisx0208_3026
ENCODING 12326
SWIDTH 960 0
DWIDTH 12 0
BBX 12 12 0 -2
BITMAP
0000
3FE0
16C0
7FF0
6CB0
2F60
6C00
1FC0
6D80
0700
7DF0
0000
ENDCHAR

STARTCHAR jisx0208_3027
ENCODING 12327
SWIDTH 960 0
DWIDTH 12 0
BBX 12 12 0 -2
BITMAP
0000
3180
3360
77B0
3000
3B00
77E0
3180
37F0
32C0
6E70
0000
ENDCHAR

STARTCHAR jisx0208_3028
ENCODING 12328
SWIDTH 960 0
DWIDTH 12 0
BBX 12 12 0 -2
BITMAP
0000
3180
32C0
7660
5BB0
5800
5800
57E0
3660
3660
67E0
0000
ENDCHAR

STARTCHAR jisx0208_3029
ENCODING 12329
SWIDTH 960 0
DWIDTH 12 0
BBX 12 12 0 -2
BITMAP
0000
63C0
2EC0
03C0
0E70
7180
37E0
3180
37E0
3980
6FF0
0000
ENDCHAR

STARTCHAR jisx0208_302A
ENCODING 12330
SWIDTH 960 0
DWIDTH 12 0
BBX 12 12 0 -2
BITMAP
0000
0D80
7FF0
0D80
3F60
18C0
6F70
0600
3FE0
0B00
79F0
0000
ENDCHAR

STARTCHAR jisx0208_302B
ENCODING 12331
SWIDTH 960 0
DWIDTH 12 0
BBX 12 12 0 -2
BITMAP
0000
0D80
7FF0
0D80
7FF0
0B00
3FE0
2B60
3BE0
3060
3FE0
0000
ENDCHAR

STARTCHAR jisx0208_302C
ENCODING 12332
SWIDTH 960 0
DWIDTH 12 0
BBX 12 12 0 -2
BITMAP
0000
1BC0
76C0
2FE0
7560
37F0
75B0
75B0
37F0
3180
31F0
0000
ENDCHAR

STARTCHAR jisx0208_302D
ENCODING 12333
SWIDTH 960 0
DWIDTH 12 0
BBX 12 12 0 -2
BITMAP
0000
7FF0
0D80
3FE0
2D60
3FE0
0D80
7FF0
0300
2C60
6FB0
0000
ENDCHAR

STARTCHAR jisx0208_302E
ENCODING 12334
SWIDTH 960 0
DWIDTH 12 0
BBX 12 12 0 -2
BITMAP
0000
37F0
3630
77F0
3600
37F0
7560
36B0
35E0
2CC0
6BF0
0000
ENDCHAR

STARTCHAR jisx0208_302F
ENCODING 12335
SWIDTH 960 0
DWIDTH 12 0
BBX 12 12 0 -2
BITMAP
0000
6FF0
2C30
0FF0
6C00
2FF0
0B60
2DB0
2BE0
58C0
57F0
0000
ENDCHAR

STARTCHAR jisx0208_3030
ENCODING 12336
SWIDTH 960 0
DWIDTH 12 0
BBX 12 12 0 -2
BITMAP
0000
3000
33E0
7B60
2B60
2BE0
2B60
2B60
2BE0
6C30
6FF0
0000
ENDCHAR

STARTCHAR jisx0208_3031
ENCODING 12337
SWIDTH 960 0
DWIDTH 12 0
BBX 12 12 0 -2
BITMAP
0000
0D80
7FF0
3FC0
0CC0
7FF0
18C0
3FE0
3300
7FF0
0300
0000
ENDCHAR

STARTCHAR jisx0208_3032
ENCODING 12338
SWIDTH 960 0
DWIDTH 12 0
BBX 12 12 0 -2
BITMAP
0000
0D80
7FF0
0D80
7FF0
0000
3FE0
3060
3FE0
3000
6000
0000
ENDCHAR

STARTCHAR jisx0208_3033
ENCODING 12339
SWIDTH 960 0
DWIDTH 12 0
BBX 12 12 0 -2
BITMAP
0000
3D60
6BF0
7EC0
57F0
7D60
56B0
7D60
00B0
5660
55C0
0000
ENDCHAR

STARTCHAR jisx0208_3034
ENCODING 12340
SWIDTH 960 0
DWIDTH 12 0
BBX 12 12 0 -2
BITMAP
0000
3180
37F0
7660
32C0
77F0
7180
3180
37F0
3180
3180
0000
ENDCHAR

STARTCHAR jisx0208_3035
ENCODING 12341
SWIDTH 960 0
DWIDTH 12 0
BBX 12 12 0 -2
BITMAP
0000
3FE0
3000
3300
3300
3300
2FC0
3300
3300
6300
5FE0
0000
ENDCHAR

STARTCHAR jisx0208_3036
ENCODING 12342
SWIDTH 960 0
DWIDTH 12 0
BBX 12 12 0 -2
BITMAP
0000
18C0
7D60
1B30
7D60
6B60
7D60
1870
7BE0
1860
1860
0000
ENDCHAR

STARTCHAR jisx0208_3037
ENCODING 12343
SWIDTH 960 0
DWIDTH 12 0
BBX 12 12 0 -2
BITMAP
0000
2FC0
36C0
76C0
36F0
3630
7760
3560
36C0
2D60
6B30
0000
ENDCHAR

STARTCHAR jisx0208_3038
ENCODING 12344
SWIDTH 960 0
DWIDTH 12 0
BBX 12 12 0 -2
BITMAP
0000
0600
7FF0
6030
33E0
3B60
6B60
2AE0
1B00
3330
63F0
0000
ENDCHAR

STARTCHAR jisx0208_3039
ENCODING 12345
SWIDTH 960 0
DWIDTH 12 0
BBX 12 12 0 -2
BITMAP
0000
33E0
3360
7B60
2BE0
2B60
6B60
5BE0
3B60
2B60
67F0
0000
ENDCHAR

STARTCHAR jisx0208_303A
ENCODING 12346
SWIDTH 960 0
DWIDTH 12 0
BBX 12 12 0 -2
BITMAP
0000
30C0
30C0
7BF0
6B00
6B00
7B00
3300
2B00
2B00
75F0
0000
ENDCHAR

STARTCHAR jisx0208_303B
ENCODING 12347
SWIDTH 960 0
DWIDTH 12 0
BBX 12 12 0 -2
BITMAP
0000
18C0
2CC0
59B0
3BF0
2C00
2C00
3DF0
31B0
2DB0
75F0
0000
ENDCHAR

STARTCHAR jisx0208_303C
ENCODING 12348
SWIDTH 960 0
DWIDTH 12 0
BBX 12 12 0 -2
BITMAP
0000
3300
6BF0
3630
33B0
7AB0
1BB0
5AB0
5BB0
5830
18E0
0000
ENDCHAR

STARTCHAR jisx0208_303D
ENCODING 12349
SWIDTH 960 0
DWIDTH 12 0
BBX 12 12 0 -2
BITMAP
0000
3180
6BE0
3980
37F0
7AC0
1770
5BE0
5760
59C0
1770
0000
ENDCHAR

STARTCHAR jisx0208_303E
ENCODING 12350
SWIDTH 960 0
DWIDTH 12 0
BBX 12 12 0 -2
BITMAP
0000
3CC0
6CC0
7EF0
56C0
7EC0
55F0
7DB0
01B0
55B0
55F0
0000
ENDCHAR

STARTCHAR jisx0208_303F
ENCODING 12351
SWIDTH 960 0
DWIDTH 12 0
BBX 12 12 0 -2
BITMAP
0000
02C0
0360
7FF0
0300
3B60
2B60
3DC0
01B0
1AB0
7670
0000
ENDCHAR

STARTCHAR jisx0208_3040
ENCODING 12352
SWIDTH 960 0
DWIDTH 12 0
BBX 12 12 0 -2
BITMAP
0000
7FF0
0D80
3FE0
2D60
3FE0
36C0
1580
7FF0
16C0
7670
0000
ENDCHAR

STARTCHAR jisx0208_3041
ENCODING 12353
SWIDTH 960 0
DWIDTH 12 0
BBX 12 12 0 -2
BITMAP
0000
31C0
3360
7630
1BE0
2C00
7800
2BE0
3360
3360
33E0
0000
ENDCHAR

STARTCHAR jisx0208_3042
ENCODING 12354
SWIDTH 960 0
DWIDTH 12 0
BBX 12 12 0 -2
BITMAP
0000
0600
7FF0
6630
0C00
7FF0
0D80
1980
1F00
05C0
7C60
0000
ENDCHAR

STARTCHAR jisx0208_3043
ENCODING 12355
SWIDTH 960 0
DWIDTH 12 0
BBX 12 12 0 -2
BITMAP
0000
0300
3FF0
3600
3FF0
2AC0
2FE0
3AB0
2FC0
6330
63F0
0000
ENDCHAR

STARTCHAR jisx0208_3044
ENCODING 12356
SWIDTH 960 0
DWIDTH 12 0
BBX 12 12 0 -2
BITMAP
0000
3180
37F0
7630
3180
37F0
7360
3360
33C0
3160
7730
0000
ENDCHAR

STARTCHAR jisx0208_3045
ENCODING 12357
SWIDTH 960 0
DWIDTH 12 0
BBX 12 12 0 -2
BITMAP
0000
0180
77F0
5B60
57F0
7800
5BE0
5B60
7BE0
0360
03E0
0000
ENDCHAR

STARTCHAR jisx0208_3046
ENCODING 12358
SWIDTH 960 0
DWIDTH 12 0
BBX 12 12 0 -2
BITMAP
0000
0600
7FF0
6C30
3FE0
1980
0F00
7FF0
0D80
16C0
7670
0000
ENDCHAR

STARTCHAR jisx0208_3047
ENCODING 12359
SWIDTH 960 0
DWIDTH 12 0
BBX 12 12 0 -2
BITMAP
0000
7DF0
6DB0
7DF0
6630
5FB0
6DB0
5FB0
6FB0
6DB0
6F70
0000
ENDCHAR

STARTCHAR jisx0208_3048
ENCODING 12360
SWIDTH 960 0
DWIDTH 12 0
BBX 12 12 0 -2
BITMAP
0000
2CC0
7FF0
2B30
18C0
7FF0
5560
7D60
19C0
7EE0
1BB0
0000
ENDCHAR

STARTCHAR jisx0208_3049
ENCODING 12361
SWIDTH 960 0
DWIDTH 12 0
BBX 12 12 0 -2
BITMAP
0000
0600
7FF0
0D80
16C0
7670
0000
3FE0
3060
3060
3FE0
0000
ENDCHAR

STARTCHAR jisx0208_304A
ENCODING 12362
SWIDTH 960 0
DWIDTH 12 0
BBX 12 12 0 -2
BITMAP
0000
3060
3660
3360
3360
3060
3060
30C0
2EC0
7960
0730
0000
ENDCHAR

STARTCHAR jisx0208_304B
ENCODING 12363
SWIDTH 960 0
DWIDTH 12 0
BBX 12 12 0 -2
BITMAP
0000
17E0
1B60
2FF0
3360
7360
2FE0
3300
3300
3300
3600
0000
ENDCHAR

STARTCHAR jisx0208_304C
ENCODING 12364
SWIDTH 960 0
DWIDTH 12 0
BBX 12 12 0 -2
BITMAP
0000
1980
17F0
3000
3660
7360
3360
3360
32C0
30C0
2FF0
0000
ENDCHAR

STARTCHAR jisx0208_304D
ENCODING 12365
SWIDTH 960 0
DWIDTH 12 0
BBX 12 12 0 -2
BITMAP
0000
1980
17F0
3180
32C0
76B0
2EE0
36C0
3660
3760
2E30
0000
ENDCHAR

STARTCHAR jisx0208_304E
ENCODING 12366
SWIDTH 960 0
DWIDTH 12 0
BBX 12 12 0 -2
BITMAP
0000
1980
17E0
3360
2FF0
7360
37F0
36C0
2FF0
30C0
30C0
0000
ENDCHAR

STARTCHAR jisx0208_304F
ENCODING 12367
SWIDTH 960 0
DWIDTH 12 0
BBX 12 12 0 -2
BITMAP
0000
7FF0
6030
6DB0
5FB0
6DB0
5FB0
6DB0
59B0
6030
7FF0
0000
ENDCHAR

STARTCHAR jisx0208_3050
ENCODING 12368
SWIDTH 960 0
DWIDTH 12 0
BBX 12 12 0 -2
BITMAP
0000
0600
7FF0
0660
3FE0
3600
3FF0
0630
0B70
19C0
7070
0000
ENDCHAR

STARTCHAR jisx0208_3051
ENCODING 12369
SWIDTH 960 0
DWIDTH 12 0
BBX 12 12 0 -2
BITMAP
0000
3FC0
0600
7FF0
1580
76F0
0C00
7FF0
1980
0F80
78E0
0000
ENDCHAR

STARTCHAR jisx0208_3052
ENCODING 12370
SWIDTH 960 0
DWIDTH 12 0
BBX 12 12 0 -2
BITMAP
0000
0160
3FF0
3180
3F60
2D60
3F60
36C0
36B0
6D70
5730
0000
ENDCHAR

STARTCHAR jisx0208_3053
ENCODING 12371
SWIDTH 960 0
DWIDTH 12 0
BBX 12 12 0 -2
BITMAP
0000
3F60
3360
3FF0
3060
3F60
3160
3EE0
2B60
6B60
5CE0
0000
ENDCHAR

STARTCHAR jisx0208_3054
ENCODING 12372
SWIDTH 960 0
DWIDTH 12 0
BBX 12 12 0 -2
BITMAP
0000
19B0
1B60
57F0
5AC0
5BF0
1AC0
1BF0
1AC0
1AC0
1BF0
0000
ENDCHAR

STARTCHAR jisx0208_3055
ENCODING 12373
SWIDTH 960 0
DWIDTH 12 0
BBX 12 12 0 -2
BITMAP
0000
0600
3FE0
0D80
7FF0
1FC0
18C0
1FC0
2B60
2CB0
6FB0
0000
ENDCHAR

STARTCHAR jisx0208_3056
ENCODING 12374
SWIDTH 960 0
DWIDTH 12 0
BBX 12 12 0 -2
BITMAP
0000
3E60
35F0
3E60
3160
5E60
6B60
1CE0
0300
2C60
6FB0
0000
ENDCHAR

STARTCHAR jisx0208_3057
ENCODING 12375
SWIDTH 960 0
DWIDTH 12 0
BBX 12 12 0 -2
BITMAP
0000
3FC0
30C0
3FC0
30C0
3FC0
1800
3FF0
6DB0
1B30
36E0
0000
ENDCHAR

STARTCHAR jisx0208_3058
ENCODING 12376
SWIDTH 960 0
DWIDTH 12 0
BBX 12 12 0 -2
BITMAP
0000
3180
37E0
7AC0
3660
6FF0
7060
3760
3560
3760
30E0
0000
ENDCHAR

STARTCHAR jisx0208_3059
ENCODING 12377
SWIDTH 960 0
DWIDTH 12 0
BBX 12 12 0 -2
BITMAP
0000
3300
1600
7FC0
18C0
1FE0
3060
3FF0
6030
2AB0
6B60
0000
ENDCHAR

STARTCHAR jisx0208_305A
ENCODING 12378
SWIDTH 960 0
DWIDTH 12 0
BBX 12 12 0 -2
BITMAP
0000
3FE0
3660
3FE0
3660
3FE0
0000
7FF0
3360
2DC0
7870
0000
ENDCHAR

STARTCHAR jisx0208_305B
ENCODING 12379
SWIDTH 960 0
DWIDTH 12 0
BBX 12 12 0 -2
BITMAP
0000
3FE0
3FE0
3660
3FE0
18C0
3FE0
18C0
7FF0
18C0
7070
0000
ENDCHAR

STARTCHAR jisx0208_305C
ENCODING 12380
SWIDTH 960 0
DWIDTH 12 0
BBX 12 12 0 -2
BITMAP
0000
0D80
7BF0
15B0
7CE0
1B80
3DF0
59B0
1AB0
1860
1BC0
0000
ENDCHAR

STARTCHAR jisx0208_305D
ENCODING 12381
SWIDTH 960 0
DWIDTH 12 0
BBX 12 12 0 -2
BITMAP
0000
3360
6B60
3BF0
36C0
7BF0
1AC0
5BF0
5AC0
5AC0
1BF0
0000
ENDCHAR

STARTCHAR jisx0208_305E
ENCODING 12382
SWIDTH 960 0
DWIDTH 12 0
BBX 12 12 0 -2
BITMAP
0000
3180
6BE0
3960
37F0
7B60
1B60
5BF0
5AC0
57F0
18C0
0000
ENDCHAR

STARTCHAR jisx0208_305F
ENCODING 12383
SWIDTH 960 0
DWIDTH 12 0
BBX 12 12 0 -2
BITMAP
0000
7FE0
6660
7FE0
6660
7FE0
30C0
3FC0
30C0
3FC0
30C0
0000
ENDCHAR

STARTCHAR jisx0208_3060
ENCODING 12384
SWIDTH 960 0
DWIDTH 12 0
BBX 12 12 0 -2
BITMAP
0000
1980
7FF0
0600
7FF0
1580
36C0
7FF0
18C0
0F80
78E0
0000
ENDCHAR

STARTCHAR jisx0208_3061
ENCODING 12385
SWIDTH 960 0
DWIDTH 12 0
BBX 12 12 0 -2
BITMAP
0000
0600
7FF0
0600
0B00
1B30
3960
59C0
18C0
1E60
7830
0000
ENDCHAR

STARTCHAR jisx0208_3062
ENCODING 12386
SWIDTH 960 0
DWIDTH 12 0
BBX 12 12 0 -2
BITMAP
0000
77F0
05B0
7FF0
05B0
77F0
0360
7BE0
5B60
5BE0
7B60
0000
ENDCHAR

STARTCHAR jisx0208_3063
ENCODING 12387
SWIDTH 960 0
DWIDTH 12 0
BBX 12 12 0 -2
BITMAP
0000
6180
37E0
0360
0FF0
7360
37F0
36C0
2FF0
38C0
6FF0
0000
ENDCHAR

STARTCHAR jisx0208_3064
ENCODING 12388
SWIDTH 960 0
DWIDTH 12 0
BBX 12 12 0 -2
BITMAP
0000
6180
37E0
0560
0FF0
7660
37E0
3660
37E0
2C30
5FF0
0000
ENDCHAR

STARTCHAR jisx0208_3065
ENCODING 12389
SWIDTH 960 0
DWIDTH 12 0
BBX 12 12 0 -2
BITMAP
0000
7FE0
6C00
6FC0
5B00
6300
5FE0
6580
6CC0
5860
7FF0
0000
ENDCHAR

STARTCHAR jisx0208_3066
ENCODING 12390
SWIDTH 960 0
DWIDTH 12 0
BBX 12 12 0 -2
BITMAP
0000
1980
1980
7FE0
1980
1980
1980
7FF0
1980
3180
6180
0000
ENDCHAR

STARTCHAR jisx0208_3067
ENCODING 12391
SWIDTH 960 0
DWIDTH 12 0
BBX 12 12 0 -2
BITMAP
0000
0600
7FE0
0C00
3980
1B60
0EC0
3980
0300
0DC0
7860
0000
ENDCHAR

STARTCHAR jisx0208_3068
ENCODING 12392
SWIDTH 960 0
DWIDTH 12 0
BBX 12 12 0 -2
BITMAP
0000
30B0
2FF0
78C0
2EC0
2AC0
2EB0
38B0
7760
0CF0
03B0
0000
ENDCHAR

STARTCHAR jisx0208_3069
ENCODING 12393
SWIDTH 960 0
DWIDTH 12 0
BBX 12 12 0 -2
BITMAP
0000
0600
7FF0
18C0
3FE0
18C0
1FC0
18C0
1FC0
18C0
19C0
0000
ENDCHAR

STARTCHAR jisx0208_306A
ENCODING 12394
SWIDTH 960 0
DWIDTH 12 0
BBX 12 12 0 -2
BITMAP
0000
18F0
7EB0
18B0
3EE0
76B0
3EB0
36B0
3EE0
36C0
2EC0
0000
ENDCHAR

STARTCHAR jisx0208_306B
ENCODING 12395
SWIDTH 960 0
DWIDTH 12 0
BBX 12 12 0 -2
BITMAP
0000
0560
7BB0
3560
2DB0
3FF0
6D80
2EB0
2B60
3CF0
19B0
0000
ENDCHAR

STARTCHAR jisx0208_306C
ENCODING 12396
SWIDTH 960 0
DWIDTH 12 0
BBX 12 12 0 -2
BITMAP
0000
0000
0000
0000
0000
7FF0
0000
0000
0000
0000
0000
0000
ENDCHAR

STARTCHAR jisx0208_306D
ENCODING 12397
SWIDTH 960 0
DWIDTH 12 0
BBX 12 12 0 -2
BITMAP
0000
0600
7FF0
0600
3FE0
0000
7FF0
58B0
1F80
1860
1FE0
0000
ENDCHAR

STARTCHAR jisx0208_306E
ENCODING 12398
SWIDTH 960 0
DWIDTH 12 0
BBX 12 12 0 -2
BITMAP
0000
6660
32C0
0FF0
62C0
3660
0C30
37E0
3560
6560
6FF0
0000
ENDCHAR

STARTCHAR jisx0208_306F
ENCODING 12399
SWIDTH 960 0
DWIDTH 12 0
BBX 12 12 0 -2
BITMAP
0000
6780
2D80
0FE0
0B60
6B60
2FE0
3580
2DF0
3800
6FF0
0000
ENDCHAR

STARTCHAR jisx0208_3070
ENCODING 12400
SWIDTH 960 0
DWIDTH 12 0
BBX 12 12 0 -2
BITMAP
0000
0C70
77C0
1AB0
7AB0
1600
3DF0
55B0
15F0
15B0
15F0
0000
ENDCHAR

STARTCHAR jisx0208_3071
ENCODING 12401
SWIDTH 960 0
DWIDTH 12 0
BBX 12 12 0 -2
BITMAP
0000
0D80
7FF0
0D80
6300
33F0
05B0
2D80
32C0
6360
6630
0000
ENDCHAR

STARTCHAR jisx0208_3072
ENCODING 12402
SWIDTH 960 0
DWIDTH 12 0
BBX 12 12 0 -2
BITMAP
0000
0D80
7FF0
0D80
3FE0
0600
0600
7FF0
0600
0600
0E00
0000
ENDCHAR

STARTCHAR jisx0208_3073
ENCODING 12403
SWIDTH 960 0
DWIDTH 12 0
BBX 12 12 0 -2
BITMAP
0000
37F0
59B0
7FF0
5580
7FF0
55B0
7DB0
0370
55B0
5B60
0000
ENDCHAR

STARTCHAR jisx0208_3074
ENCODING 12404
SWIDTH 960 0
DWIDTH 12 0
BBX 12 12 0 -2
BITMAP
0000
0600
0CC0
1860
7FB0
0D80
0D80
0D80
19B0
19B0
71F0
0000
ENDCHAR

STARTCHAR jisx0208_3075
ENCODING 12405
SWIDTH 960 0
DWIDTH 12 0
BBX 12 12 0 -2
BITMAP
0000
0C00
7BF0
6330
6330
7B30
6330
6330
7AF0
0300
0300
0000
ENDCHAR

STARTCHAR jisx0208_3076
ENCODING 12406
SWIDTH 960 0
DWIDTH 12 0
BBX 12 12 0 -2
BITMAP
0000
07F0
75B0
55B0
57F0
55B0
55B0
56B0
7770
0630
07F0
0000
ENDCHAR

STARTCHAR jisx0208_3077
ENCODING 12407
SWIDTH 960 0
DWIDTH 12 0
BBX 12 12 0 -2
BITMAP
0000
1FC0
18C0
3FE0
3060
3FE0
3060
3FE0
3060
3FE0
7070
0000
ENDCHAR

STARTCHAR jisx0208_3078
ENCODING 12408
SWIDTH 960 0
DWIDTH 12 0
BBX 12 12 0 -2
BITMAP
0000
7FE0
6660
6660
7FE0
6660
6B60
5960
70E0
6060
7FE0
0000
ENDCHAR

STARTCHAR jisx0208_3079
ENCODING 12409
SWIDTH 960 0
DWIDTH 12 0
BBX 12 12 0 -2
BITMAP
0000
37F0
3630
75B0
57F0
55B0
55B0
56B0
3770
3630
67F0
0000
ENDCHAR

STARTCHAR jisx0208_307A
ENCODING 12410
SWIDTH 960 0
DWIDTH 12 0
BBX 12 12 0 -2
BITMAP
0000
7E60
0660
0660
7E60
6060
7E60
0660
0660
0660
3C60
0000
ENDCHAR

STARTCHAR jisx0208_307B
ENCODING 12411
SWIDTH 960 0
DWIDTH 12 0
BBX 12 12 0 -2
BITMAP
0000
1980
2D80
59F0
3AB0
2EC0
2CC0
3D60
3160
2B30
7730
0000
ENDCHAR

STARTCHAR jisx0208_307C
ENCODING 12412
SWIDTH 960 0
DWIDTH 12 0
BBX 12 12 0 -2
BITMAP
0000
60E0
2FB0
0B60
6580
30E0
0780
3180
2FF0
6180
67E0
0000
ENDCHAR

STARTCHAR jisx0208_307D
ENCODING 12413
SWIDTH 960 0
DWIDTH 12 0
BBX 12 12 0 -2
BITMAP
0000
3660
2B60
3560
2F60
2D60
2F60
2D60
2F60
6D70
6B70
0000
ENDCHAR

STARTCHAR jisx0208_307E
ENCODING 12414
SWIDTH 960 0
DWIDTH 12 0
BBX 12 12 0 -2
BITMAP
0000
0D80
7FF0
0DC0
7B60
55B0
73E0
5860
57F0
7360
67B0
0000
ENDCHAR

STARTCHAR jisx0208_3121
ENCODING 12577
SWIDTH 960 0
DWIDTH 12 0
BBX 12 12 0 -2
BITMAP
0000
7980
57F0
5630
73E0
5800
57F0
5AC0
72C0
62B0
66F0
0000
ENDCHAR

STARTCHAR jisx0208_3122
ENCODING 12578
SWIDTH 960 0
DWIDTH 12 0
BBX 12 12 0 -2
BITMAP
0000
79C0
5B60
55B0
73E0
5860
57F0
5800
77F0
6360
67B0
0000
ENDCHAR

STARTCHAR jisx0208_3123
ENCODING 12579
SWIDTH 960 0
DWIDTH 12 0
BBX 12 12 0 -2
BITMAP
0000
78E0
57B0
5560
77E0
57E0
5860
57E0
7180
6B60
5BB0
0000
ENDCHAR

STARTCHAR jisx0208_3124
ENCODING 12580
SWIDTH 960 0
DWIDTH 12 0
BBX 12 12 0 -2
BITMAP
0000
31E0
7D60
5BF0
7B30
03F0
7B30
6B30
7BF0
6D60
7B30
0000
ENDCHAR

STARTCHAR jisx0208_3125
ENCODING 12581
SWIDTH 960 0
DWIDTH 12 0
BBX 12 12 0 -2
BITMAP
0000
0060
7860
57F0
5860
5660
5B60
5B60
7860
0060
01E0
0000
ENDCHAR

STARTCHAR jisx0208_3126
ENCODING 12582
SWIDTH 960 0
DWIDTH 12 0
BBX 12 12 0 -2
BITMAP
0000
0600
0600
7FF0
0C00
0C00
1FE0
1C60
2C60
6C60
0FE0
0000
ENDCHAR

STARTCHAR jisx0208_3127
ENCODING 12583
SWIDTH 960 0
DWIDTH 12 0
BBX 12 12 0 -2
BITMAP
0000
0600
7FF0
6030
5FB0
0600
0600
7FF0
0600
0600
1E00
0000
ENDCHAR

STARTCHAR jisx0208_3128
ENCODING 12584
SWIDTH 960 0
DWIDTH 12 0
BBX 12 12 0 -2
BITMAP
0000
0600
3FC0
3FC0
30C0
3FF0
3000
3FF0
0030
2AB0
6B60
0000
ENDCHAR

STARTCHAR jisx0208_3129
ENCODING 12585
SWIDTH 960 0
DWIDTH 12 0
BBX 12 12 0 -2
BITMAP
0000
7BF0
0C30
6DB0
2CB0
0C30
1C70
2CB0
6DB0
0C30
1C70
0000
ENDCHAR

STARTCHAR jisx0208_312A
ENCODING 12586
SWIDTH 960 0
DWIDTH 12 0
BBX 12 12 0 -2
BITMAP
0000
67F0
30C0
00C0
07F0
70C0
30C0
30C0
31C0
3800
6FF0
0000
ENDCHAR

STARTCHAR jisx0208_312B
ENCODING 12587
SWIDTH 960 0
DWIDTH 12 0
BBX 12 12 0 -2
BITMAP
0000
7FF0
0600
7FF0
6630
75B0
56B0
75B0
56B0
6630
66F0
0000
ENDCHAR

STARTCHAR jisx0208_312C
ENCODING 12588
SWIDTH 960 0
DWIDTH 12 0
BBX 12 12 0 -2
BITMAP
0000
0C00
39F0
35B0
35B0
35B0
35B0
3DB0
7570
0D80
3980
0000
ENDCHAR

STARTCHAR jisx0208_312D
ENCODING 12589
SWIDTH 960 0
DWIDTH 12 0
BBX 12 12 0 -2
BITMAP
0000
5980
7BE0
2BE0
7B60
73F0
7B00
2BF0
6C30
75B0
3560
0000
ENDCHAR

STARTCHAR jisx0208_312E
ENCODING 12590
SWIDTH 960 0
DWIDTH 12 0
BBX 12 12 0 -2
BITMAP
0000
0600
7FF0
5DB0
33E0
7B60
33E0
7B60
33E0
5AB0
6EF0
0000
ENDCHAR

STARTCHAR jisx0208_312F
ENCODING 12591
SWIDTH 960 0
DWIDTH 12 0
BBX 12 12 0 -2
BITMAP
0000
3FC0
0CC0
0CC0
0CC0
7FF0
1980
1980
1980
1980
7FF0
0000
ENDCHAR

STARTCHAR jisx0208_3130
ENCODING 12592
SWIDTH 960 0
DWIDTH 12 0
BBX 12 12 0 -2
BITMAP
0000
7B60
1B60
17F0
32C0
3BF0
6AC0
2BF0
2AC0
3AC0
03F0
0000
ENDCHAR

STARTCHAR jisx0208_3131
ENCODING 12593
SWIDTH 960 0
DWIDTH 12 0
BBX 12 12 0 -2
BITMAP
0000
0C00
7BE0
6060
6060
6060
7BE0
6060
6060
6060
7FE0
0000
ENDCHAR

STARTCHAR jisx0208_3132
ENCODING 12594
SWIDTH 960 0
DWIDTH 12 0
BBX 12 12 0 -2
BITMAP
0000
67E0
3660
05E0
6560
2FF0
0C30
2BB0
2AB0
6BB0
6C70
0000
ENDCHAR

STARTCHAR jisx0208_3133
ENCODING 12595
SWIDTH 960 0
DWIDTH 12 0
BBX 12 12 0 -2
BITMAP
0000
0180
0FF0
7DB0
6FE0
6D80
6DF0
7AB0
16E0
1AC0
2FF0
0000
ENDCHAR

STARTCHAR jisx0208_3134
ENCODING 12596
SWIDTH 960 0
DWIDTH 12 0
BBX 12 12 0 -2
BITMAP
0000
07F0
7630
57F0
5630
57F0
5630
77F0
0000
02E0
0E30
0000
ENDCHAR

STARTCHAR jisx0208_3135
ENCODING 12597
SWIDTH 960 0
DWIDTH 12 0
BBX 12 12 0 -2
BITMAP
0000
2B60
76F0
2B60
7FF0
2D60
3FE0
3660
3DF0
2D60
76E0
0000
ENDCHAR

STARTCHAR jisx0208_3136
ENCODING 12598
SWIDTH 960 0
DWIDTH 12 0
BBX 12 12 0 -2
BITMAP
0000
0D80
7FF0
0D80
3F60
33F0
3F60
3160
3F60
6C60
5AE0
0000
ENDCHAR

STARTCHAR jisx0208_3137
ENCODING 12599
SWIDTH 960 0
DWIDTH 12 0
BBX 12 12 0 -2
BITMAP
0000
39E0
5960
7DE0
5560
7FF0
55B0
7FF0
0160
58C0
5B70
0000
ENDCHAR

STARTCHAR jisx0208_3138
ENCODING 12600
SWIDTH 960 0
DWIDTH 12 0
BBX 12 12 0 -2
BITMAP
0000
3180
37B0
7960
57F0
58C0
5980
5B70
35C0
39B0
61F0
0000
ENDCHAR

STARTCHAR jisx0208_3139
ENCODING 12601
SWIDTH 960 0
DWIDTH 12 0
BBX 12 12 0 -2
BITMAP
0000
3FF0
3000
2FF0
2D60
2F60
2DF0
2F60
6CE0
6D60
5B70
0000
ENDCHAR

STARTCHAR jisx0208_313A
ENCODING 12602
SWIDTH 960 0
DWIDTH 12 0
BBX 12 12 0 -2
BITMAP
0000
6160
2FF0
0180
6FF0
2DB0
0FF0
2DB0
2FF0
6DB0
6D70
0000
ENDCHAR

STARTCHAR jisx0208_313B
ENCODING 12603
SWIDTH 960 0
DWIDTH 12 0
BBX 12 12 0 -2
BITMAP
0000
01E0
3EC0
36C0
36C0
36C0
3660
3660
3560
67B0
5EB0
0000
ENDCHAR

STARTCHAR jisx0208_313C
ENCODING 12604
SWIDTH 960 0
DWIDTH 12 0
BBX 12 12 0 -2
BITMAP
0000
7DF0
6DB0
7DF0
6030
5FB0
6630
6FB0
6630
5FB0
6070
0000
ENDCHAR

STARTCHAR jisx0208_313D
ENCODING 12605
SWIDTH 960 0
DWIDTH 12 0
BBX 12 12 0 -2
BITMAP
0000
0660
7FF0
5AC0
5FF0
5AB0
5670
5FF0
78C0
0FF0
06C0
0000
ENDCHAR

STARTCHAR jisx0208_313E
ENCODING 12606
SWIDTH 960 0
DWIDTH 12 0
BBX 12 12 0 -2
BITMAP
0000
0000
3FE0
0000
0000
7FF0
0C00
0CC0
1860
1BF0
7E30
0000
ENDCHAR

STARTCHAR jisx0208_313F
ENCODING 12607
SWIDTH 960 0
DWIDTH 12 0
BBX 12 12 0 -2
BITMAP
0000
6FF0
2DB0
07E0
0560
77E0
3560
2FF0
3180
3980
6FF0
0000
ENDCHAR

STARTCHAR jisx0208_3140
ENCODING 12608
SWIDTH 960 0
DWIDTH 12 0
BBX 12 12 0 -2
BITMAP
0000
3FE0
0600
7FF0
55B0
0000
3FE0
0000
7FF0
0CC0
3F60
0000
ENDCHAR

STARTCHAR jisx0208_3141
ENCODING 12609
SWIDTH 960 0
DWIDTH 12 0
BBX 12 12 0 -2
BITMAP
0000
0D80
7FF0
0D80
18E0
1780
3180
6FF0
3180
3180
37E0
0000
ENDCHAR

STARTCHAR jisx0208_3142
ENCODING 12610
SWIDTH 960 0
DWIDTH 12 0
BBX 12 12 0 -2
BITMAP
0000
1800
2FF0
5B60
3BE0
2B60
2BE0
3B70
37E0
2C60
7660
0000
ENDCHAR

STARTCHAR jisx0208_3143
ENCODING 12611
SWIDTH 960 0
DWIDTH 12 0
BBX 12 12 0 -2
BITMAP
0000
1C00
19F0
7DB0
65B0
2D60
7D60
2CC0
3CC0
2D60
3B30
0000
ENDCHAR

STARTCHAR jisx0208_3144
ENCODING 12612
SWIDTH 960 0
DWIDTH 12 0
BBX 12 12 0 -2
BITMAP
0000
3660
7FF0
6030
5FB0
18C0
1FC0
0600
3FE0
3060
3FE0
0000
ENDCHAR

STARTCHAR jisx0208_3145
ENCODING 12613
SWIDTH 960 0
DWIDTH 12 0
BBX 12 12 0 -2
BITMAP
0000
3DE0
2D60
3DE0
2D60
3DE0
6730
7FF0
18C0
0F80
78F0
0000
ENDCHAR

STARTCHAR jisx0208_3146
ENCODING 12614
SWIDTH 960 0
DWIDTH 12 0
BBX 12 12 0 -2
BITMAP
0000
3E30
3660
3DC0
1830
7F60
35C0
3E00
1830
5660
59C0
0000
ENDCHAR

STARTCHAR jisx0208_3147
ENCODING 12615
SWIDTH 960 0
DWIDTH 12 0
BBX 12 12 0 -2
BITMAP
0000
0180
7980
57E0
5560
7560
5FF0
5980
7AC0
0660
0C30
0000
ENDCHAR

STARTCHAR jisx0208_3148
ENCODING 12616
SWIDTH 960 0
DWIDTH 12 0
BBX 12 12 0 -2
BITMAP
0000
0600
7FE0
6660
7FE0
6660
7FE0
0660
02C0
0FB0
78F0
0000
ENDCHAR

STARTCHAR jisx0208_3149
ENCODING 12617
SWIDTH 960 0
DWIDTH 12 0
BBX 12 12 0 -2
BITMAP
0000
3660
7FF0
6030
6630
0600
3FE0
0F00
15C0
7670
0600
0000
ENDCHAR

STARTCHAR jisx0208_314A
ENCODING 12618
SWIDTH 960 0
DWIDTH 12 0
BBX 12 12 0 -2
BITMAP
0000
1E00
0000
1E00
0660
76C0
1580
3580
36C0
6670
1E00
0000
ENDCHAR

STARTCHAR jisx0208_314B
ENCODING 12619
SWIDTH 960 0
DWIDTH 12 0
BBX 12 12 0 -2
BITMAP
0000
6780
3000
07B0
6160
2DC0
05C0
3560
2D60
59B0
6380
0000
ENDCHAR

STARTCHAR jisx0208_314C
ENCODING 12620
SWIDTH 960 0
DWIDTH 12 0
BBX 12 12 0 -2
BITMAP
0000
6300
2FE0
0B60
6FE0
2B60
0FE0
3160
31C0
62B0
6E70
0000
ENDCHAR

STARTCHAR jisx0208_314D
ENCODING 12621
SWIDTH 960 0
DWIDTH 12 0
BBX 12 12 0 -2
BITMAP
0000
02C0
77F0
32C0
37E0
7560
3560
2FF0
3980
72C0
0E70
0000
ENDCHAR

STARTCHAR jisx0208_314E
ENCODING 12622
SWIDTH 960 0
DWIDTH 12 0
BBX 12 12 0 -2
BITMAP
0000
3FC0
18C0
1EF0
3B30
2E30
5AE0
0000
3FE0
2B60
7FF0
0000
ENDCHAR

STARTCHAR jisx0208_314F
ENCODING 12623
SWIDTH 960 0
DWIDTH 12 0
BBX 12 12 0 -2
BITMAP
0000
6BF0
78C0
6BF0
7B30
0BF0
7B30
1B30
7BF0
3960
5B30
0000
ENDCHAR

STARTCHAR jisx0208_3150
ENCODING 12624
SWIDTH 960 0
DWIDTH 12 0
BBX 12 12 0 -2
BITMAP
0000
6BF0
78C0
6BF0
7B30
03F0
7B30
1B30
5BF0
5960
1B30
0000
ENDCHAR

STARTCHAR jisx0208_3151
ENCODING 12625
SWIDTH 960 0
DWIDTH 12 0
BBX 12 12 0 -2
BITMAP
0000
1980
7FF0
1580
3FE0
3660
3660
7FF0
0B00
19C0
7070
0000
ENDCHAR

STARTCHAR jisx0208_3152
ENCODING 12626
SWIDTH 960 0
DWIDTH 12 0
BBX 12 12 0 -2
BITMAP
0000
36F0
6F80
1580
3FF0
6D60
2F60
2B60
3F60
3360
32E0
0000
ENDCHAR

STARTCHAR jisx0208_3153
ENCODING 12627
SWIDTH 960 0
DWIDTH 12 0
BBX 12 12 0 -2
BITMAP
0000
79E0
0000
7BC0
00B0
76B0
02E0
7AE0
56B0
5CB0
79C0
0000
ENDCHAR

STARTCHAR jisx0208_3154
ENCODING 12628
SWIDTH 960 0
DWIDTH 12 0
BBX 12 12 0 -2
BITMAP
0000
1B30
2D60
63F0
3B30
1B30
7BF0
1960
5960
1B70
7670
0000
ENDCHAR

STARTCHAR jisx0208_3155
ENCODING 12629
SWIDTH 960 0
DWIDTH 12 0
BBX 12 12 0 -2
BITMAP
0000
6180
2FF0
06C0
66F0
2DB0
1D60
2B60
2CC0
6D60
6B30
0000
ENDCHAR

STARTCHAR jisx0208_3156
ENCODING 12630
SWIDTH 960 0
DWIDTH 12 0
BBX 12 12 0 -2
BITMAP
0000
0300
3FF0
7000
37B0
2CF0
7000
2FE0
36C0
63C0
5E70
0000
ENDCHAR

STARTCHAR jisx0208_3157
ENCODING 12631
SWIDTH 960 0
DWIDTH 12 0
BBX 12 12 0 -2
BITMAP
0000
18C0
0D80
7FF0
18C0
3060
6030
3FE0
2B60
2B60
7FF0
0000
ENDCHAR

STARTCHAR jisx0208_3158
ENCODING 12632
SWIDTH 960 0
DWIDTH 12 0
BBX 12 12 0 -2
BITMAP
0000
7BF0
5B30
7B30
5BF0
5AC0
7AC0
0AC0
6B60
0B60
3630
0000
ENDCHAR

STARTCHAR jisx0208_3159
ENCODING 12633
SWIDTH 960 0
DWIDTH 12 0
BBX 12 12 0 -2
BITMAP
0000
3660
3AC0
6FE0
7660
7660
37E0
32C0
32C0
36B0
2CF0
0000
ENDCHAR

STARTCHAR jisx0208_315A
ENCODING 12634
SWIDTH 960 0
DWIDTH 12 0
BBX 12 12 0 -2
BITMAP
0000
77E0
0660
7FE0
0660
77F0
0EB0
77B0
5630
57B0
78E0
0000
ENDCHAR

STARTCHAR jisx0208_315B
ENCODING 12635
SWIDTH 960 0
DWIDTH 12 0
BBX 12 12 0 -2
BITMAP
0000
18B0
7FF0
1AC0
7EB0
1AB0
5F60
5B60
56B0
7800
6FF0
0000
ENDCHAR

STARTCHAR jisx0208_315C
ENCODING 12636
SWIDTH 960 0
DWIDTH 12 0
BBX 12 12 0 -2
BITMAP
0000
7DF0
6DB0
7DF0
59B0
6B30
5FB0
59B0
5FB0
6AB0
5B70
0000
ENDCHAR

STARTCHAR jisx0208_315D
ENCODING 12637
SWIDTH 960 0
DWIDTH 12 0
BBX 12 12 0 -2
BITMAP
0000
17F0
1980
7BE0
1B60
3BE0
3B60
5BE0
1760
19C0
1F70
0000
ENDCHAR

STARTCHAR jisx0208_315E
ENCODING 12638
SWIDTH 960 0
DWIDTH 12 0
BBX 12 12 0 -2
BITMAP
0000
3FF0
2B70
2F60
31F0
2F60
2B60
2F60
2AB0
6EB0
6BB0
0000
ENDCHAR

STARTCHAR jisx0208_315F
ENCODING 12639
SWIDTH 960 0
DWIDTH 12 0
BBX 12 12 0 -2
BITMAP
0000
7FE0
6660
6660
6660
7FE0
6060
6060
6060
6060
60E0
0000
ENDCHAR

STARTCHAR jisx0208_3160
ENCODING 12640
SWIDTH 960 0
DWIDTH 12 0
BBX 12 12 0 -2
BITMAP
0000
7FF0
5FB0
6630
7FB0
59B0
5FB0
6EB0
55B0
76B0
7FF0
0000
ENDCHAR

STARTCHAR jisx0208_3161
ENCODING 12641
SWIDTH 960 0
DWIDTH 12 0
BBX 12 12 0 -2
BITMAP
0000
2FF0
2BE0
7B60
2BE0
2D80
2FF0
3B60
6DC0
0B60
0FF0
0000
ENDCHAR

STARTCHAR jisx0208_3162
ENCODING 12642
SWIDTH 960 0
DWIDTH 12 0
BBX 12 12 0 -2
BITMAP
0000
0600
7FF0
16C0
3FE0
56B0
1FC0
16C0
1FC0
0630
07F0
0000
ENDCHAR

STARTCHAR jisx0208_3163
ENCODING 12643
SWIDTH 960 0
DWIDTH 12 0
BBX 12 12 0 -2
BITMAP
0000
0600
7FF0
5FB0
18C0
1FC0
0C00
7FF0
18C0
0F80
38E0
0000
ENDCHAR

STARTCHAR jisx0208_3164
ENCODING 12644
SWIDTH 960 0
DWIDTH 12 0
BBX 12 12 0 -2
BITMAP
0000
7C70
17C0
30C0
3AF0
0AC0
2AC0
6AC0
17F0
2C00
67F0
0000
ENDCHAR

STARTCHAR jisx0208_3165
ENCODING 12645
SWIDTH 960 0
DWIDTH 12 0
BBX 12 12 0 -2
BITMAP
0000
1800
3DF0
65B0
2D70
1980
71F0
0000
2B60
2CB0
6FB0
0000
ENDCHAR

STARTCHAR jisx0208_3166
ENCODING 12646
SWIDTH 960 0
DWIDTH 12 0
BBX 12 12 0 -2
BITMAP
0000
3180
2FF0
7660
2FF0
3560
77E0
3560
37E0
31B0
71F0
0000
ENDCHAR

STARTCHAR jisx0208_3167
ENCODING 12647
SWIDTH 960 0
DWIDTH 12 0
BBX 12 12 0 -2
BITMAP
0000
30E0
2FB0
7560
37E0
3980
6FF0
33E0
2F60
31C0
6F70
0000
ENDCHAR

STARTCHAR jisx0208_3168
ENCODING 12648
SWIDTH 960 0
DWIDTH 12 0
BBX 12 12 0 -2
BITMAP
0000
62C0
32C0
0660
6C30
3000
07E0
3660
3660
6660
67E0
0000
ENDCHAR

STARTCHAR jisx0208_3169
ENCODING 12649
SWIDTH 960 0
DWIDTH 12 0
BBX 12 12 0 -2
BITMAP
0000
6180
2FF0
0DB0
67E0
3560
07E0
3560
37E0
62C0
6E70
0000
ENDCHAR

STARTCHAR jisx0208_316A
ENCODING 12650
SWIDTH 960 0
DWIDTH 12 0
BBX 12 12 0 -2
BITMAP
0000
3660
66C0
0B00
19C0
7670
3660
66C0
0B00
19C0
7070
0000
ENDCHAR

STARTCHAR jisx0208_316B
ENCODING 12651
SWIDTH 960 0
DWIDTH 12 0
BBX 12 12 0 -2
BITMAP
0000
1980
15F0
5B30
5860
55F0
15B0
15F0
2DB0
35B0
65F0
0000
ENDCHAR

STARTCHAR jisx0208_316C
ENCODING 12652
SWIDTH 960 0
DWIDTH 12 0
BBX 12 12 0 -2
BITMAP
0000
17F0
1AC0
57F0
56B0
57F0
1980
1980
2BE0
3180
67F0
0000
ENDCHAR

STARTCHAR jisx0208_316D
ENCODING 12653
SWIDTH 960 0
DWIDTH 12 0
BBX 12 12 0 -2
BITMAP
0000
0D80
7FF0
0D80
2EB0
6AE0
2AB0
6EF0
0000
2B60
6DB0
0000
ENDCHAR

STARTCHAR jisx0208_316E
ENCODING 12654
SWIDTH 960 0
DWIDTH 12 0
BBX 12 12 0 -2
BITMAP
0000
5980
37E0
3180
5FF0
1660
37E0
5AB0
1EE0
1560
6F30
0000
ENDCHAR

STARTCHAR jisx0208_316F
ENCODING 12655
SWIDTH 960 0
DWIDTH 12 0
BBX 12 12 0 -2
BITMAP
0000
33E0
6C60
3BE0
3060
7FF0
1980
56B0
59E0
56B0
19C0
0000
ENDCHAR

STARTCHAR jisx0208_3170
ENCODING 12656
SWIDTH 960 0
DWIDTH 12 0
BBX 12 12 0 -2
BITMAP
0000
1580
7FE0
5760
7FF0
56B0
7FF0
1D80
3D80
35B0
7FF0
0000
ENDCHAR

STARTCHAR jisx0208_3171
ENCODING 12657
SWIDTH 960 0
DWIDTH 12 0
BBX 12 12 0 -2
BITMAP
0000
0D80
7FF0
0D80
3000
3DF0
65B0
2D70
1D80
19B0
71F0
0000
ENDCHAR

STARTCHAR jisx0208_3172
ENCODING 12658
SWIDTH 960 0
DWIDTH 12 0
BBX 12 12 0 -2
BITMAP
0000
0D80
7FF0
0000
7FF0
6DB0
6FB0
66B0
5DB0
66B0
7FF0
0000
ENDCHAR

STARTCHAR jisx0208_3173
ENCODING 12659
SWIDTH 960 0
DWIDTH 12 0
BBX 12 12 0 -2
BITMAP
0000
6180
37E0
0180
0FF0
7660
37E0
33B0
2EE0
3B60
6FF0
0000
ENDCHAR

STARTCHAR jisx0208_3174
ENCODING 12660
SWIDTH 960 0
DWIDTH 12 0
BBX 12 12 0 -2
BITMAP
0000
1960
2D60
6330
3B30
1800
7BF0
1B30
5B30
1B30
73F0
0000
ENDCHAR

STARTCHAR jisx0208_3175
ENCODING 12661
SWIDTH 960 0
DWIDTH 12 0
BBX 12 12 0 -2
BITMAP
0000
3DF0
7570
1D80
35F0
5FC0
1FC0
18C0
1FF0
3030
5560
0000
ENDCHAR

STARTCHAR jisx0208_3176
ENCODING 12662
SWIDTH 960 0
DWIDTH 12 0
BBX 12 12 0 -2
BITMAP
0000
3600
37F0
7C00
33E0
3360
33E0
3800
77F0
05B0
0FF0
0000
ENDCHAR

STARTCHAR jisx0208_3177
ENCODING 12663
SWIDTH 960 0
DWIDTH 12 0
BBX 12 12 0 -2
BITMAP
0000
18C0
1960
7D60
3330
3CC0
2C60
2C00
2D80
6CC0
5860
0000
ENDCHAR

STARTCHAR jisx0208_3178
ENCODING 12664
SWIDTH 960 0
DWIDTH 12 0
BBX 12 12 0 -2
BITMAP
0000
6FE0
3300
0300
5FF0
3600
07E0
3060
3060
6060
61C0
0000
ENDCHAR

STARTCHAR jisx0208_3179
ENCODING 12665
SWIDTH 960 0
DWIDTH 12 0
BBX 12 12 0 -2
BITMAP
0000
1BF0
5AB0
7BF0
5AB0
1BF0
7CC0
1BF0
1CB0
71B0
02E0
0000
ENDCHAR

STARTCHAR jisx0208_317A
ENCODING 12666
SWIDTH 960 0
DWIDTH 12 0
BBX 12 12 0 -2
BITMAP
0000
0000
7DF0
6DB0
6DB0
6FB0
6030
6030
6030
6030
7FF0
0000
ENDCHAR

STARTCHAR jisx0208_317B
ENCODING 12667
SWIDTH 960 0
DWIDTH 12 0
BBX 12 12 0 -2
BITMAP
0000
0600
3FE0
3660
3660
3660
7FF0
0600
0B00
19C0
7070
0000
ENDCHAR

STARTCHAR jisx0208_317C
ENCODING 12668
SWIDTH 960 0
DWIDTH 12 0
BBX 12 12 0 -2
BITMAP
0000
0600
3FE0
3560
3FE0
2F60
3560
3660
7FF0
0B00
79F0
0000
ENDCHAR

STARTCHAR jisx0208_317D
ENCODING 12669
SWIDTH 960 0
DWIDTH 12 0
BBX 12 12 0 -2
BITMAP
0000
3300
6180
1FF0
3180
7180
37E0
3180
3180
3180
2FF0
0000
ENDCHAR

STARTCHAR jisx0208_317E
ENCODING 12670
SWIDTH 960 0
DWIDTH 12 0
BBX 12 12 0 -2
BITMAP
0000
0300
3FF0
3300
3180
3600
3660
3630
36B0
56C0
67C0
0000
ENDCHAR

STARTCHAR jisx0208_3221
ENCODING 12833
SWIDTH 960 0
DWIDTH 12 0
BBX 12 12 0 -2
BITMAP
0000
37F0
35B0
75B0
37F0
35B0
75B0
37F0
3180
3180
7180
0000
ENDCHAR

STARTCHAR jisx0208_3222
ENCODING 12834
SWIDTH 960 0
DWIDTH 12 0
BBX 12 12 0 -2
BITMAP
0000
77F0
5980
5980
5980
77E0
5980
5980
5980
7980
0FF0
0000
ENDCHAR

STARTCHAR jisx0208_3223
ENCODING 12835
SWIDTH 960 0
DWIDTH 12 0
BBX 12 12 0 -2
BITMAP
0000
32C0
37F0
7AC0
2FF0
7560
77E0
3560
37E0
32C0
2E70
0000
ENDCHAR

STARTCHAR jisx0208_3224
ENCODING 12836
SWIDTH 960 0
DWIDTH 12 0
BBX 12 12 0 -2
BITMAP
0000
7D80
6D80
6DF0
5AB0
56C0
6CC0
6D60
6160
7B30
0630
0000
ENDCHAR

STARTCHAR jisx0208_3225
ENCODING 12837
SWIDTH 960 0
DWIDTH 12 0
BBX 12 12 0 -2
BITMAP
0000
7DE0
6D60
6D60
5B70
5800
6BF0
6B30
6160
7DC0
0770
0000
ENDCHAR

STARTCHAR jisx0208_3226
ENCODING 12838
SWIDTH 960 0
DWIDTH 12 0
BBX 12 12 0 -2
BITMAP
0000
7FF0
0600
0600
0600
3FE0
0600
0600
0600
0600
7FF0
0000
ENDCHAR

STARTCHAR jisx0208_3227
ENCODING 12839
SWIDTH 960 0
DWIDTH 12 0
BBX 12 12 0 -2
BITMAP
0000
18C0
7670
0D80
3EC0
0000
7FF0
35B0
16B0
35B0
0E70
0000
ENDCHAR

STARTCHAR jisx0208_3228
ENCODING 12840
SWIDTH 960 0
DWIDTH 12 0
BBX 12 12 0 -2
BITMAP
0000
3180
37F0
76B0
1630
2EB0
7630
2D80
37F0
32C0
2E70
0000
ENDCHAR

STARTCHAR jisx0208_3229
ENCODING 12841
SWIDTH 960 0
DWIDTH 12 0
BBX 12 12 0 -2
BITMAP
0000
36C0
7FF0
6330
1FC0
18C0
1FF0
1800
1FF0
2AB0
6B60
0000
ENDCHAR

STARTCHAR jisx0208_322A
ENCODING 12842
SWIDTH 960 0
DWIDTH 12 0
BBX 12 12 0 -2
BITMAP
0000
0180
7BE0
6BE0
6B60
5BF0
5B00
6BF0
6C30
7DB0
0560
0000
ENDCHAR

STARTCHAR jisx0208_322B
ENCODING 12843
SWIDTH 960 0
DWIDTH 12 0
BBX 12 12 0 -2
BITMAP
0000
1980
7FE0
1980
7FE0
36C0
3FC0
36C0
3FC0
1980
70E0
0000
ENDCHAR

STARTCHAR jisx0208_322C
ENCODING 12844
SWIDTH 960 0
DWIDTH 12 0
BBX 12 12 0 -2
BITMAP
0000
7FF0
6030
59B0
6B30
7FB0
6630
55B0
55B0
5FB0
6070
0000
ENDCHAR

STARTCHAR jisx0208_322D
ENCODING 12845
SWIDTH 960 0
DWIDTH 12 0
BBX 12 12 0 -2
BITMAP
0000
6180
2FF0
0DB0
6DB0
2DB0
0DB0
2FF0
3180
6180
6180
0000
ENDCHAR

STARTCHAR jisx0208_322E
ENCODING 12846
SWIDTH 960 0
DWIDTH 12 0
BBX 12 12 0 -2
BITMAP
0000
0D80
7FF0
0C00
5980
33B0
5560
3980
5AC0
1B60
3630
0000
ENDCHAR

STARTCHAR jisx0208_322F
ENCODING 12847
SWIDTH 960 0
DWIDTH 12 0
BBX 12 12 0 -2
BITMAP
0000
1980
1FF0
32C0
2FF0
77E0
3660
37E0
3360
2AB0
2BC0
0000
ENDCHAR

STARTCHAR jisx0208_3230
ENCODING 12848
SWIDTH 960 0
DWIDTH 12 0
BBX 12 12 0 -2
BITMAP
0000
3FE0
3060
3FF0
3300
36C0
2F60
3300
2FE0
6300
5FF0
0000
ENDCHAR

STARTCHAR jisx0208_3231
ENCODING 12849
SWIDTH 960 0
DWIDTH 12 0
BBX 12 12 0 -2
BITMAP
0000
3180
37F0
72C0
6FF0
77E0
3660
37E0
3360
2AB0
2BC0
0000
ENDCHAR

STARTCHAR jisx0208_3232
ENCODING 12850
SWIDTH 960 0
DWIDTH 12 0
BBX 12 12 0 -2
BITMAP
0000
7980
5FF0
5AC0
7FF0
57E0
5660
77E0
5B60
5AB0
5BC0
0000
ENDCHAR

STARTCHAR jisx0208_3233
ENCODING 12851
SWIDTH 960 0
DWIDTH 12 0
BBX 12 12 0 -2
BITMAP
0000
37E0
30C0
77F0
35B0
77F0
75B0
37F0
35B0
35B0
3570
0000
ENDCHAR

STARTCHAR jisx0208_3234
ENCODING 12852
SWIDTH 960 0
DWIDTH 12 0
BBX 12 12 0 -2
BITMAP
0000
18C0
58C0
7CC0
5BF0
18C0
1CC0
78C0
18C0
18C0
1BF0
0000
ENDCHAR

STARTCHAR jisx0208_3235
ENCODING 12853
SWIDTH 960 0
DWIDTH 12 0
BBX 12 12 0 -2
BITMAP
0000
0000
3FC0
0180
0300
0E00
1800
3000
6060
6060
3FE0
0000
ENDCHAR

STARTCHAR jisx0208_3236
ENCODING 12854
SWIDTH 960 0
DWIDTH 12 0
BBX 12 12 0 -2
BITMAP
0000
1980
1FF0
3660
2FF0
7560
37E0
3560
37E0
31B0
31F0
0000
ENDCHAR

STARTCHAR jisx0208_3237
ENCODING 12855
SWIDTH 960 0
DWIDTH 12 0
BBX 12 12 0 -2
BITMAP
0000
3000
3DF0
59B0
19B0
7DB0
19B0
5DB0
59B0
5D70
7980
0000
ENDCHAR

STARTCHAR jisx0208_3238
ENCODING 12856
SWIDTH 960 0
DWIDTH 12 0
BBX 12 12 0 -2
BITMAP
0000
3FE0
3660
3FE0
2B60
3960
3FE0
0000
2B60
2CB0
6FB0
0000
ENDCHAR

STARTCHAR jisx0208_3239
ENCODING 12857
SWIDTH 960 0
DWIDTH 12 0
BBX 12 12 0 -2
BITMAP
0000
6FE0
2C60
0FE0
6C60
2FE0
0000
2FE0
2B60
6B60
5FF0
0000
ENDCHAR

STARTCHAR jisx0208_323A
ENCODING 12858
SWIDTH 960 0
DWIDTH 12 0
BBX 12 12 0 -2
BITMAP
0000
18E0
77B0
3560
77E0
37E0
7860
77E0
3360
2AB0
2BC0
0000
ENDCHAR

STARTCHAR jisx0208_323B
ENCODING 12859
SWIDTH 960 0
DWIDTH 12 0
BBX 12 12 0 -2
BITMAP
0000
0600
3FE0
0D80
7FF0
0000
1FC0
18C0
1FC0
18C0
1FC0
0000
ENDCHAR

STARTCHAR jisx0208_323C
ENCODING 12860
SWIDTH 960 0
DWIDTH 12 0
BBX 12 12 0 -2
BITMAP
0000
7FF0
0600
0600
0780
06E0
0600
0600
0600
0600
0600
0000
ENDCHAR

STARTCHAR jisx0208_323D
ENCODING 12861
SWIDTH 960 0
DWIDTH 12 0
BBX 12 12 0 -2
BITMAP
0000
1B00
1B00
3330
3360
73C0
3300
3300
3300
3330
33F0
0000
ENDCHAR

STARTCHAR jisx0208_323E
ENCODING 12862
SWIDTH 960 0
DWIDTH 12 0
BBX 12 12 0 -2
BITMAP
0000
17F0
1600
3600
37F0
75B0
35B0
3560
36C0
2D60
2B30
0000
ENDCHAR

STARTCHAR jisx0208_323F
ENCODING 12863
SWIDTH 960 0
DWIDTH 12 0
BBX 12 12 0 -2
BITMAP
0000
17F0
1860
3060
2F60
6D60
2D60
2F60
3060
3060
30E0
0000
ENDCHAR

STARTCHAR jisx0208_3240
ENCODING 12864
SWIDTH 960 0
DWIDTH 12 0
BBX 12 12 0 -2
BITMAP
0000
1600
1600
2FF0
35B0
75B0
35B0
35B0
35B0
2DB0
2BF0
0000
ENDCHAR

STARTCHAR jisx0208_3241
ENCODING 12865
SWIDTH 960 0
DWIDTH 12 0
BBX 12 12 0 -2
BITMAP
0000
1FF0
1AC0
32C0
2FF0
6AB0
2AB0
2AB0
2AB0
2AB0
2FF0
0000
ENDCHAR

STARTCHAR jisx0208_3242
ENCODING 12866
SWIDTH 960 0
DWIDTH 12 0
BBX 12 12 0 -2
BITMAP
0000
1980
17E0
3180
3180
6FF0
3180
37E0
3180
3180
2FF0
0000
ENDCHAR

STARTCHAR jisx0208_3243
ENCODING 12867
SWIDTH 960 0
DWIDTH 12 0
BBX 12 12 0 -2
BITMAP
0000
3000
7DF0
35B0
35B0
35B0
35B0
35B0
35B0
65B0
5DF0
0000
ENDCHAR

STARTCHAR jisx0208_3244
ENCODING 12868
SWIDTH 960 0
DWIDTH 12 0
BBX 12 12 0 -2
BITMAP
0000
7FF0
00C0
00C0
3EC0
36C0
36C0
3EC0
00C0
00C0
03C0
0000
ENDCHAR

STARTCHAR jisx0208_3245
ENCODING 12869
SWIDTH 960 0
DWIDTH 12 0
BBX 12 12 0 -2
BITMAP
0000
0600
7FF0
0600
3FE0
18C0
1FC0
1980
7FF0
35B0
6DF0
0000
ENDCHAR

STARTCHAR jisx0208_3246
ENCODING 12870
SWIDTH 960 0
DWIDTH 12 0
BBX 12 12 0 -2
BITMAP
0000
7FF0
0600
1FC0
18C0
1FC0
18C0
1FC0
6D80
0700
7DF0
0000
ENDCHAR

STARTCHAR jisx0208_3247
ENCODING 12871
SWIDTH 960 0
DWIDTH 12 0
BBX 12 12 0 -2
BITMAP
0000
3180
37F0
7630
5BE0
5730
5B60
55C0
32E0
36B0
6380
0000
ENDCHAR

STARTCHAR jisx0208_3248
ENCODING 12872
SWIDTH 960 0
DWIDTH 12 0
BBX 12 12 0 -2
BITMAP
0000
0600
7FF0
6030
1FC0
0B60
35C0
0B80
35C0
0D70
3700
0000
ENDCHAR

STARTCHAR jisx0208_3249
ENCODING 12873
SWIDTH 960 0
DWIDTH 12 0
BBX 12 12 0 -2
BITMAP
0000
0600
7FF0
58B0
1FC0
18C0
7FF0
18C0
3FE0
6CB0
1B80
0000
ENDCHAR

STARTCHAR jisx0208_324A
ENCODING 12874
SWIDTH 960 0
DWIDTH 12 0
BBX 12 12 0 -2
BITMAP
0000
0B60
7960
1860
7B60
1960
3C60
58F0
1B60
1860
1860
0000
ENDCHAR

STARTCHAR jisx0208_324B
ENCODING 12875
SWIDTH 960 0
DWIDTH 12 0
BBX 12 12 0 -2
BITMAP
0000
0770
75B0
5770
5600
76F0
57B0
56B0
7760
0660
06B0
0000
ENDCHAR

STARTCHAR jisx0208_324C
ENCODING 12876
SWIDTH 960 0
DWIDTH 12 0
BBX 12 12 0 -2
BITMAP
0000
3FE0
3660
3FE0
3660
3FE0
0600
7FF0
1580
36C0
6670
0000
ENDCHAR

STARTCHAR jisx0208_324D
ENCODING 12877
SWIDTH 960 0
DWIDTH 12 0
BBX 12 12 0 -2
BITMAP
0000
1800
7DF0
35B0
35B0
5DF0
0600
7FF0
0D80
16C0
7670
0000
ENDCHAR

STARTCHAR jisx0208_324E
ENCODING 12878
SWIDTH 960 0
DWIDTH 12 0
BBX 12 12 0 -2
BITMAP
0000
7D80
0DF0
6AB0
6CB0
00C0
7EC0
0CC0
6D60
6D60
1B30
0000
ENDCHAR

STARTCHAR jisx0208_324F
ENCODING 12879
SWIDTH 960 0
DWIDTH 12 0
BBX 12 12 0 -2
BITMAP
0000
6FF0
3060
0060
6F60
2D60
0D60
2F60
3060
6060
61E0
0000
ENDCHAR

STARTCHAR jisx0208_3250
ENCODING 12880
SWIDTH 960 0
DWIDTH 12 0
BBX 12 12 0 -2
BITMAP
0000
0600
0660
3660
36C0
6600
0B00
0B00
1980
30C0
6070
0000
ENDCHAR

STARTCHAR jisx0208_3251
ENCODING 12881
SWIDTH 960 0
DWIDTH 12 0
BBX 12 12 0 -2
BITMAP
0000
77F0
3060
3060
3760
7560
3560
3760
3860
7060
01E0
0000
ENDCHAR

STARTCHAR jisx0208_3252
ENCODING 12882
SWIDTH 960 0
DWIDTH 12 0
BBX 12 12 0 -2
BITMAP
0000
37E0
3660
75E0
1560
2FF0
7C30
2BB0
2AB0
2BB0
2C70
0000
ENDCHAR

STARTCHAR jisx0208_3253
ENCODING 12883
SWIDTH 960 0
DWIDTH 12 0
BBX 12 12 0 -2
BITMAP
0000
03C0
3E00
0600
7FF0
0F00
1580
16C0
3660
6630
0600
0000
ENDCHAR

STARTCHAR jisx0208_3254
ENCODING 12884
SWIDTH 960 0
DWIDTH 12 0
BBX 12 12 0 -2
BITMAP
0000
0D80
77F0
1630
7BE0
1730
3B60
55C0
1AE0
16B0
1B80
0000
ENDCHAR

STARTCHAR jisx0208_3255
ENCODING 12885
SWIDTH 960 0
DWIDTH 12 0
BBX 12 12 0 -2
BITMAP
0000
3180
3DF0
6B60
7FF0
6630
5FB0
6630
6FB0
6DB0
7FF0
0000
ENDCHAR

STARTCHAR jisx0208_3256
ENCODING 12886
SWIDTH 960 0
DWIDTH 12 0
BBX 12 12 0 -2
BITMAP
0000
0D80
7FF0
0D80
1B00
1B30
3360
73C0
3300
3330
33F0
0000
ENDCHAR

STARTCHAR jisx0208_3257
ENCODING 12887
SWIDTH 960 0
DWIDTH 12 0
BBX 12 12 0 -2
BITMAP
0000
0D80
7FF0
0D80
7FF0
0060
3F60
3360
3F60
0060
01E0
0000
ENDCHAR

STARTCHAR jisx0208_3258
ENCODING 12888
SWIDTH 960 0
DWIDTH 12 0
BBX 12 12 0 -2
BITMAP
0000
0D80
7FF0
0D80
3000
7DF0
35B0
35B0
35B0
65B0
5DF0
0000
ENDCHAR

STARTCHAR jisx0208_3259
ENCODING 12889
SWIDTH 960 0
DWIDTH 12 0
BBX 12 12 0 -2
BITMAP
0000
0D80
7FF0
1980
2FF0
3060
7760
3560
3760
3060
30E0
0000
ENDCHAR

STARTCHAR jisx0208_325A
ENCODING 12890
SWIDTH 960 0
DWIDTH 12 0
BBX 12 12 0 -2
BITMAP
0000
0D80
7FF0
0D80
3FE0
16C0
7FF0
16C0
7FF0
0600
0600
0000
ENDCHAR

STARTCHAR jisx0208_325B
ENCODING 12891
SWIDTH 960 0
DWIDTH 12 0
BBX 12 12 0 -2
BITMAP
0000
0D80
7FF0
3660
3FE0
3660
3FE0
0600
7FF0
1580
76F0
0000
ENDCHAR

STARTCHAR jisx0208_325C
ENCODING 12892
SWIDTH 960 0
DWIDTH 12 0
BBX 12 12 0 -2
BITMAP
0000
3770
35B0
7F70
6E00
6EF0
7FB0
36B0
3760
3E60
76B0
0000
ENDCHAR

STARTCHAR jisx0208_325D
ENCODING 12893
SWIDTH 960 0
DWIDTH 12 0
BBX 12 12 0 -2
BITMAP
0000
77E0
0560
7FE0
0560
77E0
0180
77F0
5BC0
5560
7DB0
0000
ENDCHAR

STARTCHAR jisx0208_325E
ENCODING 12894
SWIDTH 960 0
DWIDTH 12 0
BBX 12 12 0 -2
BITMAP
0000
02C0
7FF0
5AC0
5FF0
5560
5FF0
7560
0FF0
0180
0180
0000
ENDCHAR

STARTCHAR jisx0208_325F
ENCODING 12895
SWIDTH 960 0
DWIDTH 12 0
BBX 12 12 0 -2
BITMAP
0000
1B60
73C0
3330
3FF0
3060
3FE0
3060
3FE0
18C0
7070
0000
ENDCHAR

STARTCHAR jisx0208_3260
ENCODING 12896
SWIDTH 960 0
DWIDTH 12 0
BBX 12 12 0 -2
BITMAP
0000
6600
36F0
0FB0
05B0
75B0
35B0
2DB0
2AF0
3800
6FF0
0000
ENDCHAR

STARTCHAR jisx0208_3261
ENCODING 12897
SWIDTH 960 0
DWIDTH 12 0
BBX 12 12 0 -2
BITMAP
0000
67E0
3660
05E0
0560
6FF0
2AB0
2BB0
2C70
3800
6FF0
0000
ENDCHAR

STARTCHAR jisx0208_3262
ENCODING 12898
SWIDTH 960 0
DWIDTH 12 0
BBX 12 12 0 -2
BITMAP
0000
3FE0
0600
7FF0
55B0
7BE0
6C60
7BE0
6360
7DC0
6370
0000
ENDCHAR

STARTCHAR jisx0208_3263
ENCODING 12899
SWIDTH 960 0
DWIDTH 12 0
BBX 12 12 0 -2
BITMAP
0000
3180
3180
7FF0
6B60
6B60
7B60
31C0
2DC0
2B60
7630
0000
ENDCHAR

STARTCHAR jisx0208_3264
ENCODING 12900
SWIDTH 960 0
DWIDTH 12 0
BBX 12 12 0 -2
BITMAP
0000
1AE0
1EB0
36C0
2FF0
76C0
36B0
36B0
2E60
36F0
2DB0
0000
ENDCHAR

STARTCHAR jisx0208_3265
ENCODING 12901
SWIDTH 960 0
DWIDTH 12 0
BBX 12 12 0 -2
BITMAP
0000
31E0
2EB0
32C0
6FF0
6AC0
6AB0
6BB0
7F60
02F0
07B0
0000
ENDCHAR

STARTCHAR jisx0208_3266
ENCODING 12902
SWIDTH 960 0
DWIDTH 12 0
BBX 12 12 0 -2
BITMAP
0000
0D60
79B0
1980
7FF0
1980
15B0
3D60
58C0
19B0
3770
0000
ENDCHAR

STARTCHAR jisx0208_3267
ENCODING 12903
SWIDTH 960 0
DWIDTH 12 0
BBX 12 12 0 -2
BITMAP
0000
3FE0
1980
1980
1980
7FF0
0580
0D80
1980
7180
0780
0000
ENDCHAR

STARTCHAR jisx0208_3268
ENCODING 12904
SWIDTH 960 0
DWIDTH 12 0
BBX 12 12 0 -2
BITMAP
0000
7FF0
0600
1FC0
56B0
5FB0
56B0
56B0
5FB0
6030
7FF0
0000
ENDCHAR

STARTCHAR jisx0208_3269
ENCODING 12905
SWIDTH 960 0
DWIDTH 12 0
BBX 12 12 0 -2
BITMAP
0000
7EC0
58C0
58C0
7EC0
66C0
7D60
5960
5960
7F30
0330
0000
ENDCHAR

STARTCHAR jisx0208_326A
ENCODING 12906
SWIDTH 960 0
DWIDTH 12 0
BBX 12 12 0 -2
BITMAP
0000
0D80
7FF0
0D80
3FE0
18C0
7FF0
02C0
06C0
1CC0
71C0
0000
ENDCHAR

STARTCHAR jisx0208_326B
ENCODING 12907
SWIDTH 960 0
DWIDTH 12 0
BBX 12 12 0 -2
BITMAP
0000
31E0
36B0
7AC0
6FF0
6AC0
7AB0
33B0
2F60
2AF0
77B0
0000
ENDCHAR

STARTCHAR jisx0208_326C
ENCODING 12908
SWIDTH 960 0
DWIDTH 12 0
BBX 12 12 0 -2
BITMAP
0000
3000
7DF0
35B0
6DF0
3FE0
3060
3FE0
3060
3FE0
7070
0000
ENDCHAR

STARTCHAR jisx0208_326D
ENCODING 12909
SWIDTH 960 0
DWIDTH 12 0
BBX 12 12 0 -2
BITMAP
0000
7D60
2D60
2BF0
2D60
7DF0
1D60
2DF0
6D60
0D60
1DF0
0000
ENDCHAR

STARTCHAR jisx0208_326E
ENCODING 12910
SWIDTH 960 0
DWIDTH 12 0
BBX 12 12 0 -2
BITMAP
0000
19E0
2EB0
5AC0
3FF0
2AC0
2AB0
3BB0
3760
2AF0
77B0
0000
ENDCHAR

STARTCHAR jisx0208_326F
ENCODING 12911
SWIDTH 960 0
DWIDTH 12 0
BBX 12 12 0 -2
BITMAP
0000
3000
7DF0
35B0
5FF0
1B00
1FE0
1B00
1FF0
3030
5560
0000
ENDCHAR

STARTCHAR jisx0208_3270
ENCODING 12912
SWIDTH 960 0
DWIDTH 12 0
BBX 12 12 0 -2
BITMAP
0000
0700
0D80
18C0
7070
18C0
18C0
18C0
18C0
30C0
60C0
0000
ENDCHAR

STARTCHAR jisx0208_3271
ENCODING 12913
SWIDTH 960 0
DWIDTH 12 0
BBX 12 12 0 -2
BITMAP
0000
0700
0D80
18C0
6F70
0000
0000
7FF0
0CC0
19E0
7F30
0000
ENDCHAR

STARTCHAR jisx0208_3272
ENCODING 12914
SWIDTH 960 0
DWIDTH 12 0
BBX 12 12 0 -2
BITMAP
0000
3DF0
6CB0
7D70
5660
7D60
55F0
7E60
65F0
6660
6E60
0000
ENDCHAR

STARTCHAR jisx0208_3273
ENCODING 12915
SWIDTH 960 0
DWIDTH 12 0
BBX 12 12 0 -2
BITMAP
0000
7FE0
6060
5F60
5960
5960
5960
5F60
6060
6060
7FE0
0000
ENDCHAR

STARTCHAR jisx0208_3274
ENCODING 12916
SWIDTH 960 0
DWIDTH 12 0
BBX 12 12 0 -2
BITMAP
0000
3300
37E0
7560
37E0
3560
37E0
3560
75F0
0D80
39F0
0000
ENDCHAR

STARTCHAR jisx0208_3275
ENCODING 12917
SWIDTH 960 0
DWIDTH 12 0
BBX 12 12 0 -2
BITMAP
0000
3180
2FF0
7AB0
2FF0
3180
2FF0
3AC0
6EB0
0660
0FB0
0000
ENDCHAR

STARTCHAR jisx0208_3276
ENCODING 12918
SWIDTH 960 0
DWIDTH 12 0
BBX 12 12 0 -2
BITMAP
0000
7BF0
1B30
33B0
3AB0
0AB0
2BB0
6B30
1BF0
2C00
67F0
0000
ENDCHAR

STARTCHAR jisx0208_3277
ENCODING 12919
SWIDTH 960 0
DWIDTH 12 0
BBX 12 12 0 -2
BITMAP
0000
1980
1BE0
5960
5960
5960
17F0
1980
1AC0
1B60
1630
0000
ENDCHAR

STARTCHAR jisx0208_3278
ENCODING 12920
SWIDTH 960 0
DWIDTH 12 0
BBX 12 12 0 -2
BITMAP
0000
37E0
3B60
6B60
71C0
7770
3180
3180
37E0
3180
2FF0
0000
ENDCHAR

STARTCHAR jisx0208_3279
ENCODING 12921
SWIDTH 960 0
DWIDTH 12 0
BBX 12 12 0 -2
BITMAP
0000
3600
37F0
6D60
7560
6FF0
3560
3560
37F0
3060
31C0
0000
ENDCHAR

STARTCHAR jisx0208_327A
ENCODING 12922
SWIDTH 960 0
DWIDTH 12 0
BBX 12 12 0 -2
BITMAP
0000
2FF0
2C00
6CC0
6AB0
6EE0
2CC0
2CC0
2D60
2D60
3B30
0000
ENDCHAR

STARTCHAR jisx0208_327B
ENCODING 12923
SWIDTH 960 0
DWIDTH 12 0
BBX 12 12 0 -2
BITMAP
0000
3180
2FF0
7AB0
6FF0
7180
2FF0
32C0
2EB0
3660
2FB0
0000
ENDCHAR

STARTCHAR jisx0208_327C
ENCODING 12924
SWIDTH 960 0
DWIDTH 12 0
BBX 12 12 0 -2
BITMAP
0000
0160
01B0
7FF0
0180
2D60
7D60
2D60
2CC0
6DB0
6370
0000
ENDCHAR

STARTCHAR jisx0208_327D
ENCODING 12925
SWIDTH 960 0
DWIDTH 12 0
BBX 12 12 0 -2
BITMAP
0000
33E0
3360
7B60
33E0
3800
77F0
31B0
31B0
3330
6EE0
0000
ENDCHAR

STARTCHAR jisx0208_327E
ENCODING 12926
SWIDTH 960 0
DWIDTH 12 0
BBX 12 12 0 -2
BITMAP
0000
0300
7BF0
0B60
0F60
7B60
6360
61C0
6DC0
7B60
0630
0000
ENDCHAR

STARTCHAR jisx0208_3321
ENCODING 13089
SWIDTH 960 0
DWIDTH 12 0
BBX 12 12 0 -2
BITMAP
0000
3360
7D60
5760
7D60
5670
7DE0
0B60
2F60
2C30
6FF0
0000
ENDCHAR

STARTCHAR jisx0208_3322
ENCODING 13090
SWIDTH 960 0
DWIDTH 12 0
BBX 12 12 0 -2
BITMAP
0000
0600
77F0
5D60
5560
7FF0
5560
5560
77F0
0060
01C0
0000
ENDCHAR

STARTCHAR jisx0208_3323
ENCODING 13091
SWIDTH 960 0
DWIDTH 12 0
BBX 12 12 0 -2
BITMAP
0000
3070
3060
77F0
3060
7560
6FF0
3570
3560
2CF0
31B0
0000
ENDCHAR

STARTCHAR jisx0208_3324
ENCODING 13092
SWIDTH 960 0
DWIDTH 12 0
BBX 12 12 0 -2
BITMAP
0000
6600
37F0
0D60
6560
2FF0
0560
3560
37F0
6060
61C0
0000
ENDCHAR

STARTCHAR jisx0208_3325
ENCODING 13093
SWIDTH 960 0
DWIDTH 12 0
BBX 12 12 0 -2
BITMAP
0000
3FF0
3000
3180
35B0
35B0
2D60
32C0
32C0
6660
6C30
0000
ENDCHAR

STARTCHAR jisx0208_3326
ENCODING 13094
SWIDTH 960 0
DWIDTH 12 0
BBX 12 12 0 -2
BITMAP
0000
3FE0
3660
3FE0
3660
3FE0
18C0
7970
1980
1980
3180
0000
ENDCHAR

STARTCHAR jisx0208_3327
ENCODING 13095
SWIDTH 960 0
DWIDTH 12 0
BBX 12 12 0 -2
BITMAP
0000
31B0
3DE0
31B0
3DF0
7600
1FC0
18C0
1FC0
18C0
1FC0
0000
ENDCHAR

STARTCHAR jisx0208_3328
ENCODING 13096
SWIDTH 960 0
DWIDTH 12 0
BBX 12 12 0 -2
BITMAP
0000
31C0
6B60
3630
33E0
7C00
17F0
5D80
5B60
5B70
17B0
0000
ENDCHAR

STARTCHAR jisx0208_3329
ENCODING 13097
SWIDTH 960 0
DWIDTH 12 0
BBX 12 12 0 -2
BITMAP
0000
0D80
7FF0
0D80
0700
0D80
18C0
6D70
0D80
1980
3180
0000
ENDCHAR

STARTCHAR jisx0208_332A
ENCODING 13098
SWIDTH 960 0
DWIDTH 12 0
BBX 12 12 0 -2
BITMAP
0000
3BF0
6DB0
7F60
7DF0
5560
7FF0
3660
3FE0
0660
7FB0
0000
ENDCHAR

STARTCHAR jisx0208_332B
ENCODING 13099
SWIDTH 960 0
DWIDTH 12 0
BBX 12 12 0 -2
BITMAP
0000
7DF0
6DB0
7DF0
6030
5FB0
6DB0
5FB0
6DB0
6DB0
5970
0000
ENDCHAR

STARTCHAR jisx0208_332C
ENCODING 13100
SWIDTH 960 0
DWIDTH 12 0
BBX 12 12 0 -2
BITMAP
0000
76B0
57E0
56C0
77B0
5EF0
5B00
57E0
77E0
6660
67E0
0000
ENDCHAR

STARTCHAR jisx0208_332D
ENCODING 13101
SWIDTH 960 0
DWIDTH 12 0
BBX 12 12 0 -2
BITMAP
0000
3FE0
3060
3FE0
3060
3FE0
3060
3060
3FE0
18C0
7070
0000
ENDCHAR

STARTCHAR jisx0208_332E
ENCODING 13102
SWIDTH 960 0
DWIDTH 12 0
BBX 12 12 0 -2
BITMAP
0000
55E0
7D60
0160
7D60
0160
7D60
6560
7D60
2B70
7B70
0000
ENDCHAR

STARTCHAR jisx0208_332F
ENCODING 13103
SWIDTH 960 0
DWIDTH 12 0
BBX 12 12 0 -2
BITMAP
0000
18C0
7EC0
33F0
6CB0
38B0
36B0
6CB0
19B0
2DB0
6760
0000
ENDCHAR

STARTCHAR jisx0208_3330
ENCODING 13104
SWIDTH 960 0
DWIDTH 12 0
BBX 12 12 0 -2
BITMAP
0000
18C0
18C0
3EC0
35C0
76E0
5CB0
0CC0
18C0
30C0
60C0
0000
ENDCHAR

STARTCHAR jisx0208_3331
ENCODING 13105
SWIDTH 960 0
DWIDTH 12 0
BBX 12 12 0 -2
BITMAP
0000
0180
77F0
5980
5760
5AC0
59B0
5B60
76C0
0160
0730
0000
ENDCHAR

STARTCHAR jisx0208_3332
ENCODING 13106
SWIDTH 960 0
DWIDTH 12 0
BBX 12 12 0 -2
BITMAP
0000
0600
7FF0
6630
3FE0
1FC0
0600
7FF0
18C0
18C0
1FC0
0000
ENDCHAR

STARTCHAR jisx0208_3333
ENCODING 13107
SWIDTH 960 0
DWIDTH 12 0
BBX 12 12 0 -2
BITMAP
0000
1B60
1FE0
0000
3FF0
3180
2FF0
3180
37E0
6180
6FF0
0000
ENDCHAR

STARTCHAR jisx0208_3334
ENCODING 13108
SWIDTH 960 0
DWIDTH 12 0
BBX 12 12 0 -2
BITMAP
0000
2FF0
3D60
6F60
6D60
6FF0
2C60
2AE0
2AE0
2D70
3370
0000
ENDCHAR

STARTCHAR jisx0208_3335
ENCODING 13109
SWIDTH 960 0
DWIDTH 12 0
BBX 12 12 0 -2
BITMAP
0000
2FF0
2D60
7F60
2D60
6FF0
6C60
2AE0
2AE0
2D70
3370
0000
ENDCHAR

STARTCHAR jisx0208_3336
ENCODING 13110
SWIDTH 960 0
DWIDTH 12 0
BBX 12 12 0 -2
BITMAP
0000
6FF0
2D80
0BE0
6D80
2FF0
0D80
2BE0
2D80
5980
57F0
0000
ENDCHAR

STARTCHAR jisx0208_3337
ENCODING 13111
SWIDTH 960 0
DWIDTH 12 0
BBX 12 12 0 -2
BITMAP
0000
7BE0
3360
33E0
3B60
6FF0
6C60
2FF0
2C60
3B60
00E0
0000
ENDCHAR

STARTCHAR jisx0208_3338
ENCODING 13112
SWIDTH 960 0
DWIDTH 12 0
BBX 12 12 0 -2
BITMAP
0000
0D80
7FF0
0600
7FF0
18C0
3F60
0000
3FE0
2B60
7FF0
0000
ENDCHAR

STARTCHAR jisx0208_3339
ENCODING 13113
SWIDTH 960 0
DWIDTH 12 0
BBX 12 12 0 -2
BITMAP
0000
3370
6F80
1B00
2F70
7330
2FB0
3330
33B0
2F30
3070
0000
ENDCHAR

STARTCHAR jisx0208_333A
ENCODING 13114
SWIDTH 960 0
DWIDTH 12 0
BBX 12 12 0 -2
BITMAP
0000
78C0
07F0
7D80
0360
79C0
01B0
7760
58C0
5960
7730
0000
ENDCHAR

STARTCHAR jisx0208_333B
ENCODING 13115
SWIDTH 960 0
DWIDTH 12 0
BBX 12 12 0 -2
BITMAP
0000
1AB0
2BF0
6000
3BF0
1800
7BF0
1B30
5BF0
1D60
77F0
0000
ENDCHAR

STARTCHAR jisx0208_333C
ENCODING 13116
SWIDTH 960 0
DWIDTH 12 0
BBX 12 12 0 -2
BITMAP
0000
3CC0
3FF0
2D80
7F30
6560
3CC0
2BB0
3C60
2CE0
2BB0
0000
ENDCHAR

STARTCHAR jisx0208_333D
ENCODING 13117
SWIDTH 960 0
DWIDTH 12 0
BBX 12 12 0 -2
BITMAP
0000
67E0
3560
07E0
6560
37E0
0180
37E0
3180
6180
6FF0
0000
ENDCHAR

STARTCHAR jisx0208_333E
ENCODING 13118
SWIDTH 960 0
DWIDTH 12 0
BBX 12 12 0 -2
BITMAP
0000
19E0
7D60
1BF0
7EC0
6160
7FF0
16C0
7FF0
18C0
1FC0
0000
ENDCHAR

STARTCHAR jisx0208_333F
ENCODING 13119
SWIDTH 960 0
DWIDTH 12 0
BBX 12 12 0 -2
BITMAP
0000
3180
33E0
7D80
6D80
6BF0
7D80
33E0
2D80
2D80
77F0
0000
ENDCHAR

STARTCHAR jisx0208_3340
ENCODING 13120
SWIDTH 960 0
DWIDTH 12 0
BBX 12 12 0 -2
BITMAP
0000
37F0
3000
7BE0
3360
33E0
3360
3B60
73E0
0000
0FF0
0000
ENDCHAR

STARTCHAR jisx0208_3341
ENCODING 13121
SWIDTH 960 0
DWIDTH 12 0
BBX 12 12 0 -2
BITMAP
0000
18C0
17F0
7CC0
1BF0
3AB0
3AB0
5AB0
1AB0
1AF0
18C0
0000
ENDCHAR

STARTCHAR jisx0208_3342
ENCODING 13122
SWIDTH 960 0
DWIDTH 12 0
BBX 12 12 0 -2
BITMAP
0000
33F0
3300
7BF0
6AC0
6AC0
7AF0
32B0
2AB0
2AB0
7560
0000
ENDCHAR

STARTCHAR jisx0208_3343
ENCODING 13123
SWIDTH 960 0
DWIDTH 12 0
BBX 12 12 0 -2
BITMAP
0000
1980
2DF0
6330
3E30
19B0
7D70
1BF0
5830
1C30
70E0
0000
ENDCHAR

STARTCHAR jisx0208_3344
ENCODING 13124
SWIDTH 960 0
DWIDTH 12 0
BBX 12 12 0 -2
BITMAP
0000
0C30
3EB0
0AB0
7FB0
0AB0
3EB0
0CB0
7FB0
2B30
7F70
0000
ENDCHAR

STARTCHAR jisx0208_3345
ENCODING 13125
SWIDTH 960 0
DWIDTH 12 0
BBX 12 12 0 -2
BITMAP
0000
06C0
7FF0
56C0
5FF0
5560
5560
7770
1560
1560
2EE0
0000
ENDCHAR

STARTCHAR jisx0208_3346
ENCODING 13126
SWIDTH 960 0
DWIDTH 12 0
BBX 12 12 0 -2
BITMAP
0000
0C00
1FC0
38C0
6D80
0700
1DC0
7FF0
18C0
18C0
1FC0
0000
ENDCHAR

STARTCHAR jisx0208_3347
ENCODING 13127
SWIDTH 960 0
DWIDTH 12 0
BBX 12 12 0 -2
BITMAP
0000
0300
3FF0
3600
3FF0
2AB0
2EE0
36B0
3EB0
66E0
6EC0
0000
ENDCHAR

STARTCHAR jisx0208_3348
ENCODING 13128
SWIDTH 960 0
DWIDTH 12 0
BBX 12 12 0 -2
BITMAP
0000
30C0
37F0
7600
36C0
36C0
76C0
3580
3560
2D70
6BB0
0000
ENDCHAR

STARTCHAR jisx0208_3349
ENCODING 13129
SWIDTH 960 0
DWIDTH 12 0
BBX 12 12 0 -2
BITMAP
0000
3560
2FF0
7C30
37E0
3660
77E0
3660
37E0
32B0
6EF0
0000
ENDCHAR

STARTCHAR jisx0208_334A
ENCODING 13130
SWIDTH 960 0
DWIDTH 12 0
BBX 12 12 0 -2
BITMAP
0000
1B00
1BE0
7F60
19C0
3B60
3630
5BE0
1B60
1B60
1BE0
0000
ENDCHAR

STARTCHAR jisx0208_334B
ENCODING 13131
SWIDTH 960 0
DWIDTH 12 0
BBX 12 12 0 -2
BITMAP
0000
1980
17F0
7D80
1B60
3DC0
39B0
5760
18C0
1960
1730
0000
ENDCHAR

STARTCHAR jisx0208_334C
ENCODING 13132
SWIDTH 960 0
DWIDTH 12 0
BBX 12 12 0 -2
BITMAP
0000
19E0
7D60
1B70
7E00
03E0
7D60
6560
3CC0
2D60
6B30
0000
ENDCHAR

STARTCHAR jisx0208_334D
ENCODING 13133
SWIDTH 960 0
DWIDTH 12 0
BBX 12 12 0 -2
BITMAP
0000
5B60
2FF0
36C0
57F0
1FF0
36C0
57F0
1B60
19C0
6F70
0000
ENDCHAR

STARTCHAR jisx0208_334E
ENCODING 13134
SWIDTH 960 0
DWIDTH 12 0
BBX 12 12 0 -2
BITMAP
0000
0180
7FF0
15B0
1AC0
37F0
3AC0
6BF0
2AC0
3AC0
03F0
0000
ENDCHAR

STARTCHAR jisx0208_334F
ENCODING 13135
SWIDTH 960 0
DWIDTH 12 0
BBX 12 12 0 -2
BITMAP
0000
0D60
77F0
1B60
7BF0
17F0
3AC0
5BF0
1B60
19C0
1770
0000
ENDCHAR

STARTCHAR jisx0208_3350
ENCODING 13136
SWIDTH 960 0
DWIDTH 12 0
BBX 12 12 0 -2
BITMAP
0000
3660
7FF0
58B0
5FB0
18C0
1FC0
18C0
1FC0
0DB0
79F0
0000
ENDCHAR

STARTCHAR jisx0208_3351
ENCODING 13137
SWIDTH 960 0
DWIDTH 12 0
BBX 12 12 0 -2
BITMAP
0000
1F00
3300
7FE0
3660
3FE0
3660
3FE0
3060
3060
61E0
0000
ENDCHAR

STARTCHAR jisx0208_3352
ENCODING 13138
SWIDTH 960 0
DWIDTH 12 0
BBX 12 12 0 -2
BITMAP
0000
1980
3FE0
1980
7FF0
2AC0
6AB0
6AB0
2AB0
2AC0
5DC0
0000
ENDCHAR

STARTCHAR jisx0208_3353
ENCODING 13139
SWIDTH 960 0
DWIDTH 12 0
BBX 12 12 0 -2
BITMAP
0000
30C0
7BF0
6C00
7D60
6B30
7C00
3160
7CC0
3160
3730
0000
ENDCHAR

STARTCHAR jisx0208_3354
ENCODING 13140
SWIDTH 960 0
DWIDTH 12 0
BBX 12 12 0 -2
BITMAP
0000
18F0
7EB0
36B0
3EE0
00B0
3CB0
18B0
7EE0
18C0
38C0
0000
ENDCHAR

STARTCHAR jisx0208_3355
ENCODING 13141
SWIDTH 960 0
DWIDTH 12 0
BBX 12 12 0 -2
BITMAP
0000
7DF0
6DB0
7DF0
6630
6FB0
5DB0
6730
5FB0
6DB0
6F70
0000
ENDCHAR

STARTCHAR jisx0208_3356
ENCODING 13142
SWIDTH 960 0
DWIDTH 12 0
BBX 12 12 0 -2
BITMAP
0000
77F0
5B60
5BE0
7000
57F0
55B0
56F0
7630
67B0
6570
0000
ENDCHAR

STARTCHAR jisx0208_3357
ENCODING 13143
SWIDTH 960 0
DWIDTH 12 0
BBX 12 12 0 -2
BITMAP
0000
0D80
7FF0
0D80
3FE0
3660
3FE0
0600
7FF0
0600
0600
0000
ENDCHAR

STARTCHAR jisx0208_3358
ENCODING 13144
SWIDTH 960 0
DWIDTH 12 0
BBX 12 12 0 -2
BITMAP
0000
3660
7FF0
6030
5FB0
0300
0600
7FF0
0600
0600
0E00
0000
ENDCHAR

STARTCHAR jisx0208_3359
ENCODING 13145
SWIDTH 960 0
DWIDTH 12 0
BBX 12 12 0 -2
BITMAP
0000
01C0
3F00
3000
3FE0
3180
7FF0
0600
3660
3660
3FE0
0000
ENDCHAR

STARTCHAR jisx0208_335A
ENCODING 13146
SWIDTH 960 0
DWIDTH 12 0
BBX 12 12 0 -2
BITMAP
0000
6630
3F60
1F80
3960
5FB0
0600
7FF0
0F00
15C0
7670
0000
ENDCHAR

STARTCHAR jisx0208_335B
ENCODING 13147
SWIDTH 960 0
DWIDTH 12 0
BBX 12 12 0 -2
BITMAP
0000
19F0
7EC0
55F0
3DB0
6DF0
39B0
6DB0
3DF0
2D60
3B30
0000
ENDCHAR

STARTCHAR jisx0208_335C
ENCODING 13148
SWIDTH 960 0
DWIDTH 12 0
BBX 12 12 0 -2
BITMAP
0000
7DF0
56C0
7DF0
01B0
7DF0
31B0
3DB0
65F0
0560
1B30
0000
ENDCHAR

STARTCHAR jisx0208_335D
ENCODING 13149
SWIDTH 960 0
DWIDTH 12 0
BBX 12 12 0 -2
BITMAP
0000
3660
2F60
7660
3660
3F70
7660
2F60
3660
3660
6F60
0000
ENDCHAR

STARTCHAR jisx0208_335E
ENCODING 13150
SWIDTH 960 0
DWIDTH 12 0
BBX 12 12 0 -2
BITMAP
0000
3300
3FF0
6CC0
0600
0600
3FE0
00C0
18C0
0D80
7FF0
0000
ENDCHAR

STARTCHAR jisx0208_335F
ENCODING 13151
SWIDTH 960 0
DWIDTH 12 0
BBX 12 12 0 -2
BITMAP
0000
2FF0
2AB0
7FB0
2B60
7FB0
7180
3180
37E0
3180
2FF0
0000
ENDCHAR

STARTCHAR jisx0208_3360
ENCODING 13152
SWIDTH 960 0
DWIDTH 12 0
BBX 12 12 0 -2
BITMAP
0000
2FF0
37E0
7560
37E0
7800
6FF0
3560
37E0
3560
2FF0
0000
ENDCHAR

STARTCHAR jisx0208_3361
ENCODING 13153
SWIDTH 960 0
DWIDTH 12 0
BBX 12 12 0 -2
BITMAP
0000
37F0
3630
77F0
3660
75C0
76F0
37C0
36F0
2BC0
2CF0
0000
ENDCHAR

STARTCHAR jisx0208_3362
ENCODING 13154
SWIDTH 960 0
DWIDTH 12 0
BBX 12 12 0 -2
BITMAP
0000
3960
5760
7B70
57E0
7B60
5760
7B60
0360
5AB0
5BB0
0000
ENDCHAR

STARTCHAR jisx0208_3363
ENCODING 13155
SWIDTH 960 0
DWIDTH 12 0
BBX 12 12 0 -2
BITMAP
0000
6300
2EE0
0C60
6DE0
2C60
0FE0
3600
2FF0
6030
6AE0
0000
ENDCHAR

STARTCHAR jisx0208_3364
ENCODING 13156
SWIDTH 960 0
DWIDTH 12 0
BBX 12 12 0 -2
BITMAP
0000
1830
7EB0
5AB0
3EB0
3EB0
18B0
7EB0
36B0
3630
3E70
0000
ENDCHAR

STARTCHAR jisx0208_3365
ENCODING 13157
SWIDTH 960 0
DWIDTH 12 0
BBX 12 12 0 -2
BITMAP
0000
07E0
77E0
5660
57E0
5B00
57F0
5DB0
7730
07B0
0060
0000
ENDCHAR

STARTCHAR jisx0208_3366
ENCODING 13158
SWIDTH 960 0
DWIDTH 12 0
BBX 12 12 0 -2
BITMAP
0000
19C0
1B60
5630
5BE0
5800
1800
1BE0
1B60
1B60
1BE0
0000
ENDCHAR

STARTCHAR jisx0208_3367
ENCODING 13159
SWIDTH 960 0
DWIDTH 12 0
BBX 12 12 0 -2
BITMAP
0000
30E0
3780
7980
2FF0
3980
7180
37E0
3660
3660
77E0
0000
ENDCHAR

STARTCHAR jisx0208_3368
ENCODING 13160
SWIDTH 960 0
DWIDTH 12 0
BBX 12 12 0 -2
BITMAP
0000
60E0
3780
0180
6FF0
3180
0180
37E0
3660
6660
67E0
0000
ENDCHAR

STARTCHAR jisx0208_3369
ENCODING 13161
SWIDTH 960 0
DWIDTH 12 0
BBX 12 12 0 -2
BITMAP
0000
6FE0
2FE0
0C60
6FE0
3600
07F0
2DB0
3730
67B0
6060
0000
ENDCHAR

STARTCHAR jisx0208_336A
ENCODING 13162
SWIDTH 960 0
DWIDTH 12 0
BBX 12 12 0 -2
BITMAP
0000
67E0
3660
05E0
6560
2FF0
0E70
37E0
3660
6660
66E0
0000
ENDCHAR

STARTCHAR jisx0208_336B
ENCODING 13163
SWIDTH 960 0
DWIDTH 12 0
BBX 12 12 0 -2
BITMAP
0000
0D80
7FF0
18C0
1FC0
18C0
3FF0
5B30
1E30
19B0
1F60
0000
ENDCHAR

STARTCHAR jisx0208_336C
ENCODING 13164
SWIDTH 960 0
DWIDTH 12 0
BBX 12 12 0 -2
BITMAP
0000
37E0
37E0
7660
17E0
2B00
77F0
2DB0
3730
37B0
3060
0000
ENDCHAR

STARTCHAR jisx0208_336D
ENCODING 13165
SWIDTH 960 0
DWIDTH 12 0
BBX 12 12 0 -2
BITMAP
0000
3180
7FF0
6DB0
7BE0
6D80
7FF0
3000
7BE0
3360
33E0
0000
ENDCHAR

STARTCHAR jisx0208_336E
ENCODING 13166
SWIDTH 960 0
DWIDTH 12 0
BBX 12 12 0 -2
BITMAP
0000
1FC0
18C0
18C0
1FC0
18C0
18C0
1FC0
18C0
18C0
7FF0
0000
ENDCHAR

STARTCHAR jisx0208_336F
ENCODING 13167
SWIDTH 960 0
DWIDTH 12 0
BBX 12 12 0 -2
BITMAP
0000
37F0
55B0
7FB0
5560
7D60
57B0
7D80
03E0
5980
57F0
0000
ENDCHAR

STARTCHAR jisx0208_3370
ENCODING 13168
SWIDTH 960 0
DWIDTH 12 0
BBX 12 12 0 -2
BITMAP
0000
00C0
7CC0
6CC0
6BF0
6CC0
6CC0
6CC0
7CC0
00C0
00C0
0000
ENDCHAR

STARTCHAR jisx0208_3371
ENCODING 13169
SWIDTH 960 0
DWIDTH 12 0
BBX 12 12 0 -2
BITMAP
0000
32C0
2FF0
7800
32C0
7AC0
76B0
2EE0
36C0
36B0
36F0
0000
ENDCHAR

STARTCHAR jisx0208_3372
ENCODING 13170
SWIDTH 960 0
DWIDTH 12 0
BBX 12 12 0 -2
BITMAP
0000
32C0
2FF0
7AC0
2FF0
7560
6FF0
3560
2FF0
3180
3180
0000
ENDCHAR

STARTCHAR jisx0208_3373
ENCODING 13171
SWIDTH 960 0
DWIDTH 12 0
BBX 12 12 0 -2
BITMAP
0000
5B00
7BF0
5630
33B0
7CB0
6BB0
7B60
3300
7B30
33F0
0000
ENDCHAR

STARTCHAR jisx0208_3374
ENCODING 13172
SWIDTH 960 0
DWIDTH 12 0
BBX 12 12 0 -2
BITMAP
0000
3580
37F0
7D80
3180
77F0
7180
33C0
3560
2DB0
3180
0000
ENDCHAR

STARTCHAR jisx0208_3375
ENCODING 13173
SWIDTH 960 0
DWIDTH 12 0
BBX 12 12 0 -2
BITMAP
0000
1600
6F70
6DB0
6FB0
6DB0
6F70
0000
0D80
19B0
71F0
0000
ENDCHAR

STARTCHAR jisx0208_3376
ENCODING 13174
SWIDTH 960 0
DWIDTH 12 0
BBX 12 12 0 -2
BITMAP
0000
0600
7FF0
59B0
3FE0
16C0
3FE0
3660
3FE0
0630
07F0
0000
ENDCHAR

STARTCHAR jisx0208_3377
ENCODING 13175
SWIDTH 960 0
DWIDTH 12 0
BBX 12 12 0 -2
BITMAP
0000
0D80
7FF0
6160
2FF0
0180
6FF0
0DB0
2FF0
2DB0
6D70
0000
ENDCHAR

STARTCHAR jisx0208_3378
ENCODING 13176
SWIDTH 960 0
DWIDTH 12 0
BBX 12 12 0 -2
BITMAP
0000
1DC0
3760
1DC0
7070
1FC0
0600
7FF0
3660
16C0
7FF0
0000
ENDCHAR

STARTCHAR jisx0208_3379
ENCODING 13177
SWIDTH 960 0
DWIDTH 12 0
BBX 12 12 0 -2
BITMAP
0000
1B60
2FF0
62B0
3FF0
1AB0
7FF0
1AC0
56E0
1AB0
72C0
0000
ENDCHAR

STARTCHAR jisx0208_337A
ENCODING 13178
SWIDTH 960 0
DWIDTH 12 0
BBX 12 12 0 -2
BITMAP
0000
02E0
7AC0
57F0
5800
5770
55B0
57F0
75B0
0570
07F0
0000
ENDCHAR

STARTCHAR jisx0208_337B
ENCODING 13179
SWIDTH 960 0
DWIDTH 12 0
BBX 12 12 0 -2
BITMAP
0000
0180
7BE0
6BE0
7B60
6BF0
6B00
7BF0
3030
35B0
3560
0000
ENDCHAR

STARTCHAR jisx0208_337C
ENCODING 13180
SWIDTH 960 0
DWIDTH 12 0
BBX 12 12 0 -2
BITMAP
0000
37F0
3180
77F0
3630
7630
77F0
3630
3630
3630
37F0
0000
ENDCHAR

STARTCHAR jisx0208_337D
ENCODING 13181
SWIDTH 960 0
DWIDTH 12 0
BBX 12 12 0 -2
BITMAP
0000
0D80
7FF0
0D80
1FC0
0180
7FF0
0730
1B60
7300
0700
0000
ENDCHAR

STARTCHAR jisx0208_337E
ENCODING 13182
SWIDTH 960 0
DWIDTH 12 0
BBX 12 12 0 -2
BITMAP
0000
18C0
7FF0
16C0
7FF0
6030
1FC0
18C0
1FC0
18C0
7FF0
0000
ENDCHAR

STARTCHAR jisx0208_3421
ENCODING 13345
SWIDTH 960 0
DWIDTH 12 0
BBX 12 12 0 -2
BITMAP
0000
76F0
15B0
1F30
76F0
6FC0
76F0
1F30
15B0
1630
76E0
0000
ENDCHAR

STARTCHAR jisx0208_3422
ENCODING 13346
SWIDTH 960 0
DWIDTH 12 0
BBX 12 12 0 -2
BITMAP
0000
0630
65B0
35B0
2DB0
1DB0
0DB0
1DB0
15B0
3630
6070
0000
ENDCHAR

STARTCHAR jisx0208_3423
ENCODING 13347
SWIDTH 960 0
DWIDTH 12 0
BBX 12 12 0 -2
BITMAP
0000
18C0
7FF0
18C0
0C60
6D60
2D60
1960
1D60
3660
60E0
0000
ENDCHAR

STARTCHAR jisx0208_3424
ENCODING 13348
SWIDTH 960 0
DWIDTH 12 0
BBX 12 12 0 -2
BITMAP
0000
7FE0
1800
1800
1F80
1980
2D80
3580
31B0
37B0
7DF0
0000
ENDCHAR

STARTCHAR jisx0208_3425
ENCODING 13349
SWIDTH 960 0
DWIDTH 12 0
BBX 12 12 0 -2
BITMAP
0000
1980
7D80
1BF0
7E00
6DE0
7CC0
1980
7B00
1B30
19F0
0000
ENDCHAR

STARTCHAR jisx0208_3426
ENCODING 13350
SWIDTH 960 0
DWIDTH 12 0
BBX 12 12 0 -2
BITMAP
0000
17E0
1660
3660
37E0
7000
3560
3560
3560
3570
2D70
0000
ENDCHAR

STARTCHAR jisx0208_3427
ENCODING 13351
SWIDTH 960 0
DWIDTH 12 0
BBX 12 12 0 -2
BITMAP
0000
7FF0
6030
3C60
03F0
7E60
2D60
2C60
2CE0
6C30
6FF0
0000
ENDCHAR

STARTCHAR jisx0208_3428
ENCODING 13352
SWIDTH 960 0
DWIDTH 12 0
BBX 12 12 0 -2
BITMAP
0000
0600
7FF0
6DB0
3FE0
0D80
7FF0
16C0
3360
6E30
0380
0000
ENDCHAR

STARTCHAR jisx0208_3429
ENCODING 13353
SWIDTH 960 0
DWIDTH 12 0
BBX 12 12 0 -2
BITMAP
0000
7E30
19B0
19B0
19B0
7DB0
19B0
19B0
19B0
1830
1870
0000
ENDCHAR

STARTCHAR jisx0208_342A
ENCODING 13354
SWIDTH 960 0
DWIDTH 12 0
BBX 12 12 0 -2
BITMAP
0000
36C0
7EC0
35F0
3EB0
36B0
7EB0
56B0
76B0
61B0
7D60
0000
ENDCHAR

STARTCHAR jisx0208_342B
ENCODING 13355
SWIDTH 960 0
DWIDTH 12 0
BBX 12 12 0 -2
BITMAP
0000
30C0
7EC0
1BF0
7EB0
2CB0
7EB0
2CB0
3EB0
2DB0
3D60
0000
ENDCHAR

STARTCHAR jisx0208_342C
ENCODING 13356
SWIDTH 960 0
DWIDTH 12 0
BBX 12 12 0 -2
BITMAP
0000
16C0
3FE0
0D80
7FF0
18C0
3F60
61B0
1F80
1860
1FE0
0000
ENDCHAR

STARTCHAR jisx0208_342D
ENCODING 13357
SWIDTH 960 0
DWIDTH 12 0
BBX 12 12 0 -2
BITMAP
0000
0780
7D80
5FE0
5560
5DE0
5B60
5FF0
7B00
0580
1CF0
0000
ENDCHAR

STARTCHAR jisx0208_342E
ENCODING 13358
SWIDTH 960 0
DWIDTH 12 0
BBX 12 12 0 -2
BITMAP
0000
3360
37F0
7B60
33E0
3360
2FF0
3B60
6E70
0C00
0FF0
0000
ENDCHAR

STARTCHAR jisx0208_342F
ENCODING 13359
SWIDTH 960 0
DWIDTH 12 0
BBX 12 12 0 -2
BITMAP
0000
0600
7FF0
0D80
0780
3CE0
1980
7FF0
2D60
1DE0
7730
0000
ENDCHAR

STARTCHAR jisx0208_3430
ENCODING 13360
SWIDTH 960 0
DWIDTH 12 0
BBX 12 12 0 -2
BITMAP
0000
0600
7FF0
6030
5FB0
0000
7FF0
0D80
0D80
19B0
71F0
0000
ENDCHAR

STARTCHAR jisx0208_3431
ENCODING 13361
SWIDTH 960 0
DWIDTH 12 0
BBX 12 12 0 -2
BITMAP
0000
0600
7FF0
6030
5FB0
18C0
1FC0
1800
1FE0
1860
1FE0
0000
ENDCHAR

STARTCHAR jisx0208_3432
ENCODING 13362
SWIDTH 960 0
DWIDTH 12 0
BBX 12 12 0 -2
BITMAP
0000
0600
7FF0
6DB0
3FE0
18C0
1FC0
18C0
1FC0
0DB0
79F0
0000
ENDCHAR

STARTCHAR jisx0208_3433
ENCODING 13363
SWIDTH 960 0
DWIDTH 12 0
BBX 12 12 0 -2
BITMAP
0000
3FE0
0600
0600
0600
7FF0
0600
0600
0600
0600
0600
0000
ENDCHAR

STARTCHAR jisx0208_3434
ENCODING 13364
SWIDTH 960 0
DWIDTH 12 0
BBX 12 12 0 -2
BITMAP
0000
30C0
7D60
3160
7B30
6DE0
7CC0
33F0
7CC0
30C0
30C0
0000
ENDCHAR

STARTCHAR jisx0208_3435
ENCODING 13365
SWIDTH 960 0
DWIDTH 12 0
BBX 12 12 0 -2
BITMAP
0000
0600
1FC0
16C0
3FE0
3660
3FE0
0600
2B60
2CB0
6FB0
0000
ENDCHAR

STARTCHAR jisx0208_3436
ENCODING 13366
SWIDTH 960 0
DWIDTH 12 0
BBX 12 12 0 -2
BITMAP
0000
0160
3FF0
3180
3D60
36C0
5EB0
0170
2B00
2CB0
6FB0
0000
ENDCHAR

STARTCHAR jisx0208_3437
ENCODING 13367
SWIDTH 960 0
DWIDTH 12 0
BBX 12 12 0 -2
BITMAP
0000
37E0
3560
6FF0
7560
77E0
3660
37E0
3660
37E0
2E70
0000
ENDCHAR

STARTCHAR jisx0208_3438
ENCODING 13368
SWIDTH 960 0
DWIDTH 12 0
BBX 12 12 0 -2
BITMAP
0000
30B0
2FF0
6CC0
6EB0
6B60
2F70
38B0
3300
2B60
2BB0
0000
ENDCHAR

STARTCHAR jisx0208_3439
ENCODING 13369
SWIDTH 960 0
DWIDTH 12 0
BBX 12 12 0 -2
BITMAP
0000
33C0
36C0
77F0
35B0
36F0
75B0
2FF0
3180
32C0
6E70
0000
ENDCHAR

STARTCHAR jisx0208_343A
ENCODING 13370
SWIDTH 960 0
DWIDTH 12 0
BBX 12 12 0 -2
BITMAP
0000
7D80
1980
7DF0
2B60
3D60
2D60
3CC0
2EC0
7D60
0B30
0000
ENDCHAR

STARTCHAR jisx0208_343B
ENCODING 13371
SWIDTH 960 0
DWIDTH 12 0
BBX 12 12 0 -2
BITMAP
0000
1B60
1B60
7FF0
1B60
3B60
3BE0
5B60
1B60
1B60
1BE0
0000
ENDCHAR

STARTCHAR jisx0208_343C
ENCODING 13372
SWIDTH 960 0
DWIDTH 12 0
BBX 12 12 0 -2
BITMAP
0000
17F0
1800
7BE0
1B60
3BE0
3B60
5B60
1BE0
1800
17F0
0000
ENDCHAR

STARTCHAR jisx0208_343D
ENCODING 13373
SWIDTH 960 0
DWIDTH 12 0
BBX 12 12 0 -2
BITMAP
0000
1980
17F0
7E30
1BE0
3B60
3BE0
5B00
1BF0
1B30
1BF0
0000
ENDCHAR

STARTCHAR jisx0208_343E
ENCODING 13374
SWIDTH 960 0
DWIDTH 12 0
BBX 12 12 0 -2
BITMAP
0000
1980
7D80
19F0
3AB0
00C0
7EC0
18C0
5560
5560
3B30
0000
ENDCHAR

STARTCHAR jisx0208_343F
ENCODING 13375
SWIDTH 960 0
DWIDTH 12 0
BBX 12 12 0 -2
BITMAP
0000
3180
3D80
59F0
7EB0
2CC0
7EC0
2CC0
3D60
2D60
3F30
0000
ENDCHAR

STARTCHAR jisx0208_3440
ENCODING 13376
SWIDTH 960 0
DWIDTH 12 0
BBX 12 12 0 -2
BITMAP
0000
6FF0
3180
0180
6FF0
3180
0180
3180
3180
6180
6180
0000
ENDCHAR

STARTCHAR jisx0208_3441
ENCODING 13377
SWIDTH 960 0
DWIDTH 12 0
BBX 12 12 0 -2
BITMAP
0000
62C0
2FF0
02C0
6FF0
2DB0
0FF0
3180
2FF0
62C0
6E70
0000
ENDCHAR

STARTCHAR jisx0208_3442
ENCODING 13378
SWIDTH 960 0
DWIDTH 12 0
BBX 12 12 0 -2
BITMAP
0000
6EF0
2AB0
0EF0
6C30
2BB0
0AB0
2BB0
2AB0
6BB0
6C70
0000
ENDCHAR

STARTCHAR jisx0208_3443
ENCODING 13379
SWIDTH 960 0
DWIDTH 12 0
BBX 12 12 0 -2
BITMAP
0000
6600
37E0
0B00
6FF0
36C0
07F0
2EC0
37F0
66C0
67F0
0000
ENDCHAR

STARTCHAR jisx0208_3444
ENCODING 13380
SWIDTH 960 0
DWIDTH 12 0
BBX 12 12 0 -2
BITMAP
0000
0FF0
7AB0
2FF0
3000
7FF0
3660
37E0
3BB0
7560
0DB0
0000
ENDCHAR

STARTCHAR jisx0208_3445
ENCODING 13381
SWIDTH 960 0
DWIDTH 12 0
BBX 12 12 0 -2
BITMAP
0000
18C0
18C0
7FF0
18C0
18C0
1FC0
18C0
18C0
18C0
1FC0
0000
ENDCHAR

STARTCHAR jisx0208_3446
ENCODING 13382
SWIDTH 960 0
DWIDTH 12 0
BBX 12 12 0 -2
BITMAP
0000
7D80
59F0
7F00
6600
7DF0
5800
7FE0
2B60
2B60
7FF0
0000
ENDCHAR

STARTCHAR jisx0208_3447
ENCODING 13383
SWIDTH 960 0
DWIDTH 12 0
BBX 12 12 0 -2
BITMAP
0000
3FE0
0600
3FE0
0C00
7FF0
1C60
2FE0
6FE0
0C60
0FE0
0000
ENDCHAR

STARTCHAR jisx0208_3448
ENCODING 13384
SWIDTH 960 0
DWIDTH 12 0
BBX 12 12 0 -2
BITMAP
0000
3180
3DF0
6B60
3FE0
0600
0600
7FF0
0600
0600
0600
0000
ENDCHAR

STARTCHAR jisx0208_3449
ENCODING 13385
SWIDTH 960 0
DWIDTH 12 0
BBX 12 12 0 -2
BITMAP
0000
3180
3DF0
6B60
7FF0
58B0
1FC0
1800
1FE0
1860
1FE0
0000
ENDCHAR

STARTCHAR jisx0208_344A
ENCODING 13386
SWIDTH 960 0
DWIDTH 12 0
BBX 12 12 0 -2
BITMAP
0000
3180
3DF0
6B60
7DF0
6DB0
7FF0
6DB0
6FB0
6DB0
6F70
0000
ENDCHAR

STARTCHAR jisx0208_344B
ENCODING 13387
SWIDTH 960 0
DWIDTH 12 0
BBX 12 12 0 -2
BITMAP
0000
37E0
5AB0
37F0
6300
77F0
3300
33E0
7760
2DC0
3770
0000
ENDCHAR

STARTCHAR jisx0208_344C
ENCODING 13388
SWIDTH 960 0
DWIDTH 12 0
BBX 12 12 0 -2
BITMAP
0000
1800
3FE0
6600
0600
7FF0
0600
0600
3660
3660
3FE0
0000
ENDCHAR

STARTCHAR jisx0208_344D
ENCODING 13389
SWIDTH 960 0
DWIDTH 12 0
BBX 12 12 0 -2
BITMAP
0000
31C0
7B60
3630
7FF0
6DB0
7DB0
3370
7DB0
31B0
3370
0000
ENDCHAR

STARTCHAR jisx0208_344E
ENCODING 13390
SWIDTH 960 0
DWIDTH 12 0
BBX 12 12 0 -2
BITMAP
0000
3BF0
2CC0
2CC0
3CC0
2BF0
2CC0
3CC0
2CC0
6CC0
5CC0
0000
ENDCHAR

STARTCHAR jisx0208_344F
ENCODING 13391
SWIDTH 960 0
DWIDTH 12 0
BBX 12 12 0 -2
BITMAP
0000
3760
7570
57C0
5580
7F70
5800
77E0
5560
5560
5FF0
0000
ENDCHAR

STARTCHAR jisx0208_3450
ENCODING 13392
SWIDTH 960 0
DWIDTH 12 0
BBX 12 12 0 -2
BITMAP
0000
0D80
7FF0
0D80
7FF0
5FB0
0000
7FF0
0D80
19B0
71F0
0000
ENDCHAR

STARTCHAR jisx0208_3451
ENCODING 13393
SWIDTH 960 0
DWIDTH 12 0
BBX 12 12 0 -2
BITMAP
0000
31F0
3DB0
59F0
3DB0
2DF0
7DB0
2DF0
3EE0
2D60
3F70
0000
ENDCHAR

STARTCHAR jisx0208_3452
ENCODING 13394
SWIDTH 960 0
DWIDTH 12 0
BBX 12 12 0 -2
BITMAP
0000
7980
0FF0
7560
07E0
7560
07E0
7980
5BC0
5560
7DB0
0000
ENDCHAR

STARTCHAR jisx0208_3453
ENCODING 13395
SWIDTH 960 0
DWIDTH 12 0
BBX 12 12 0 -2
BITMAP
0000
3FE0
3660
7FF0
3660
3FE0
3060
3FE0
3060
3FE0
7070
0000
ENDCHAR

STARTCHAR jisx0208_3454
ENCODING 13396
SWIDTH 960 0
DWIDTH 12 0
BBX 12 12 0 -2
BITMAP
0000
6FF0
2AB0
1FF0
0660
77E0
33B0
35E0
2DB0
3800
6FF0
0000
ENDCHAR

STARTCHAR jisx0208_3455
ENCODING 13397
SWIDTH 960 0
DWIDTH 12 0
BBX 12 12 0 -2
BITMAP
0000
3760
5570
07C0
7580
3770
7800
37E0
7560
3560
6FF0
0000
ENDCHAR

STARTCHAR jisx0208_3456
ENCODING 13398
SWIDTH 960 0
DWIDTH 12 0
BBX 12 12 0 -2
BITMAP
0000
7DF0
6DB0
7DF0
6030
6FB0
6DB0
6FB0
6DB0
6FB0
6070
0000
ENDCHAR

STARTCHAR jisx0208_3457
ENCODING 13399
SWIDTH 960 0
DWIDTH 12 0
BBX 12 12 0 -2
BITMAP
0000
7DF0
6DB0
7DF0
6030
6630
7FB0
6F30
55B0
76B0
6670
0000
ENDCHAR

STARTCHAR jisx0208_3458
ENCODING 13400
SWIDTH 960 0
DWIDTH 12 0
BBX 12 12 0 -2
BITMAP
0000
7DF0
6DB0
7DF0
6030
6B30
5FB0
6630
5FB0
6B30
5970
0000
ENDCHAR

STARTCHAR jisx0208_3459
ENCODING 13401
SWIDTH 960 0
DWIDTH 12 0
BBX 12 12 0 -2
BITMAP
0000
7B00
5BE0
5660
70C0
55F0
55B0
55F0
75B0
65B0
65F0
0000
ENDCHAR

STARTCHAR jisx0208_345A
ENCODING 13402
SWIDTH 960 0
DWIDTH 12 0
BBX 12 12 0 -2
BITMAP
0000
3180
7BE0
3160
7FF0
6B60
7B60
33F0
7AC0
37F0
30C0
0000
ENDCHAR

STARTCHAR jisx0208_345B
ENCODING 13403
SWIDTH 960 0
DWIDTH 12 0
BBX 12 12 0 -2
BITMAP
0000
1980
2FF0
5630
3BE0
2B60
2BE0
3B00
33F0
2B30
77F0
0000
ENDCHAR

STARTCHAR jisx0208_345C
ENCODING 13404
SWIDTH 960 0
DWIDTH 12 0
BBX 12 12 0 -2
BITMAP
0000
18C0
2BF0
6730
7DE0
1960
7DE0
1980
7DF0
65B0
7DF0
0000
ENDCHAR

STARTCHAR jisx0208_345D
ENCODING 13405
SWIDTH 960 0
DWIDTH 12 0
BBX 12 12 0 -2
BITMAP
0000
0C00
0C00
7FC0
0CC0
0CC0
2CC0
1CC0
16B0
30B0
60F0
0000
ENDCHAR

STARTCHAR jisx0208_345E
ENCODING 13406
SWIDTH 960 0
DWIDTH 12 0
BBX 12 12 0 -2
BITMAP
0000
0700
0D80
1FC0
7070
1FC0
0180
0300
3FE0
3060
3FE0
0000
ENDCHAR

STARTCHAR jisx0208_345F
ENCODING 13407
SWIDTH 960 0
DWIDTH 12 0
BBX 12 12 0 -2
BITMAP
0000
3660
3FE0
0000
3FF0
3000
2FE0
3300
3FF0
6300
6300
0000
ENDCHAR

STARTCHAR jisx0208_3460
ENCODING 13408
SWIDTH 960 0
DWIDTH 12 0
BBX 12 12 0 -2
BITMAP
0000
3330
3FF0
1B60
3FF0
2D80
3DF0
3760
3560
5EC0
6570
0000
ENDCHAR

STARTCHAR jisx0208_3461
ENCODING 13409
SWIDTH 960 0
DWIDTH 12 0
BBX 12 12 0 -2
BITMAP
0000
7BE0
3000
3000
77F0
32C0
32C0
3AC0
76B0
06B0
0CF0
0000
ENDCHAR

STARTCHAR jisx0208_3462
ENCODING 13410
SWIDTH 960 0
DWIDTH 12 0
BBX 12 12 0 -2
BITMAP
0000
0300
3FF0
7660
37E0
2EF0
6AB0
2EF0
3180
6DB0
6FF0
0000
ENDCHAR

STARTCHAR jisx0208_3463
ENCODING 13411
SWIDTH 960 0
DWIDTH 12 0
BBX 12 12 0 -2
BITMAP
0000
77E0
5660
57E0
7660
57E0
75B0
5560
56C0
7760
0E30
0000
ENDCHAR

STARTCHAR jisx0208_3464
ENCODING 13412
SWIDTH 960 0
DWIDTH 12 0
BBX 12 12 0 -2
BITMAP
0000
3660
3660
3FE0
0000
7FF0
0C00
1FE0
3860
5860
1FE0
0000
ENDCHAR

STARTCHAR jisx0208_3465
ENCODING 13413
SWIDTH 960 0
DWIDTH 12 0
BBX 12 12 0 -2
BITMAP
0000
7DE0
3600
6E00
37F0
3560
7D60
6560
7D60
6570
7F70
0000
ENDCHAR

STARTCHAR jisx0208_3466
ENCODING 13414
SWIDTH 960 0
DWIDTH 12 0
BBX 12 12 0 -2
BITMAP
0000
3FF0
2AC0
3BF0
2AC0
2FF0
2C60
2FE0
2C60
6FE0
5C70
0000
ENDCHAR

STARTCHAR jisx0208_3467
ENCODING 13415
SWIDTH 960 0
DWIDTH 12 0
BBX 12 12 0 -2
BITMAP
0000
3FF0
3560
2AC0
2BF0
3EC0
2BF0
2AC0
2BF0
6AC0
6BF0
0000
ENDCHAR

STARTCHAR jisx0208_3468
ENCODING 13416
SWIDTH 960 0
DWIDTH 12 0
BBX 12 12 0 -2
BITMAP
0000
3BF0
00C0
03F0
7F30
2BF0
2B30
2B30
2BF0
6D60
6330
0000
ENDCHAR

STARTCHAR jisx0208_3469
ENCODING 13417
SWIDTH 960 0
DWIDTH 12 0
BBX 12 12 0 -2
BITMAP
0000
1BF0
7EC0
2BF0
7F30
6BF0
5B30
6B30
5BF0
6D60
5B30
0000
ENDCHAR

STARTCHAR jisx0208_346A
ENCODING 13418
SWIDTH 960 0
DWIDTH 12 0
BBX 12 12 0 -2
BITMAP
0000
7DF0
58C0
7DF0
65B0
7DF0
65B0
7DB0
59F0
56E0
55B0
0000
ENDCHAR

STARTCHAR jisx0208_346B
ENCODING 13419
SWIDTH 960 0
DWIDTH 12 0
BBX 12 12 0 -2
BITMAP
0000
0700
0D80
1AC0
7370
0300
1BE0
1B00
1B00
1B00
7FF0
0000
ENDCHAR

STARTCHAR jisx0208_346C
ENCODING 13420
SWIDTH 960 0
DWIDTH 12 0
BBX 12 12 0 -2
BITMAP
0000
1980
1980
2FF0
3180
6FE0
3660
3660
32C0
33C0
2E70
0000
ENDCHAR

STARTCHAR jisx0208_346D
ENCODING 13421
SWIDTH 960 0
DWIDTH 12 0
BBX 12 12 0 -2
BITMAP
0000
0C00
1FC0
7180
3FF0
3000
37C0
36C0
35C0
6630
67F0
0000
ENDCHAR

STARTCHAR jisx0208_346E
ENCODING 13422
SWIDTH 960 0
DWIDTH 12 0
BBX 12 12 0 -2
BITMAP
0000
0600
7FF0
0600
3FE0
18C0
1FC0
0D80
7FF0
18C0
1FC0
0000
ENDCHAR

STARTCHAR jisx0208_346F
ENCODING 13423
SWIDTH 960 0
DWIDTH 12 0
BBX 12 12 0 -2
BITMAP
0000
3DE0
2D60
3DE0
0C00
7FF0
18C0
7070
3DE0
2D60
3DE0
0000
ENDCHAR

STARTCHAR jisx0208_3470
ENCODING 13424
SWIDTH 960 0
DWIDTH 12 0
BBX 12 12 0 -2
BITMAP
0000
18C0
7FF0
18C0
1FC0
18C0
7FF0
3660
5FB0
0600
3FE0
0000
ENDCHAR

STARTCHAR jisx0208_3471
ENCODING 13425
SWIDTH 960 0
DWIDTH 12 0
BBX 12 12 0 -2
BITMAP
0000
0600
3FE0
0D80
38E0
7FF0
0060
3F60
3360
3F60
00E0
0000
ENDCHAR

STARTCHAR jisx0208_3472
ENCODING 13426
SWIDTH 960 0
DWIDTH 12 0
BBX 12 12 0 -2
BITMAP
0000
3180
2FF0
7980
57E0
5660
57E0
5AC0
2FF0
3660
67E0
0000
ENDCHAR

STARTCHAR jisx0208_3473
ENCODING 13427
SWIDTH 960 0
DWIDTH 12 0
BBX 12 12 0 -2
BITMAP
0000
0600
7FF0
6630
3FE0
0D80
38E0
7FF0
3660
3E60
01E0
0000
ENDCHAR

STARTCHAR jisx0208_3474
ENCODING 13428
SWIDTH 960 0
DWIDTH 12 0
BBX 12 12 0 -2
BITMAP
0000
30C0
37F0
6CC0
6CC0
6FF0
6B30
6D60
7CC0
0160
0730
0000
ENDCHAR

STARTCHAR jisx0208_3475
ENCODING 13429
SWIDTH 960 0
DWIDTH 12 0
BBX 12 12 0 -2
BITMAP
0000
1CC0
0780
1CC0
7FF0
0B00
1B00
3FE0
5B60
1AE0
0300
0000
ENDCHAR

STARTCHAR jisx0208_3476
ENCODING 13430
SWIDTH 960 0
DWIDTH 12 0
BBX 12 12 0 -2
BITMAP
0000
36C0
5560
36C0
2AB0
7BF0
0360
7FF0
3360
39B0
6B70
0000
ENDCHAR

STARTCHAR jisx0208_3477
ENCODING 13431
SWIDTH 960 0
DWIDTH 12 0
BBX 12 12 0 -2
BITMAP
0000
3FC0
00C0
3FC0
3000
3060
3FE0
0000
2B60
2CB0
6FB0
0000
ENDCHAR

STARTCHAR jisx0208_3478
ENCODING 13432
SWIDTH 960 0
DWIDTH 12 0
BBX 12 12 0 -2
BITMAP
0000
2FF0
2DB0
7FF0
3560
37E0
7560
37E0
3180
2FF0
7180
0000
ENDCHAR

STARTCHAR jisx0208_3479
ENCODING 13433
SWIDTH 960 0
DWIDTH 12 0
BBX 12 12 0 -2
BITMAP
0000
1BC0
1AC0
7AC0
1AC0
3AC0
3AC0
5AC0
1AB0
16B0
16F0
0000
ENDCHAR

STARTCHAR jisx0208_347A
ENCODING 13434
SWIDTH 960 0
DWIDTH 12 0
BBX 12 12 0 -2
BITMAP
0000
3300
7BF0
3560
33F0
3D60
2DE0
2D60
2BF0
6D60
5B30
0000
ENDCHAR

STARTCHAR jisx0208_347B
ENCODING 13435
SWIDTH 960 0
DWIDTH 12 0
BBX 12 12 0 -2
BITMAP
0000
3BF0
2D60
3D60
2D60
3BF0
30E0
2D60
2D60
3770
7670
0000
ENDCHAR

STARTCHAR jisx0208_347C
ENCODING 13436
SWIDTH 960 0
DWIDTH 12 0
BBX 12 12 0 -2
BITMAP
0000
2DF0
7DB0
2DB0
3DF0
2DB0
2DB0
7DF0
01B0
2B30
6770
0000
ENDCHAR

STARTCHAR jisx0208_347D
ENCODING 13437
SWIDTH 960 0
DWIDTH 12 0
BBX 12 12 0 -2
BITMAP
0000
1B60
17F0
7B60
1BE0
3B60
3B60
57F0
1800
1B60
1630
0000
ENDCHAR

STARTCHAR jisx0208_347E
ENCODING 13438
SWIDTH 960 0
DWIDTH 12 0
BBX 12 12 0 -2
BITMAP
0000
0600
7FF0
1860
7FF0
16C0
7FF0
16C0
7FF0
16C0
7670
0000
ENDCHAR

STARTCHAR jisx0208_3521
ENCODING 13601
SWIDTH 960 0
DWIDTH 12 0
BBX 12 12 0 -2
BITMAP
0000
3560
3560
7BB0
2FF0
7960
6FF0
3560
3560
36B0
2D70
0000
ENDCHAR

STARTCHAR jisx0208_3522
ENCODING 13602
SWIDTH 960 0
DWIDTH 12 0
BBX 12 12 0 -2
BITMAP
0000
17E0
5860
57E0
5860
5FF0
59B0
17E0
3560
3560
6180
0000
ENDCHAR

STARTCHAR jisx0208_3523
ENCODING 13603
SWIDTH 960 0
DWIDTH 12 0
BBX 12 12 0 -2
BITMAP
0000
19E0
7D60
2D60
7F70
1800
75F0
1DB0
6D60
0CE0
3BB0
0000
ENDCHAR

STARTCHAR jisx0208_3524
ENCODING 13604
SWIDTH 960 0
DWIDTH 12 0
BBX 12 12 0 -2
BITMAP
0000
1800
3FE0
6000
1FC0
0000
7FC0
06C0
2CC0
1CB0
7670
0000
ENDCHAR

STARTCHAR jisx0208_3525
ENCODING 13605
SWIDTH 960 0
DWIDTH 12 0
BBX 12 12 0 -2
BITMAP
0000
6600
2FF0
1800
6FC0
3000
0FC0
30C0
30B0
6070
6030
0000
ENDCHAR

STARTCHAR jisx0208_3526
ENCODING 13606
SWIDTH 960 0
DWIDTH 12 0
BBX 12 12 0 -2
BITMAP
0000
1B60
2AB0
1B60
7FF0
0360
7FF0
5560
7EC0
55B0
7F70
0000
ENDCHAR

STARTCHAR jisx0208_3527
ENCODING 13607
SWIDTH 960 0
DWIDTH 12 0
BBX 12 12 0 -2
BITMAP
0000
3070
33C0
7B00
1BF0
3360
7B60
2B60
3360
3660
3660
0000
ENDCHAR

STARTCHAR jisx0208_3528
ENCODING 13608
SWIDTH 960 0
DWIDTH 12 0
BBX 12 12 0 -2
BITMAP
0000
3FE0
0600
7FF0
1580
36C0
5F70
0300
7FF0
0600
0E00
0000
ENDCHAR

STARTCHAR jisx0208_3529
ENCODING 13609
SWIDTH 960 0
DWIDTH 12 0
BBX 12 12 0 -2
BITMAP
0000
0B60
79C0
1770
7D80
17F0
3AC0
5BF0
16B0
1AF0
18C0
0000
ENDCHAR

STARTCHAR jisx0208_352A
ENCODING 13610
SWIDTH 960 0
DWIDTH 12 0
BBX 12 12 0 -2
BITMAP
0000
33E0
6C60
3860
33E0
7B00
1B00
5B00
5B30
5B30
1BF0
0000
ENDCHAR

STARTCHAR jisx0208_352B
ENCODING 13611
SWIDTH 960 0
DWIDTH 12 0
BBX 12 12 0 -2
BITMAP
0000
3660
56C0
1FF0
36B0
6AB0
36B0
3F60
3660
36B0
35B0
0000
ENDCHAR

STARTCHAR jisx0208_352C
ENCODING 13612
SWIDTH 960 0
DWIDTH 12 0
BBX 12 12 0 -2
BITMAP
0000
1BE0
7B60
1BE0
1B60
7BE0
1B60
1BE0
2DC0
2AB0
66F0
0000
ENDCHAR

STARTCHAR jisx0208_352D
ENCODING 13613
SWIDTH 960 0
DWIDTH 12 0
BBX 12 12 0 -2
BITMAP
0000
7BE0
0060
7C60
0060
7BE0
0300
7B00
5B00
5B30
7BF0
0000
ENDCHAR

STARTCHAR jisx0208_352E
ENCODING 13614
SWIDTH 960 0
DWIDTH 12 0
BBX 12 12 0 -2
BITMAP
0000
3FE0
3660
3FE0
0600
7FF0
3060
3FE0
3060
3FE0
7070
0000
ENDCHAR

STARTCHAR jisx0208_352F
ENCODING 13615
SWIDTH 960 0
DWIDTH 12 0
BBX 12 12 0 -2
BITMAP
0000
19F0
7E30
1830
7DF0
1980
5D80
59B0
59F0
7800
6FF0
0000
ENDCHAR

STARTCHAR jisx0208_3530
ENCODING 13616
SWIDTH 960 0
DWIDTH 12 0
BBX 12 12 0 -2
BITMAP
0000
3180
7D80
6FE0
7D60
6D60
7D60
3160
7B60
3370
3670
0000
ENDCHAR

STARTCHAR jisx0208_3531
ENCODING 13617
SWIDTH 960 0
DWIDTH 12 0
BBX 12 12 0 -2
BITMAP
0000
2FF0
6DB0
37E0
7D60
37E0
3560
37E0
5D80
57F0
6180
0000
ENDCHAR

STARTCHAR jisx0208_3532
ENCODING 13618
SWIDTH 960 0
DWIDTH 12 0
BBX 12 12 0 -2
BITMAP
0000
1BC0
2AC0
5AC0
3AC0
2AC0
2AC0
3AC0
32B0
2AB0
76F0
0000
ENDCHAR

STARTCHAR jisx0208_3533
ENCODING 13619
SWIDTH 960 0
DWIDTH 12 0
BBX 12 12 0 -2
BITMAP
0000
7CC0
57F0
7D60
5B30
57F0
7BB0
0AB0
6BB0
0C30
3870
0000
ENDCHAR

STARTCHAR jisx0208_3534
ENCODING 13620
SWIDTH 960 0
DWIDTH 12 0
BBX 12 12 0 -2
BITMAP
0000
0C00
3FC0
36C0
3FC0
36C0
3FC0
1560
15E0
3630
63F0
0000
ENDCHAR

STARTCHAR jisx0208_3535
ENCODING 13621
SWIDTH 960 0
DWIDTH 12 0
BBX 12 12 0 -2
BITMAP
0000
1F00
3300
7FC0
36C0
7FE0
7FE0
6660
7FE0
0630
07F0
0000
ENDCHAR

STARTCHAR jisx0208_3536
ENCODING 13622
SWIDTH 960 0
DWIDTH 12 0
BBX 12 12 0 -2
BITMAP
0000
1580
1FC0
32C0
37E0
7660
2C60
3FF0
3030
2AB0
2B60
0000
ENDCHAR

STARTCHAR jisx0208_3537
ENCODING 13623
SWIDTH 960 0
DWIDTH 12 0
BBX 12 12 0 -2
BITMAP
0000
1AC0
1FF0
3180
2FF0
76C0
2FF0
36B0
2EE0
36B0
2D70
0000
ENDCHAR

STARTCHAR jisx0208_3538
ENCODING 13624
SWIDTH 960 0
DWIDTH 12 0
BBX 12 12 0 -2
BITMAP
0000
30C0
33F0
7CC0
2CC0
2BF0
6B30
5960
38C0
2D60
6730
0000
ENDCHAR

STARTCHAR jisx0208_3539
ENCODING 13625
SWIDTH 960 0
DWIDTH 12 0
BBX 12 12 0 -2
BITMAP
0000
0600
7FF0
6030
5FB0
18C0
1FC0
18C0
1FC0
18C0
7FF0
0000
ENDCHAR

STARTCHAR jisx0208_353A
ENCODING 13626
SWIDTH 960 0
DWIDTH 12 0
BBX 12 12 0 -2
BITMAP
0000
1EC0
18B0
7EC0
5BF0
7EC0
58B0
5EE0
76C0
5570
3B30
0000
ENDCHAR

STARTCHAR jisx0208_353B
ENCODING 13627
SWIDTH 960 0
DWIDTH 12 0
BBX 12 12 0 -2
BITMAP
0000
30C0
37F0
78C0
30C0
37F0
7330
3160
30C0
3160
7730
0000
ENDCHAR

STARTCHAR jisx0208_353C
ENCODING 13628
SWIDTH 960 0
DWIDTH 12 0
BBX 12 12 0 -2
BITMAP
0000
2DE0
2F60
7CC0
2FF0
3CB0
6EC0
36F0
2EC0
35C0
6AF0
0000
ENDCHAR

STARTCHAR jisx0208_353D
ENCODING 13629
SWIDTH 960 0
DWIDTH 12 0
BBX 12 12 0 -2
BITMAP
0000
2D80
7D80
2DF0
3AB0
2CE0
2CC0
7EC0
0160
2D60
6730
0000
ENDCHAR

STARTCHAR jisx0208_353E
ENCODING 13630
SWIDTH 960 0
DWIDTH 12 0
BBX 12 12 0 -2
BITMAP
0000
32C0
6FF0
7980
6FF0
3560
3FF0
76B0
2F60
36F0
2DB0
0000
ENDCHAR

STARTCHAR jisx0208_353F
ENCODING 13631
SWIDTH 960 0
DWIDTH 12 0
BBX 12 12 0 -2
BITMAP
0000
6BF0
7960
66C0
7FF0
30B0
3AC0
5AF0
7EC0
1BC0
6EF0
0000
ENDCHAR

STARTCHAR jisx0208_3540
ENCODING 13632
SWIDTH 960 0
DWIDTH 12 0
BBX 12 12 0 -2
BITMAP
0000
3070
37C0
76C0
16C0
37F0
76C0
2EC0
36B0
3770
2E30
0000
ENDCHAR

STARTCHAR jisx0208_3541
ENCODING 13633
SWIDTH 960 0
DWIDTH 12 0
BBX 12 12 0 -2
BITMAP
0000
1980
7FF0
0600
3FE0
1AC0
7FF0
1B60
7D60
19B0
3770
0000
ENDCHAR

STARTCHAR jisx0208_3542
ENCODING 13634
SWIDTH 960 0
DWIDTH 12 0
BBX 12 12 0 -2
BITMAP
0000
32C0
37F0
7D80
6FE0
6AB0
7FF0
32C0
2FB0
2B60
76B0
0000
ENDCHAR

STARTCHAR jisx0208_3543
ENCODING 13635
SWIDTH 960 0
DWIDTH 12 0
BBX 12 12 0 -2
BITMAP
0000
7980
07F0
7630
03E0
7B60
03E0
7B60
5BE0
5B60
77F0
0000
ENDCHAR

STARTCHAR jisx0208_3544
ENCODING 13636
SWIDTH 960 0
DWIDTH 12 0
BBX 12 12 0 -2
BITMAP
0000
7AC0
0FF0
7980
07E0
7AB0
0FF0
7AC0
5FB0
5B60
76B0
0000
ENDCHAR

STARTCHAR jisx0208_3545
ENCODING 13637
SWIDTH 960 0
DWIDTH 12 0
BBX 12 12 0 -2
BITMAP
0000
3600
2FF0
7830
2AB0
3B30
6FF0
37B0
2AB0
3330
72E0
0000
ENDCHAR

STARTCHAR jisx0208_3546
ENCODING 13638
SWIDTH 960 0
DWIDTH 12 0
BBX 12 12 0 -2
BITMAP
0000
0D80
7FF0
2D80
3FF0
76B0
15B0
3FB0
0F30
15B0
76E0
0000
ENDCHAR

STARTCHAR jisx0208_3547
ENCODING 13639
SWIDTH 960 0
DWIDTH 12 0
BBX 12 12 0 -2
BITMAP
0000
5B00
7FF0
59B0
35B0
7DB0
6FF0
7BB0
35B0
7DB0
3160
0000
ENDCHAR

STARTCHAR jisx0208_3548
ENCODING 13640
SWIDTH 960 0
DWIDTH 12 0
BBX 12 12 0 -2
BITMAP
0000
0600
7FF0
0600
0600
3FE0
0000
3FE0
3060
3060
3FE0
0000
ENDCHAR

STARTCHAR jisx0208_3549
ENCODING 13641
SWIDTH 960 0
DWIDTH 12 0
BBX 12 12 0 -2
BITMAP
0000
0300
7B00
57F0
5600
5BE0
58C0
7980
0300
0630
03F0
0000
ENDCHAR

STARTCHAR jisx0208_354A
ENCODING 13642
SWIDTH 960 0
DWIDTH 12 0
BBX 12 12 0 -2
BITMAP
0000
0600
7FF0
56B0
5EB0
56B0
5F60
7980
0FF0
02C0
0E70
0000
ENDCHAR

STARTCHAR jisx0208_354B
ENCODING 13643
SWIDTH 960 0
DWIDTH 12 0
BBX 12 12 0 -2
BITMAP
0000
3180
37F0
7D80
3180
7BE0
6C00
33E0
3360
3360
33E0
0000
ENDCHAR

STARTCHAR jisx0208_354C
ENCODING 13644
SWIDTH 960 0
DWIDTH 12 0
BBX 12 12 0 -2
BITMAP
0000
37E0
30C0
7FF0
3560
7FF0
6AB0
2EF0
2BB0
2AB0
2BB0
0000
ENDCHAR

STARTCHAR jisx0208_354D
ENCODING 13645
SWIDTH 960 0
DWIDTH 12 0
BBX 12 12 0 -2
BITMAP
0000
7980
07F0
7D80
0180
7BE0
0000
7BE0
5B60
5B60
7BE0
0000
ENDCHAR

STARTCHAR jisx0208_354E
ENCODING 13646
SWIDTH 960 0
DWIDTH 12 0
BBX 12 12 0 -2
BITMAP
0000
7EC0
18C0
18F0
30C0
3CC0
6BF0
2B30
2B30
3B30
03F0
0000
ENDCHAR

STARTCHAR jisx0208_354F
ENCODING 13647
SWIDTH 960 0
DWIDTH 12 0
BBX 12 12 0 -2
BITMAP
0000
1B00
1BF0
7EC0
16C0
3CC0
37F0
58C0
18C0
18C0
18C0
0000
ENDCHAR

STARTCHAR jisx0208_3550
ENCODING 13648
SWIDTH 960 0
DWIDTH 12 0
BBX 12 12 0 -2
BITMAP
0000
3FE0
0600
7FF0
1580
76F0
1B80
76F0
3660
15C0
6E70
0000
ENDCHAR

STARTCHAR jisx0208_3551
ENCODING 13649
SWIDTH 960 0
DWIDTH 12 0
BBX 12 12 0 -2
BITMAP
0000
19F0
7DB0
19B0
19B0
7DB0
31B0
2DB0
6DB0
7570
0180
0000
ENDCHAR

STARTCHAR jisx0208_3552
ENCODING 13650
SWIDTH 960 0
DWIDTH 12 0
BBX 12 12 0 -2
BITMAP
0000
0600
7FF0
6C30
1FC0
6D80
0700
1DC0
7FF0
18C0
1FC0
0000
ENDCHAR

STARTCHAR jisx0208_3553
ENCODING 13651
SWIDTH 960 0
DWIDTH 12 0
BBX 12 12 0 -2
BITMAP
0000
7AF0
5FB0
5AB0
7AB0
5FB0
5AB0
76B0
55B0
5FF0
58C0
0000
ENDCHAR

STARTCHAR jisx0208_3554
ENCODING 13652
SWIDTH 960 0
DWIDTH 12 0
BBX 12 12 0 -2
BITMAP
0000
07E0
0600
3FF0
37B0
3E60
37E0
2C00
2FF0
6C00
6FF0
0000
ENDCHAR

STARTCHAR jisx0208_3555
ENCODING 13653
SWIDTH 960 0
DWIDTH 12 0
BBX 12 12 0 -2
BITMAP
0000
6660
32C0
0FF0
0180
7560
3560
37E0
3180
3B00
6FF0
0000
ENDCHAR

STARTCHAR jisx0208_3556
ENCODING 13654
SWIDTH 960 0
DWIDTH 12 0
BBX 12 12 0 -2
BITMAP
0000
01C0
3F00
3000
3000
3FE0
3180
3180
3180
3180
7FF0
0000
ENDCHAR

STARTCHAR jisx0208_3557
ENCODING 13655
SWIDTH 960 0
DWIDTH 12 0
BBX 12 12 0 -2
BITMAP
0000
0C00
0FC0
18C0
3180
6180
0300
0700
0D80
18C0
7070
0000
ENDCHAR

STARTCHAR jisx0208_3558
ENCODING 13656
SWIDTH 960 0
DWIDTH 12 0
BBX 12 12 0 -2
BITMAP
0000
1B00
1B00
2FC0
32C0
72C0
32C0
32C0
36B0
36B0
2CF0
0000
ENDCHAR

STARTCHAR jisx0208_3559
ENCODING 13657
SWIDTH 960 0
DWIDTH 12 0
BBX 12 12 0 -2
BITMAP
0000
1980
1980
2FF0
3180
73C0
33C0
3560
3560
2DB0
3180
0000
ENDCHAR

STARTCHAR jisx0208_355A
ENCODING 13658
SWIDTH 960 0
DWIDTH 12 0
BBX 12 12 0 -2
BITMAP
0000
7FC0
18C0
1980
19E0
1C60
2CC0
36C0
3380
66C0
5C70
0000
ENDCHAR

STARTCHAR jisx0208_355B
ENCODING 13659
SWIDTH 960 0
DWIDTH 12 0
BBX 12 12 0 -2
BITMAP
0000
0FE0
7660
56C0
56F0
5630
5760
7560
0CC0
0D60
1730
0000
ENDCHAR

STARTCHAR jisx0208_355C
ENCODING 13660
SWIDTH 960 0
DWIDTH 12 0
BBX 12 12 0 -2
BITMAP
0000
0600
7FF0
6030
5FB0
18C0
1FC0
0600
3FE0
3060
3FE0
0000
ENDCHAR

STARTCHAR jisx0208_355D
ENCODING 13661
SWIDTH 960 0
DWIDTH 12 0
BBX 12 12 0 -2
BITMAP
0000
7FC0
00C0
00C0
7FC0
6000
6000
7FE0
0060
0060
03C0
0000
ENDCHAR

STARTCHAR jisx0208_355E
ENCODING 13662
SWIDTH 960 0
DWIDTH 12 0
BBX 12 12 0 -2
BITMAP
0000
1F80
7300
3FE0
0060
3FE0
0060
3FE0
0300
2C60
6FB0
0000
ENDCHAR

STARTCHAR jisx0208_355F
ENCODING 13663
SWIDTH 960 0
DWIDTH 12 0
BBX 12 12 0 -2
BITMAP
0000
1580
1980
7DF0
1B60
5D60
1960
3D60
56C0
1960
3B30
0000
ENDCHAR

STARTCHAR jisx0208_3560
ENCODING 13664
SWIDTH 960 0
DWIDTH 12 0
BBX 12 12 0 -2
BITMAP
0000
17F0
1980
7D80
1B00
3BF0
3830
5830
1830
1830
18E0
0000
ENDCHAR

STARTCHAR jisx0208_3561
ENCODING 13665
SWIDTH 960 0
DWIDTH 12 0
BBX 12 12 0 -2
BITMAP
0000
06C0
7FF0
0600
6760
36C0
0580
1580
36C0
6670
0E00
0000
ENDCHAR

STARTCHAR jisx0208_3562
ENCODING 13666
SWIDTH 960 0
DWIDTH 12 0
BBX 12 12 0 -2
BITMAP
0000
6FE0
3660
06C0
66F0
3630
0760
3560
2CC0
6D60
5B30
0000
ENDCHAR

STARTCHAR jisx0208_3563
ENCODING 13667
SWIDTH 960 0
DWIDTH 12 0
BBX 12 12 0 -2
BITMAP
0000
6180
2FF0
0000
6060
3660
0660
32C0
32C0
60C0
6FF0
0000
ENDCHAR

STARTCHAR jisx0208_3564
ENCODING 13668
SWIDTH 960 0
DWIDTH 12 0
BBX 12 12 0 -2
BITMAP
0000
1F80
7300
0580
1CC0
7670
0600
3660
6AC0
1980
70F0
0000
ENDCHAR

STARTCHAR jisx0208_3565
ENCODING 13669
SWIDTH 960 0
DWIDTH 12 0
BBX 12 12 0 -2
BITMAP
0000
0160
7980
2FF0
3180
7560
33C0
33C0
3560
6DB0
0380
0000
ENDCHAR

STARTCHAR jisx0208_3566
ENCODING 13670
SWIDTH 960 0
DWIDTH 12 0
BBX 12 12 0 -2
BITMAP
0000
0600
7FF0
59B0
35E0
0600
3F80
0D80
0D80
19B0
71F0
0000
ENDCHAR

STARTCHAR jisx0208_3567
ENCODING 13671
SWIDTH 960 0
DWIDTH 12 0
BBX 12 12 0 -2
BITMAP
0000
0600
7FF0
59B0
3DF0
3E30
35F0
7D80
15F0
7630
1EE0
0000
ENDCHAR

STARTCHAR jisx0208_3568
ENCODING 13672
SWIDTH 960 0
DWIDTH 12 0
BBX 12 12 0 -2
BITMAP
0000
3300
3FF0
6CC0
3F80
1980
19E0
1C60
36C0
3380
6EF0
0000
ENDCHAR

STARTCHAR jisx0208_3569
ENCODING 13673
SWIDTH 960 0
DWIDTH 12 0
BBX 12 12 0 -2
BITMAP
0000
37E0
6B60
3AC0
32F0
7B30
1BB0
5AB0
5B60
56E0
15B0
0000
ENDCHAR

STARTCHAR jisx0208_356A
ENCODING 13674
SWIDTH 960 0
DWIDTH 12 0
BBX 12 12 0 -2
BITMAP
0000
3060
6B60
3B60
3360
7B60
1B70
5BE0
5760
5860
1860
0000
ENDCHAR

STARTCHAR jisx0208_356B
ENCODING 13675
SWIDTH 960 0
DWIDTH 12 0
BBX 12 12 0 -2
BITMAP
0000
3180
6AC0
3B60
3630
7BE0
1800
5BE0
5B60
5B60
1BE0
0000
ENDCHAR

STARTCHAR jisx0208_356C
ENCODING 13676
SWIDTH 960 0
DWIDTH 12 0
BBX 12 12 0 -2
BITMAP
0000
6FE0
6C60
6C60
6C60
6FE0
6C60
6C60
6C60
6C60
6FE0
0000
ENDCHAR

STARTCHAR jisx0208_356D
ENCODING 13677
SWIDTH 960 0
DWIDTH 12 0
BBX 12 12 0 -2
BITMAP
0000
3600
3600
7FE0
6600
0600
7FF0
0600
0600
0600
0600
0000
ENDCHAR

STARTCHAR jisx0208_356E
ENCODING 13678
SWIDTH 960 0
DWIDTH 12 0
BBX 12 12 0 -2
BITMAP
0000
0600
3FE0
0600
0600
0600
7FF0
0C00
0CC0
19E0
7F30
0000
ENDCHAR

STARTCHAR jisx0208_356F
ENCODING 13679
SWIDTH 960 0
DWIDTH 12 0
BBX 12 12 0 -2
BITMAP
0000
3FE0
3060
3FE0
3300
3300
3FF0
3300
2FE0
6C60
6FE0
0000
ENDCHAR

STARTCHAR jisx0208_3570
ENCODING 13680
SWIDTH 960 0
DWIDTH 12 0
BBX 12 12 0 -2
BITMAP
0000
7FE0
6000
6000
7FC0
60C0
60C0
7FC0
6000
6000
7FE0
0000
ENDCHAR

STARTCHAR jisx0208_3571
ENCODING 13681
SWIDTH 960 0
DWIDTH 12 0
BBX 12 12 0 -2
BITMAP
0000
37F0
3600
7600
37E0
3660
7660
37E0
3600
3600
77F0
0000
ENDCHAR

STARTCHAR jisx0208_3572
ENCODING 13682
SWIDTH 960 0
DWIDTH 12 0
BBX 12 12 0 -2
BITMAP
0000
3600
35E0
7760
2D60
2D60
7560
3370
3370
3580
6CF0
0000
ENDCHAR

STARTCHAR jisx0208_3573
ENCODING 13683
SWIDTH 960 0
DWIDTH 12 0
BBX 12 12 0 -2
BITMAP
0000
3660
7FF0
18C0
3F60
6630
3FE0
0600
7FF0
0600
0E00
0000
ENDCHAR

STARTCHAR jisx0208_3574
ENCODING 13684
SWIDTH 960 0
DWIDTH 12 0
BBX 12 12 0 -2
BITMAP
0000
6FF0
2C00
6FE0
0C60
2FE0
6C00
7FF0
0F00
15C0
7670
0000
ENDCHAR

STARTCHAR jisx0208_3575
ENCODING 13685
SWIDTH 960 0
DWIDTH 12 0
BBX 12 12 0 -2
BITMAP
0000
07E0
0600
3FF0
37B0
3E00
37E0
3580
35B0
5560
7FF0
0000
ENDCHAR

STARTCHAR jisx0208_3576
ENCODING 13686
SWIDTH 960 0
DWIDTH 12 0
BBX 12 12 0 -2
BITMAP
0000
7B00
03F0
76C0
00C0
78C0
07F0
78C0
58C0
58C0
78C0
0000
ENDCHAR

STARTCHAR jisx0208_3577
ENCODING 13687
SWIDTH 960 0
DWIDTH 12 0
BBX 12 12 0 -2
BITMAP
0000
7BF0
6B00
6B00
7BF0
1B30
5B30
5BF0
5B00
5B00
73F0
0000
ENDCHAR

STARTCHAR jisx0208_3578
ENCODING 13688
SWIDTH 960 0
DWIDTH 12 0
BBX 12 12 0 -2
BITMAP
0000
1BF0
2B30
63F0
3AC0
1BF0
7AC0
1BF0
5BB0
1DB0
75F0
0000
ENDCHAR

STARTCHAR jisx0208_3579
ENCODING 13689
SWIDTH 960 0
DWIDTH 12 0
BBX 12 12 0 -2
BITMAP
0000
6780
2D80
0FE0
6B60
2FE0
0B60
2FE0
3000
5560
55B0
0000
ENDCHAR

STARTCHAR jisx0208_357A
ENCODING 13690
SWIDTH 960 0
DWIDTH 12 0
BBX 12 12 0 -2
BITMAP
0000
2C00
5FF0
32B0
6BB0
2AF0
2FC0
0000
7FF0
36C0
6E70
0000
ENDCHAR

STARTCHAR jisx0208_357B
ENCODING 13691
SWIDTH 960 0
DWIDTH 12 0
BBX 12 12 0 -2
BITMAP
0000
1F80
3180
7FE0
3660
3FE0
3660
3FE0
0000
2B60
6DB0
0000
ENDCHAR

STARTCHAR jisx0208_357C
ENCODING 13692
SWIDTH 960 0
DWIDTH 12 0
BBX 12 12 0 -2
BITMAP
0000
0600
7FF0
18C0
1FC0
0000
3FE0
01C0
0700
0600
0E00
0000
ENDCHAR

STARTCHAR jisx0208_357D
ENCODING 13693
SWIDTH 960 0
DWIDTH 12 0
BBX 12 12 0 -2
BITMAP
0000
0600
7FF0
18C0
1FC0
0000
3FC0
0180
7FF0
0600
0E00
0000
ENDCHAR

STARTCHAR jisx0208_357E
ENCODING 13694
SWIDTH 960 0
DWIDTH 12 0
BBX 12 12 0 -2
BITMAP
0000
0600
7FE0
0000
3FC0
30C0
3FC0
0600
36C0
3660
6E60
0000
ENDCHAR

STARTCHAR jisx0208_3621
ENCODING 13857
SWIDTH 960 0
DWIDTH 12 0
BBX 12 12 0 -2
BITMAP
0000
1AC0
1AC0
2FF0
32C0
72C0
32C0
2FF0
3000
3660
2C30
0000
ENDCHAR

STARTCHAR jisx0208_3622
ENCODING 13858
SWIDTH 960 0
DWIDTH 12 0
BBX 12 12 0 -2
BITMAP
0000
1980
17F0
3180
35B0
7560
2FF0
3180
32C0
3660
2C30
0000
ENDCHAR

STARTCHAR jisx0208_3623
ENCODING 13859
SWIDTH 960 0
DWIDTH 12 0
BBX 12 12 0 -2
BITMAP
0000
17E0
1B00
2FF0
36E0
6BB0
3000
2FF0
2AB0
2BB0
2C70
0000
ENDCHAR

STARTCHAR jisx0208_3624
ENCODING 13860
SWIDTH 960 0
DWIDTH 12 0
BBX 12 12 0 -2
BITMAP
0000
2D60
3560
3360
3560
3CE0
3060
3FE0
0D80
19B0
71F0
0000
ENDCHAR

STARTCHAR jisx0208_3625
ENCODING 13861
SWIDTH 960 0
DWIDTH 12 0
BBX 12 12 0 -2
BITMAP
0000
18C0
7FF0
2D60
7FF0
7BF0
6B30
7BF0
3960
3560
5B70
0000
ENDCHAR

STARTCHAR jisx0208_3626
ENCODING 13862
SWIDTH 960 0
DWIDTH 12 0
BBX 12 12 0 -2
BITMAP
0000
1980
1980
3FE0
1980
1980
1980
7FF0
0000
19C0
7060
0000
ENDCHAR

STARTCHAR jisx0208_3627
ENCODING 13863
SWIDTH 960 0
DWIDTH 12 0
BBX 12 12 0 -2
BITMAP
0000
00C0
58B0
6DB0
65B0
6330
65B0
6CB0
58B0
6030
7FF0
0000
ENDCHAR

STARTCHAR jisx0208_3628
ENCODING 13864
SWIDTH 960 0
DWIDTH 12 0
BBX 12 12 0 -2
BITMAP
0000
3180
37E0
7D60
3360
36C0
2CC0
3FF0
2AB0
2AB0
3560
0000
ENDCHAR

STARTCHAR jisx0208_3629
ENCODING 13865
SWIDTH 960 0
DWIDTH 12 0
BBX 12 12 0 -2
BITMAP
0000
7FF0
6000
5FE0
6300
6FC0
6300
6300
5FE0
6000
7FF0
0000
ENDCHAR

STARTCHAR jisx0208_362A
ENCODING 13866
SWIDTH 960 0
DWIDTH 12 0
BBX 12 12 0 -2
BITMAP
0000
2EF0
6AB0
5EB0
5AB0
5AB0
5EB0
7CB0
1AF0
2AC0
5DC0
0000
ENDCHAR

STARTCHAR jisx0208_362B
ENCODING 13867
SWIDTH 960 0
DWIDTH 12 0
BBX 12 12 0 -2
BITMAP
0000
0060
7B60
5B60
5B60
5B60
5B60
7B70
07E0
0060
0060
0000
ENDCHAR

STARTCHAR jisx0208_362C
ENCODING 13868
SWIDTH 960 0
DWIDTH 12 0
BBX 12 12 0 -2
BITMAP
0000
1FC0
0600
7FF0
1DC0
6F70
0D80
7FF0
6DB0
6FB0
6070
0000
ENDCHAR

STARTCHAR jisx0208_362D
ENCODING 13869
SWIDTH 960 0
DWIDTH 12 0
BBX 12 12 0 -2
BITMAP
0000
3180
2FF0
7AC0
2FF0
3660
37E0
3660
77E0
02B0
1EF0
0000
ENDCHAR

STARTCHAR jisx0208_362E
ENCODING 13870
SWIDTH 960 0
DWIDTH 12 0
BBX 12 12 0 -2
BITMAP
0000
3180
37F0
6D80
6DB0
6B60
6FF0
6D80
7AC0
0660
0C30
0000
ENDCHAR

STARTCHAR jisx0208_362F
ENCODING 13871
SWIDTH 960 0
DWIDTH 12 0
BBX 12 12 0 -2
BITMAP
0000
7980
1B60
17B0
7980
67E0
7560
1560
17E0
1960
6FB0
0000
ENDCHAR

STARTCHAR jisx0208_3630
ENCODING 13872
SWIDTH 960 0
DWIDTH 12 0
BBX 12 12 0 -2
BITMAP
0000
7FF0
1560
17E0
7560
6FF0
7560
17E0
1560
1560
6FF0
0000
ENDCHAR

STARTCHAR jisx0208_3631
ENCODING 13873
SWIDTH 960 0
DWIDTH 12 0
BBX 12 12 0 -2
BITMAP
0000
3180
37E0
7180
7180
7180
2FF0
3300
3360
3660
2FB0
0000
ENDCHAR

STARTCHAR jisx0208_3632
ENCODING 13874
SWIDTH 960 0
DWIDTH 12 0
BBX 12 12 0 -2
BITMAP
0000
7BE0
1B60
1B60
1B60
7670
0000
0B60
2C30
2CB0
6FC0
0000
ENDCHAR

STARTCHAR jisx0208_3633
ENCODING 13875
SWIDTH 960 0
DWIDTH 12 0
BBX 12 12 0 -2
BITMAP
0000
0D80
3FE0
0D80
7FF0
18C0
3660
6630
3560
66B0
0E00
0000
ENDCHAR

STARTCHAR jisx0208_3634
ENCODING 13876
SWIDTH 960 0
DWIDTH 12 0
BBX 12 12 0 -2
BITMAP
0000
3180
37F0
7980
35B0
3560
6FF0
3180
32C0
3660
6C30
0000
ENDCHAR

STARTCHAR jisx0208_3635
ENCODING 13877
SWIDTH 960 0
DWIDTH 12 0
BBX 12 12 0 -2
BITMAP
0000
3580
7D80
2DF0
7B60
3D60
6D60
1960
7EC0
1960
3730
0000
ENDCHAR

STARTCHAR jisx0208_3636
ENCODING 13878
SWIDTH 960 0
DWIDTH 12 0
BBX 12 12 0 -2
BITMAP
0000
37E0
3180
77F0
36E0
7BB0
7000
2FF0
2AB0
2BB0
2C70
0000
ENDCHAR

STARTCHAR jisx0208_3637
ENCODING 13879
SWIDTH 960 0
DWIDTH 12 0
BBX 12 12 0 -2
BITMAP
0000
6FE0
2C60
0C60
6C60
2FE0
0580
3580
2D80
6DB0
59F0
0000
ENDCHAR

STARTCHAR jisx0208_3638
ENCODING 13880
SWIDTH 960 0
DWIDTH 12 0
BBX 12 12 0 -2
BITMAP
0000
57F0
3180
3180
5980
1BE0
3980
5980
1980
1980
77F0
0000
ENDCHAR

STARTCHAR jisx0208_3639
ENCODING 13881
SWIDTH 960 0
DWIDTH 12 0
BBX 12 12 0 -2
BITMAP
0000
5980
37F0
35B0
5B60
1980
37F0
5980
1AC0
1660
6C30
0000
ENDCHAR

STARTCHAR jisx0208_363A
ENCODING 13882
SWIDTH 960 0
DWIDTH 12 0
BBX 12 12 0 -2
BITMAP
0000
67E0
7980
6FF0
36E0
7BB0
3000
2FF0
2AB0
5BB0
6C70
0000
ENDCHAR

STARTCHAR jisx0208_363B
ENCODING 13883
SWIDTH 960 0
DWIDTH 12 0
BBX 12 12 0 -2
BITMAP
0000
7B00
57F0
5C30
75B0
56B0
55B0
76B0
57B0
5830
58E0
0000
ENDCHAR

STARTCHAR jisx0208_363C
ENCODING 13884
SWIDTH 960 0
DWIDTH 12 0
BBX 12 12 0 -2
BITMAP
0000
0600
3FC0
0CC0
7BF0
2DB0
5FE0
18C0
1FC0
18C0
19C0
0000
ENDCHAR

STARTCHAR jisx0208_363D
ENCODING 13885
SWIDTH 960 0
DWIDTH 12 0
BBX 12 12 0 -2
BITMAP
0000
1FE0
2D60
3DE0
2F60
3DE0
2F60
2D60
7FF0
18C0
7070
0000
ENDCHAR

STARTCHAR jisx0208_363E
ENCODING 13886
SWIDTH 960 0
DWIDTH 12 0
BBX 12 12 0 -2
BITMAP
0000
0D80
7FF0
0600
7FF0
1DC0
6F70
0D80
3FE0
2D60
2F60
0000
ENDCHAR

STARTCHAR jisx0208_363F
ENCODING 13887
SWIDTH 960 0
DWIDTH 12 0
BBX 12 12 0 -2
BITMAP
0000
2EF0
2AB0
6EB0
5AE0
2EB0
6CB0
7AB0
1AB0
2DE0
60C0
0000
ENDCHAR

STARTCHAR jisx0208_3640
ENCODING 13888
SWIDTH 960 0
DWIDTH 12 0
BBX 12 12 0 -2
BITMAP
0000
1980
2FF0
62C0
3FF0
17E0
7E60
17E0
5AC0
1AB0
76F0
0000
ENDCHAR

STARTCHAR jisx0208_3641
ENCODING 13889
SWIDTH 960 0
DWIDTH 12 0
BBX 12 12 0 -2
BITMAP
0000
2EF0
5AB0
2EE0
7BB0
36B0
7FF0
0D80
7FF0
18C0
1FC0
0000
ENDCHAR

STARTCHAR jisx0208_3642
ENCODING 13890
SWIDTH 960 0
DWIDTH 12 0
BBX 12 12 0 -2
BITMAP
0000
2EF0
5AB0
2EE0
7BB0
36B0
1B80
76F0
1FC0
18C0
3F70
0000
ENDCHAR

STARTCHAR jisx0208_3643
ENCODING 13891
SWIDTH 960 0
DWIDTH 12 0
BBX 12 12 0 -2
BITMAP
0000
2D80
7DF0
2B60
7EE0
35B0
3FE0
3300
3FF0
3030
6AE0
0000
ENDCHAR

STARTCHAR jisx0208_3644
ENCODING 13892
SWIDTH 960 0
DWIDTH 12 0
BBX 12 12 0 -2
BITMAP
0000
1B00
16F0
36B0
36B0
76B0
36B0
36B0
36B0
2EF0
30C0
0000
ENDCHAR

STARTCHAR jisx0208_3645
ENCODING 13893
SWIDTH 960 0
DWIDTH 12 0
BBX 12 12 0 -2
BITMAP
0000
15E0
5C60
3AC0
1FF0
18B0
3EC0
2AF0
5EC0
6BC0
16F0
0000
ENDCHAR

STARTCHAR jisx0208_3646
ENCODING 13894
SWIDTH 960 0
DWIDTH 12 0
BBX 12 12 0 -2
BITMAP
0000
0600
3FE0
16C0
7FF0
18C0
18C0
3FE0
0D80
19B0
71F0
0000
ENDCHAR

STARTCHAR jisx0208_3647
ENCODING 13895
SWIDTH 960 0
DWIDTH 12 0
BBX 12 12 0 -2
BITMAP
0000
0180
77E0
5980
5560
7FF0
5660
5FF0
7AC0
06B0
1CF0
0000
ENDCHAR

STARTCHAR jisx0208_3648
ENCODING 13896
SWIDTH 960 0
DWIDTH 12 0
BBX 12 12 0 -2
BITMAP
0000
6B60
2AC0
7FF0
1980
3FE0
0600
7FF0
0F00
15C0
7670
0000
ENDCHAR

STARTCHAR jisx0208_3649
ENCODING 13897
SWIDTH 960 0
DWIDTH 12 0
BBX 12 12 0 -2
BITMAP
0000
3FE0
3060
3FE0
3000
3FF0
3030
2FB0
2DB0
6FB0
60E0
0000
ENDCHAR

STARTCHAR jisx0208_364A
ENCODING 13898
SWIDTH 960 0
DWIDTH 12 0
BBX 12 12 0 -2
BITMAP
0000
0D80
0D80
7FF0
6DB0
6DB0
7FF0
6DB0
6DB0
6DB0
7FF0
0000
ENDCHAR

STARTCHAR jisx0208_364B
ENCODING 13899
SWIDTH 960 0
DWIDTH 12 0
BBX 12 12 0 -2
BITMAP
0000
2FF0
3180
7B00
37F0
79B0
6FB0
2B60
2FB0
3180
2FF0
0000
ENDCHAR

STARTCHAR jisx0208_364C
ENCODING 13900
SWIDTH 960 0
DWIDTH 12 0
BBX 12 12 0 -2
BITMAP
0000
7FF0
0600
0600
0600
3FE0
0600
06C0
0660
0600
7FF0
0000
ENDCHAR

STARTCHAR jisx0208_364D
ENCODING 13901
SWIDTH 960 0
DWIDTH 12 0
BBX 12 12 0 -2
BITMAP
0000
2FF0
2C30
7BB0
2C30
7BB0
6AB0
2AB0
2BB0
2C30
2C70
0000
ENDCHAR

STARTCHAR jisx0208_364E
ENCODING 13902
SWIDTH 960 0
DWIDTH 12 0
BBX 12 12 0 -2
BITMAP
0000
1870
5BC0
18C0
7CC0
1BF0
3CC0
58C0
18C0
18C0
18C0
0000
ENDCHAR

STARTCHAR jisx0208_364F
ENCODING 13903
SWIDTH 960 0
DWIDTH 12 0
BBX 12 12 0 -2
BITMAP
0000
1AC0
1FF0
32C0
2FF0
6DB0
2FF0
3180
37E0
3180
2FF0
0000
ENDCHAR

STARTCHAR jisx0208_3650
ENCODING 13904
SWIDTH 960 0
DWIDTH 12 0
BBX 12 12 0 -2
BITMAP
0000
2CC0
7EC0
2BF0
7EB0
56B0
7EB0
18B0
7DB0
19B0
7AE0
0000
ENDCHAR

STARTCHAR jisx0208_3651
ENCODING 13905
SWIDTH 960 0
DWIDTH 12 0
BBX 12 12 0 -2
BITMAP
0000
3300
3300
77F0
2C30
3330
31B0
38B0
71B0
0730
00E0
0000
ENDCHAR

STARTCHAR jisx0208_3652
ENCODING 13906
SWIDTH 960 0
DWIDTH 12 0
BBX 12 12 0 -2
BITMAP
0000
0600
7FE0
6660
6660
6660
6660
6660
6660
65E0
0600
0000
ENDCHAR

STARTCHAR jisx0208_3653
ENCODING 13907
SWIDTH 960 0
DWIDTH 12 0
BBX 12 12 0 -2
BITMAP
0000
1980
2BE0
6360
3BE0
1B60
7FF0
15B0
55B0
1D70
7180
0000
ENDCHAR

STARTCHAR jisx0208_3654
ENCODING 13908
SWIDTH 960 0
DWIDTH 12 0
BBX 12 12 0 -2
BITMAP
0000
01E0
3F00
3000
3000
3FF0
3180
3180
3180
6180
6180
0000
ENDCHAR

STARTCHAR jisx0208_3655
ENCODING 13909
SWIDTH 960 0
DWIDTH 12 0
BBX 12 12 0 -2
BITMAP
0000
0580
3D80
31F0
3EB0
2AB0
2CC0
2CC0
2D60
6D60
6B30
0000
ENDCHAR

STARTCHAR jisx0208_3656
ENCODING 13910
SWIDTH 960 0
DWIDTH 12 0
BBX 12 12 0 -2
BITMAP
0000
1980
2D80
61F0
3AB0
1AE0
7CC0
18C0
5960
1D60
7330
0000
ENDCHAR

STARTCHAR jisx0208_3657
ENCODING 13911
SWIDTH 960 0
DWIDTH 12 0
BBX 12 12 0 -2
BITMAP
0000
7DF0
7DF0
18C0
7DF0
0700
1DC0
7070
1FC0
0180
0300
0000
ENDCHAR

STARTCHAR jisx0208_3658
ENCODING 13912
SWIDTH 960 0
DWIDTH 12 0
BBX 12 12 0 -2
BITMAP
0000
18C0
7FF0
3DE0
56B0
0000
3FE0
0000
7FF0
3660
6E30
0000
ENDCHAR

STARTCHAR jisx0208_3659
ENCODING 13913
SWIDTH 960 0
DWIDTH 12 0
BBX 12 12 0 -2
BITMAP
0000
0700
1DC0
6F70
2D60
3760
7FF0
6630
6DB0
5EB0
6070
0000
ENDCHAR

STARTCHAR jisx0208_365A
ENCODING 13914
SWIDTH 960 0
DWIDTH 12 0
BBX 12 12 0 -2
BITMAP
0000
3180
3DF0
6B60
3D80
2BF0
3DB0
2DB0
3DB0
6B30
5AE0
0000
ENDCHAR

STARTCHAR jisx0208_365B
ENCODING 13915
SWIDTH 960 0
DWIDTH 12 0
BBX 12 12 0 -2
BITMAP
0000
7BE0
5B60
7DC0
5AC0
7E70
1980
0B60
7FB0
16C0
3660
0000
ENDCHAR

STARTCHAR jisx0208_365C
ENCODING 13916
SWIDTH 960 0
DWIDTH 12 0
BBX 12 12 0 -2
BITMAP
0000
0D80
7FF0
0D60
3FC0
3000
3FF0
3180
3180
6180
6180
0000
ENDCHAR

STARTCHAR jisx0208_365D
ENCODING 13917
SWIDTH 960 0
DWIDTH 12 0
BBX 12 12 0 -2
BITMAP
0000
0D80
7FF0
0D80
3FE0
3660
3FE0
2F60
35E0
3660
3FE0
0000
ENDCHAR

STARTCHAR jisx0208_365E
ENCODING 13918
SWIDTH 960 0
DWIDTH 12 0
BBX 12 12 0 -2
BITMAP
0000
31C0
3360
7630
1BE0
2C00
7BE0
2C60
3060
30C0
3180
0000
ENDCHAR

STARTCHAR jisx0208_365F
ENCODING 13919
SWIDTH 960 0
DWIDTH 12 0
BBX 12 12 0 -2
BITMAP
0000
32C0
2FF0
76E0
1AB0
2C00
77E0
2C00
2FF0
3560
2BB0
0000
ENDCHAR

STARTCHAR jisx0208_3660
ENCODING 13920
SWIDTH 960 0
DWIDTH 12 0
BBX 12 12 0 -2
BITMAP
0000
7B60
07F0
7B60
07F0
75B0
07F0
7980
57F0
5980
77F0
0000
ENDCHAR

STARTCHAR jisx0208_3661
ENCODING 13921
SWIDTH 960 0
DWIDTH 12 0
BBX 12 12 0 -2
BITMAP
0000
60E0
3780
0600
07F0
76C0
36C0
36C0
2CC0
3800
6FF0
0000
ENDCHAR

STARTCHAR jisx0208_3662
ENCODING 13922
SWIDTH 960 0
DWIDTH 12 0
BBX 12 12 0 -2
BITMAP
0000
0700
0D80
18C0
6F70
0600
3FE0
0600
36C0
1580
7FF0
0000
ENDCHAR

STARTCHAR jisx0208_3663
ENCODING 13923
SWIDTH 960 0
DWIDTH 12 0
BBX 12 12 0 -2
BITMAP
0000
0180
7AC0
5660
5BB0
5800
57E0
5860
7860
00C0
00C0
0000
ENDCHAR

STARTCHAR jisx0208_3664
ENCODING 13924
SWIDTH 960 0
DWIDTH 12 0
BBX 12 12 0 -2
BITMAP
0000
1BF0
2B30
63F0
3B30
1BF0
7AC0
1AB0
5B60
1AE0
77B0
0000
ENDCHAR

STARTCHAR jisx0208_3665
ENCODING 13925
SWIDTH 960 0
DWIDTH 12 0
BBX 12 12 0 -2
BITMAP
0000
0C00
0C00
7F80
0D80
0D80
0D80
1980
19B0
31B0
61F0
0000
ENDCHAR

STARTCHAR jisx0208_3666
ENCODING 13926
SWIDTH 960 0
DWIDTH 12 0
BBX 12 12 0 -2
BITMAP
0000
17E0
1660
37E0
3660
77E0
3660
2FF0
3000
32E0
2E30
0000
ENDCHAR

STARTCHAR jisx0208_3667
ENCODING 13927
SWIDTH 960 0
DWIDTH 12 0
BBX 12 12 0 -2
BITMAP
0000
1800
1FF0
3030
3FB0
59B0
19B0
19B0
1FB0
0030
00E0
0000
ENDCHAR

STARTCHAR jisx0208_3668
ENCODING 13928
SWIDTH 960 0
DWIDTH 12 0
BBX 12 12 0 -2
BITMAP
0000
7FF0
60C0
5CC0
6580
6300
6580
6CC0
5860
6000
7FF0
0000
ENDCHAR

STARTCHAR jisx0208_3669
ENCODING 13929
SWIDTH 960 0
DWIDTH 12 0
BBX 12 12 0 -2
BITMAP
0000
5B00
33F0
3630
5BB0
1AB0
3AB0
5AB0
1BB0
1830
70E0
0000
ENDCHAR

STARTCHAR jisx0208_366A
ENCODING 13930
SWIDTH 960 0
DWIDTH 12 0
BBX 12 12 0 -2
BITMAP
0000
0180
7D80
1BE0
1660
7C60
18C0
18C0
1D60
7360
0630
0000
ENDCHAR

STARTCHAR jisx0208_366B
ENCODING 13931
SWIDTH 960 0
DWIDTH 12 0
BBX 12 12 0 -2
BITMAP
0000
33F0
3B00
5B00
1BF0
7B30
1B30
1BF0
2B00
2B00
63F0
0000
ENDCHAR

STARTCHAR jisx0208_366C
ENCODING 13932
SWIDTH 960 0
DWIDTH 12 0
BBX 12 12 0 -2
BITMAP
0000
1980
7FF0
1980
0600
7FF0
0600
3FE0
3060
3060
3FE0
0000
ENDCHAR

STARTCHAR jisx0208_366D
ENCODING 13933
SWIDTH 960 0
DWIDTH 12 0
BBX 12 12 0 -2
BITMAP
0000
1BF0
3B00
2BB0
3AB0
2B60
7B60
1AB0
2BB0
6B00
1BF0
0000
ENDCHAR

STARTCHAR jisx0208_366E
ENCODING 13934
SWIDTH 960 0
DWIDTH 12 0
BBX 12 12 0 -2
BITMAP
0000
7BF0
5B00
7BB0
5AB0
5B60
7B60
0AB0
6BB0
0B00
3BF0
0000
ENDCHAR

STARTCHAR jisx0208_366F
ENCODING 13935
SWIDTH 960 0
DWIDTH 12 0
BBX 12 12 0 -2
BITMAP
0000
7C60
5BC0
7B00
5BF0
5B60
7B60
0B60
6B60
0B60
37F0
0000
ENDCHAR

STARTCHAR jisx0208_3670
ENCODING 13936
SWIDTH 960 0
DWIDTH 12 0
BBX 12 12 0 -2
BITMAP
0000
7B00
5BF0
7B30
5630
5BB0
7AB0
0AB0
6BB0
0C30
38E0
0000
ENDCHAR

STARTCHAR jisx0208_3671
ENCODING 13937
SWIDTH 960 0
DWIDTH 12 0
BBX 12 12 0 -2
BITMAP
0000
1FC0
18C0
1FC0
18C0
1FC0
18C0
7FF0
0000
1DC0
7070
0000
ENDCHAR

STARTCHAR jisx0208_3672
ENCODING 13938
SWIDTH 960 0
DWIDTH 12 0
BBX 12 12 0 -2
BITMAP
0000
3FE0
3660
3FE0
3660
7FF0
65B0
5EB0
0300
2C60
6FB0
0000
ENDCHAR

STARTCHAR jisx0208_3673
ENCODING 13939
SWIDTH 960 0
DWIDTH 12 0
BBX 12 12 0 -2
BITMAP
0000
03C0
3FF0
3330
2BE0
2B60
2FF0
3030
3FF0
66C0
5C70
0000
ENDCHAR

STARTCHAR jisx0208_3674
ENCODING 13940
SWIDTH 960 0
DWIDTH 12 0
BBX 12 12 0 -2
BITMAP
0000
01C0
7B60
5FF0
5B60
5BE0
5B60
7BE0
02B0
02E0
07B0
0000
ENDCHAR

STARTCHAR jisx0208_3675
ENCODING 13941
SWIDTH 960 0
DWIDTH 12 0
BBX 12 12 0 -2
BITMAP
0000
0600
7FF0
6DB0
5960
31E0
0000
3FE0
0600
0600
7FF0
0000
ENDCHAR

STARTCHAR jisx0208_3676
ENCODING 13942
SWIDTH 960 0
DWIDTH 12 0
BBX 12 12 0 -2
BITMAP
0000
17E0
1560
37E0
3560
77E0
3180
2FF0
2D70
2FB0
2C70
0000
ENDCHAR

STARTCHAR jisx0208_3677
ENCODING 13943
SWIDTH 960 0
DWIDTH 12 0
BBX 12 12 0 -2
BITMAP
0000
0600
7FF0
56B0
1FC0
16C0
3FE0
3660
3560
3EE0
3060
0000
ENDCHAR

STARTCHAR jisx0208_3678
ENCODING 13944
SWIDTH 960 0
DWIDTH 12 0
BBX 12 12 0 -2
BITMAP
0000
67E0
3560
07E0
0560
6FF0
2DB0
2DB0
2B70
3800
6FF0
0000
ENDCHAR

STARTCHAR jisx0208_3679
ENCODING 13945
SWIDTH 960 0
DWIDTH 12 0
BBX 12 12 0 -2
BITMAP
0000
77E0
5560
57E0
7560
57E0
5980
5FF0
6DB0
6BB0
6C70
0000
ENDCHAR

STARTCHAR jisx0208_367A
ENCODING 13946
SWIDTH 960 0
DWIDTH 12 0
BBX 12 12 0 -2
BITMAP
0000
0600
3FE0
3660
3FE0
0600
7FF0
6630
7FF0
0600
0600
0000
ENDCHAR

STARTCHAR jisx0208_367B
ENCODING 13947
SWIDTH 960 0
DWIDTH 12 0
BBX 12 12 0 -2
BITMAP
0000
2CC0
2FF0
7B60
2EF0
7AB0
6AB0
2EB0
2CB0
2AF0
2DC0
0000
ENDCHAR

STARTCHAR jisx0208_367C
ENCODING 13948
SWIDTH 960 0
DWIDTH 12 0
BBX 12 12 0 -2
BITMAP
0000
1B30
2AB0
62B0
3AB0
1AB0
7AB0
1AB0
5AB0
1EB0
7630
0000
ENDCHAR

STARTCHAR jisx0208_367D
ENCODING 13949
SWIDTH 960 0
DWIDTH 12 0
BBX 12 12 0 -2
BITMAP
0000
3FF0
3030
3FF0
2DB0
3560
2FF0
2C30
2FF0
6C30
6CF0
0000
ENDCHAR

STARTCHAR jisx0208_367E
ENCODING 13950
SWIDTH 960 0
DWIDTH 12 0
BBX 12 12 0 -2
BITMAP
0000
3FF0
3030
3FF0
3180
2DB0
2FF0
3180
2DB0
6DB0
6FF0
0000
ENDCHAR

STARTCHAR jisx0208_3721
ENCODING 14113
SWIDTH 960 0
DWIDTH 12 0
BBX 12 12 0 -2
BITMAP
0000
2FF0
2C30
7FF0
2CC0
3AB0
6BF0
2CC0
2AB0
2AB0
7BF0
0000
ENDCHAR

STARTCHAR jisx0208_3722
ENCODING 14114
SWIDTH 960 0
DWIDTH 12 0
BBX 12 12 0 -2
BITMAP
0000
0600
7FF0
6B30
3FE0
3060
3FE0
2AC0
2FC0
5B60
5FE0
0000
ENDCHAR

STARTCHAR jisx0208_3723
ENCODING 14115
SWIDTH 960 0
DWIDTH 12 0
BBX 12 12 0 -2
BITMAP
0000
0660
76C0
1580
36C0
6E70
3FE0
3060
3FE0
3060
3FE0
0000
ENDCHAR

STARTCHAR jisx0208_3724
ENCODING 14116
SWIDTH 960 0
DWIDTH 12 0
BBX 12 12 0 -2
BITMAP
0000
5AC0
7AC0
5AC0
36B0
7AE0
6AC0
7AC0
32B0
7AB0
32F0
0000
ENDCHAR

STARTCHAR jisx0208_3725
ENCODING 14117
SWIDTH 960 0
DWIDTH 12 0
BBX 12 12 0 -2
BITMAP
0000
3660
5FB0
2D60
2F60
56B0
7FF0
0600
3FE0
3060
3FE0
0000
ENDCHAR

STARTCHAR jisx0208_3726
ENCODING 14118
SWIDTH 960 0
DWIDTH 12 0
BBX 12 12 0 -2
BITMAP
0000
0600
7FF0
6DB0
37E0
0180
6FF0
3180
07E0
3180
6FF0
0000
ENDCHAR

STARTCHAR jisx0208_3727
ENCODING 14119
SWIDTH 960 0
DWIDTH 12 0
BBX 12 12 0 -2
BITMAP
0000
35B0
7BE0
35B0
3DF0
35B0
3DE0
35B0
65F0
2B60
6DB0
0000
ENDCHAR

STARTCHAR jisx0208_3728
ENCODING 14120
SWIDTH 960 0
DWIDTH 12 0
BBX 12 12 0 -2
BITMAP
0000
77E0
5560
57E0
7560
57E0
5800
5FF0
76B0
6560
6F30
0000
ENDCHAR

STARTCHAR jisx0208_3729
ENCODING 14121
SWIDTH 960 0
DWIDTH 12 0
BBX 12 12 0 -2
BITMAP
0000
1F80
3300
6580
1CC0
7670
1580
7FF0
1580
36C0
6670
0000
ENDCHAR

STARTCHAR jisx0208_372A
ENCODING 14122
SWIDTH 960 0
DWIDTH 12 0
BBX 12 12 0 -2
BITMAP
0000
7FF0
0B00
3FE0
2B60
3FE0
0600
7FF0
0D80
16C0
7670
0000
ENDCHAR

STARTCHAR jisx0208_372B
ENCODING 14123
SWIDTH 960 0
DWIDTH 12 0
BBX 12 12 0 -2
BITMAP
0000
33E0
5B60
33E0
67F0
75B0
37F0
3180
6FF0
3560
2DB0
0000
ENDCHAR

STARTCHAR jisx0208_372C
ENCODING 14124
SWIDTH 960 0
DWIDTH 12 0
BBX 12 12 0 -2
BITMAP
0000
1FC0
0D80
0700
7BE0
2D60
1CC0
3560
7FF0
1580
76F0
0000
ENDCHAR

STARTCHAR jisx0208_372D
ENCODING 14125
SWIDTH 960 0
DWIDTH 12 0
BBX 12 12 0 -2
BITMAP
0000
32C0
5EB0
05B0
7EE0
36C0
76C0
2EC0
7560
3560
7730
0000
ENDCHAR

STARTCHAR jisx0208_372E
ENCODING 14126
SWIDTH 960 0
DWIDTH 12 0
BBX 12 12 0 -2
BITMAP
0000
7EC0
18C0
7FF0
56B0
7EB0
19B0
7D60
0000
2B60
6DB0
0000
ENDCHAR

STARTCHAR jisx0208_372F
ENCODING 14127
SWIDTH 960 0
DWIDTH 12 0
BBX 12 12 0 -2
BITMAP
0000
3FC0
06C0
7FF0
06C0
3FC0
0C00
1FE0
3860
5860
1FE0
0000
ENDCHAR

STARTCHAR jisx0208_3730
ENCODING 14128
SWIDTH 960 0
DWIDTH 12 0
BBX 12 12 0 -2
BITMAP
0000
0D80
7FF0
0D80
7FF0
16C0
1FC0
16C0
7FF0
2B60
6DB0
0000
ENDCHAR

STARTCHAR jisx0208_3731
ENCODING 14129
SWIDTH 960 0
DWIDTH 12 0
BBX 12 12 0 -2
BITMAP
0000
7B30
02B0
7AB0
02B0
7AB0
02B0
7AB0
5AB0
5B30
7630
0000
ENDCHAR

STARTCHAR jisx0208_3732
ENCODING 14130
SWIDTH 960 0
DWIDTH 12 0
BBX 12 12 0 -2
BITMAP
0000
7B30
2D60
7BF0
2CC0
7BF0
30C0
3CC0
6BF0
2CC0
3CC0
0000
ENDCHAR

STARTCHAR jisx0208_3733
ENCODING 14131
SWIDTH 960 0
DWIDTH 12 0
BBX 12 12 0 -2
BITMAP
0000
7FF0
6630
3FE0
16C0
1FC0
16C0
1FC0
0600
7FF0
0600
0000
ENDCHAR

STARTCHAR jisx0208_3734
ENCODING 14132
SWIDTH 960 0
DWIDTH 12 0
BBX 12 12 0 -2
BITMAP
0000
7EF0
36B0
7EB0
36E0
7EB0
30B0
3EB0
76E0
36C0
3EC0
0000
ENDCHAR

STARTCHAR jisx0208_3735
ENCODING 14133
SWIDTH 960 0
DWIDTH 12 0
BBX 12 12 0 -2
BITMAP
0000
18C0
7EC0
18C0
7EE0
18B0
18C0
7EC0
18C0
1EC0
78C0
0000
ENDCHAR

STARTCHAR jisx0208_3736
ENCODING 14134
SWIDTH 960 0
DWIDTH 12 0
BBX 12 12 0 -2
BITMAP
0000
3000
7DF0
35B0
5DF0
0600
7FF0
0B30
7960
16C0
3C70
0000
ENDCHAR

ENDFONT
